<svg width="25" height="23" viewBox="0 0 25 23" fill="none" xmlns="http://www.w3.org/2000/svg">
<path d="M21.9467 12.8565L21.9467 12.8565C21.9424 12.8754 21.9256 12.8889 21.9061 12.8889H9.18281H7.95758L8.2031 14.0893L8.48717 15.4782L8.65071 16.2778H9.46688H21.117C21.1272 16.2778 21.132 16.2797 21.1349 16.2812C21.139 16.2832 21.1445 16.2871 21.1495 16.2934C21.1546 16.2998 21.1572 16.3059 21.1583 16.3104C21.159 16.3136 21.1599 16.3187 21.1576 16.3287L20.9924 17.0556H19.1329H10.0337H8.01594L5.0545 2.57738L4.89094 1.77778H4.07478H1.04167C1.01865 1.77778 1 1.75913 1 1.73611V1.04167C1 1.01865 1.01865 1 1.04167 1H5.49171C5.51155 1 5.52857 1.01397 5.53251 1.03325L5.53253 1.0333L5.93036 2.97818L6.09391 3.77778H6.91007H23.9579C23.9682 3.77778 23.9729 3.77973 23.9758 3.78116C23.98 3.78322 23.9854 3.78713 23.9904 3.79345C23.9955 3.79977 23.9981 3.80593 23.9992 3.81045C23.9999 3.8136 24.0008 3.81869 23.9985 3.82868L21.9467 12.8565ZM19.8327 18.7699L20.8233 17.7994L20.7421 18.1568L21.4566 18.5036C21.9366 18.7365 22.2639 19.2269 22.2639 19.7917C22.2639 20.5817 21.6234 21.2222 20.8333 21.2222C20.0433 21.2222 19.4028 20.5817 19.4028 19.7917C19.4028 19.3916 19.5661 19.0311 19.8327 18.7699ZM8.24814 18.1908L8.12422 17.585L9.33391 18.7699C9.60058 19.0311 9.76389 19.3916 9.76389 19.7917C9.76389 20.5817 9.12341 21.2222 8.33333 21.2222C7.54326 21.2222 6.90278 20.5817 6.90278 19.7917C6.90278 19.2627 7.18985 18.7994 7.62227 18.5507L8.24814 18.1908Z" stroke="#023E61" stroke-width="2"/>
</svg>
