<svg width="158" height="92" viewBox="0 0 158 92" fill="none" xmlns="http://www.w3.org/2000/svg">
<path d="M128 21C130.479 14.7297 132.544 7.76048 136 2" stroke="#023E61" stroke-width="3" stroke-linecap="round"/>
<path d="M134 33C141.659 29.1167 149.223 25.2712 156 20" stroke="#023E61" stroke-width="3" stroke-linecap="round"/>
<path d="M131 49.0001C139.188 48.1928 146.021 49.2655 154 51.0001" stroke="#023E61" stroke-width="3" stroke-linecap="round"/>
<path d="M33 53C22.7349 52.7667 12.2564 50.9324 2 50" stroke="#023E61" stroke-width="3" stroke-linecap="round"/>
<path d="M35 70C27.6057 70.1253 20.084 70.437 14 75" stroke="#023E61" stroke-width="3" stroke-linecap="round"/>
<path d="M49 75C42.2556 79.5395 35.7609 84.2391 30 90" stroke="#023E61" stroke-width="3" stroke-linecap="round"/>
<path d="M49.8031 67.7409C49.1708 67.9686 48.7409 67.7663 48.5132 67.1341L44.8967 57.0914C44.669 56.4592 44.8713 56.0292 45.5035 55.8015L48.772 54.6245C50.7365 53.917 52.4344 53.8859 53.8657 54.5311C55.3082 55.1723 56.3751 56.4525 57.0663 58.3719C57.7575 60.2912 57.7538 61.9634 57.0553 63.3883C56.364 64.7979 55.0361 65.8564 53.0716 66.5639L49.8031 67.7409ZM50.0854 65.9748L52.4394 65.1271C55.3862 64.0659 56.3188 62.0337 55.2373 59.0305C54.1598 56.0386 52.1478 55.0733 49.201 56.1344L46.847 56.9822L50.0854 65.9748ZM65.3196 62.3254C63.9647 62.8133 62.7616 62.8193 61.7102 62.3434C60.6547 61.8562 59.8891 60.9521 59.4134 59.6311C59.1084 58.7844 59.0094 57.9782 59.1164 57.2127C59.2306 56.4318 59.5274 55.751 60.007 55.1701C60.4866 54.5893 61.1215 54.1566 61.9118 53.872C63.0521 53.4613 64.0819 53.505 65.001 54.0031C65.916 54.4898 66.6033 55.3711 67.0627 56.6469C67.2009 57.0308 67.0442 57.304 66.5926 57.4666L61.2072 59.406C61.9494 61.0774 63.1673 61.6082 64.8608 60.9983C65.1995 60.8763 65.5409 60.7087 65.885 60.4955C66.2251 60.271 66.5294 59.9829 66.7981 59.631C66.9864 59.4102 67.1734 59.2918 67.359 59.276C67.5518 59.2448 67.7162 59.294 67.8522 59.4236C67.9841 59.5419 68.0564 59.7072 68.069 59.9195C68.0889 60.1164 68.016 60.3212 67.8503 60.534C67.5599 60.9319 67.1795 61.2921 66.7089 61.6146C66.2456 61.9217 65.7825 62.1587 65.3196 62.3254ZM62.4126 55.05C61.7013 55.3061 61.2161 55.7296 60.9569 56.3203C60.6977 56.9111 60.6551 57.5896 60.8291 58.356L65.4524 56.6911C65.1421 55.9356 64.7254 55.416 64.2024 55.1324C63.6753 54.8376 63.0787 54.8101 62.4126 55.05ZM73.4334 59.4034C72.9367 59.5823 72.4026 59.7109 71.8313 59.789C71.26 59.8672 70.7111 59.8481 70.1845 59.7316C69.9519 59.6878 69.7825 59.5894 69.6764 59.4363C69.5702 59.2832 69.5246 59.1211 69.5395 58.9499C69.5544 58.7788 69.625 58.6385 69.7515 58.5292C69.8851 58.4046 70.0662 58.3585 70.2948 58.391C70.8205 58.4695 71.3048 58.4864 71.7479 58.4416C72.1909 58.3969 72.61 58.3033 73.0052 58.161C73.6035 57.9455 74.0165 57.6757 74.2441 57.3514C74.4717 57.0271 74.5204 56.6843 74.3903 56.323C74.2846 56.0295 74.1017 55.8402 73.8416 55.7554C73.5773 55.6592 73.2257 55.6391 72.7868 55.6952L71.062 55.9528C69.5338 56.1715 68.5582 55.6938 68.1354 54.5196C67.8548 53.7406 67.9417 53.0078 68.3959 52.3213C68.8502 51.6348 69.5798 51.1106 70.5846 50.7487C71.6007 50.3828 72.5651 50.3161 73.4779 50.5486C73.6992 50.5965 73.8573 50.699 73.9521 50.8561C74.0429 51.002 74.0752 51.1625 74.0491 51.3378C74.0188 51.5017 73.9348 51.6404 73.7971 51.7537C73.6707 51.863 73.4875 51.9035 73.2477 51.8751C72.8358 51.7938 72.4443 51.769 72.073 51.8007C71.6977 51.821 71.352 51.8881 71.0359 52.002C70.4488 52.2134 70.0435 52.4869 69.82 52.8225C69.5924 53.1468 69.5457 53.4952 69.6798 53.8678C69.8831 54.4323 70.3858 54.6594 71.1879 54.5491L72.9126 54.2915C73.6994 54.174 74.342 54.2232 74.8406 54.439C75.3505 54.6508 75.7132 55.0558 75.9287 55.6542C76.2133 56.4445 76.1265 57.1773 75.6681 57.8525C75.2058 58.5165 74.4608 59.0334 73.4334 59.4034ZM75.8915 46.9245C75.5528 47.0465 75.257 47.0573 75.0041 46.9571C74.7624 46.8528 74.5867 46.6482 74.4769 46.3434C74.2452 45.6998 74.485 45.25 75.1962 44.9938C75.9075 44.7377 76.379 44.9314 76.6108 45.5749C76.8425 46.2185 76.6028 46.6683 75.8915 46.9245ZM79.569 57.1365C79.0045 57.3398 78.6104 57.1309 78.3868 56.51L76.0083 49.9052C75.7888 49.2955 75.9612 48.889 76.5258 48.6858C77.1016 48.4784 77.4992 48.6796 77.7188 49.2892L80.0973 55.894C80.3209 56.515 80.1448 56.9291 79.569 57.1365ZM87.6991 57.7098C87.0894 57.9293 86.4743 58.0807 85.8538 58.1639C85.2446 58.243 84.6577 58.2247 84.0931 58.1092C83.8492 58.0695 83.6742 57.973 83.5681 57.82C83.4619 57.6669 83.4199 57.4971 83.442 57.3105C83.4754 57.1199 83.5513 56.9587 83.6696 56.8268C83.8033 56.7022 83.9787 56.6581 84.1959 56.6947C84.7903 56.7867 85.3239 56.7987 85.7967 56.7304C86.2849 56.6694 86.721 56.5698 87.1048 56.4315C88.6855 55.8623 89.1912 54.7874 88.622 53.2068L88.1524 51.9027C88.0942 52.4849 87.8619 53.0086 87.4555 53.4738C87.0603 53.9349 86.5523 54.2773 85.9313 54.5009C85.1862 54.7693 84.476 54.8337 83.8008 54.6942C83.1215 54.5435 82.5197 54.2181 81.9953 53.7182C81.4669 53.207 81.0542 52.5394 80.7574 51.7152C80.4647 50.9023 80.361 50.1361 80.4462 49.4167C80.5275 48.6859 80.7837 48.0516 81.2149 47.5136C81.6421 46.9644 82.2283 46.5556 82.9734 46.2873C83.5944 46.0637 84.1984 46.0056 84.7856 46.113C85.3799 46.2051 85.881 46.4455 86.2889 46.8343L86.0571 46.1908C85.8498 45.615 86.0284 45.2254 86.5929 45.0221C87.1574 44.8189 87.5433 45.0051 87.7507 45.5809L90.2085 52.4059C90.676 53.7042 90.6926 54.7951 90.2582 55.6786C89.8279 56.5733 88.9749 57.2503 87.6991 57.7098ZM85.856 53.0167C86.5785 52.7565 87.0649 52.3007 87.315 51.6495C87.5652 50.9982 87.5357 50.2435 87.2267 49.3855C86.9177 48.5274 86.4613 47.9329 85.8574 47.6019C85.2495 47.2596 84.5843 47.2186 83.8617 47.4788C83.1391 47.739 82.6528 48.1948 82.4026 48.846C82.1484 49.486 82.1758 50.235 82.4848 51.0931C82.7938 51.9512 83.2523 52.5513 83.8602 52.8936C84.4681 53.2359 85.1334 53.2769 85.856 53.0167ZM93.7485 52.0493C93.184 52.2526 92.7981 52.0664 92.5907 51.4906L90.1513 44.7164C89.9439 44.1406 90.1168 43.7531 90.67 43.5539C91.2233 43.3547 91.6036 43.5429 91.8109 44.1187L92.0366 44.7454C92.1399 44.1469 92.3876 43.6305 92.7796 43.196C93.1828 42.7574 93.6893 42.4283 94.2989 42.2088C96.2522 41.5054 97.6272 42.2601 98.4241 44.473L99.9915 48.8254C100.199 49.4012 100.02 49.7908 99.4557 49.9941C98.8799 50.2014 98.4884 50.0172 98.281 49.4414L96.7502 45.1906C96.4941 44.4793 96.1659 44.0108 95.7658 43.785C95.3769 43.5552 94.8889 43.546 94.3018 43.7574C93.6131 44.0054 93.1392 44.4248 92.88 45.0156C92.6281 45.591 92.6302 46.2343 92.8863 46.9456L94.3012 50.8746C94.5086 51.4504 94.3243 51.842 93.7485 52.0493ZM108.158 46.8603C107.616 47.0554 107.245 46.8764 107.046 46.3232L103.259 35.8063C103.06 35.2531 103.231 34.8789 103.773 34.6838C104.01 34.5984 104.207 34.5785 104.364 34.6241C104.532 34.6656 104.709 34.7677 104.895 34.9302L111.866 41.2202L113.227 31.9297C113.267 31.6858 113.332 31.4963 113.424 31.3613C113.527 31.2222 113.691 31.1119 113.917 31.0306C114.437 30.8436 114.796 31.0267 114.995 31.5799L118.782 42.0968C118.982 42.65 118.821 43.0201 118.302 43.2071C117.771 43.3982 117.407 43.2172 117.207 42.6639L114.317 34.6366L113.12 42.4713C113.091 42.6732 113.04 42.8319 112.967 42.9476C112.893 43.0632 112.767 43.1535 112.586 43.2186C112.394 43.2877 112.227 43.3031 112.086 43.2647C111.952 43.211 111.811 43.1213 111.664 42.9958L105.753 37.7395L108.638 45.7499C108.837 46.3031 108.677 46.6732 108.158 46.8603ZM125.602 40.6166C124.247 41.1045 123.044 41.1104 121.993 40.6345C120.937 40.1474 120.172 39.2433 119.696 37.9223C119.391 37.0756 119.292 36.2694 119.399 35.5039C119.513 34.723 119.81 34.0422 120.29 33.4613C120.769 32.8805 121.404 32.4478 122.194 32.1632C123.335 31.7525 124.364 31.7962 125.283 32.2943C126.199 32.781 126.886 33.6623 127.345 34.9381C127.483 35.3219 127.327 35.5952 126.875 35.7578L121.49 37.6972C122.232 39.3686 123.45 39.8994 125.143 39.2895C125.482 39.1675 125.823 38.9999 126.168 38.7867C126.508 38.5622 126.812 38.2741 127.081 37.9222C127.269 37.7014 127.456 37.583 127.642 37.5672C127.834 37.536 127.999 37.5852 128.135 37.7148C128.267 37.8331 128.339 37.9984 128.352 38.2107C128.371 38.4076 128.299 38.6124 128.133 38.8251C127.842 39.2231 127.462 39.5833 126.991 39.9058C126.528 40.2129 126.065 40.4499 125.602 40.6166ZM122.695 33.3412C121.984 33.5973 121.499 34.0208 121.239 34.6115C120.98 35.2023 120.938 35.8808 121.112 36.6472L125.735 34.9823C125.425 34.2267 125.008 33.7072 124.485 33.4236C123.958 33.1288 123.361 33.1013 122.695 33.3412Z" fill="#7DE9FF"/>
</svg>
