<svg width="112" height="33" viewBox="0 0 112 33" fill="none" xmlns="http://www.w3.org/2000/svg">
<path d="M46.5561 26.5024C46.5561 26.268 46.517 26.059 46.4389 25.8754C46.3608 25.6918 46.2319 25.5277 46.0522 25.3832C45.8764 25.2348 45.6381 25.0981 45.3373 24.9731C45.0405 24.8442 44.6694 24.7172 44.2241 24.5922C43.7983 24.4711 43.4135 24.3383 43.0698 24.1938C42.726 24.0492 42.4311 23.8832 42.185 23.6957C41.9428 23.5082 41.7573 23.2895 41.6284 23.0395C41.4995 22.7856 41.435 22.4906 41.435 22.1547C41.435 21.8266 41.5053 21.5277 41.6459 21.2582C41.7866 20.9887 41.9838 20.7563 42.2377 20.5609C42.4955 20.3656 42.7983 20.2152 43.1459 20.1098C43.4975 20.0043 43.8823 19.9516 44.3002 19.9516C44.8979 19.9516 45.4135 20.0649 45.8471 20.2914C46.2846 20.518 46.6225 20.8246 46.8608 21.2113C47.103 21.5942 47.2241 22.0238 47.2241 22.5004H46.5034C46.5034 22.1293 46.4155 21.7992 46.2397 21.5102C46.0678 21.2172 45.8178 20.9887 45.4897 20.8246C45.1655 20.6567 44.769 20.5727 44.3002 20.5727C43.8315 20.5727 43.437 20.6449 43.1166 20.7895C42.8002 20.9301 42.56 21.1195 42.3959 21.3578C42.2358 21.5922 42.1557 21.8539 42.1557 22.143C42.1557 22.3461 42.1948 22.5336 42.2729 22.7055C42.351 22.8734 42.478 23.0317 42.6537 23.1801C42.8334 23.3246 43.0698 23.4613 43.3627 23.5902C43.6557 23.7152 44.017 23.8344 44.4467 23.9477C44.8998 24.0727 45.3022 24.2113 45.6537 24.3637C46.0053 24.516 46.3022 24.6918 46.5444 24.891C46.7866 25.0863 46.9702 25.3149 47.0952 25.5766C47.2202 25.8383 47.2827 26.143 47.2827 26.4906C47.2827 26.8383 47.2084 27.1508 47.06 27.4281C46.9155 27.7016 46.7104 27.934 46.4448 28.1254C46.183 28.3168 45.8725 28.4633 45.5131 28.5649C45.1577 28.6664 44.769 28.7172 44.3471 28.7172C43.9682 28.7172 43.5912 28.6684 43.2162 28.5707C42.8412 28.4731 42.4975 28.3227 42.185 28.1195C41.8764 27.9125 41.6284 27.6469 41.4409 27.3227C41.2573 26.9984 41.1655 26.6117 41.1655 26.1625H41.8803C41.8803 26.5219 41.9526 26.8246 42.0971 27.0707C42.2416 27.3168 42.433 27.516 42.6713 27.6684C42.9135 27.8207 43.1791 27.932 43.4682 28.0024C43.7612 28.0688 44.0541 28.102 44.3471 28.102C44.7963 28.102 45.185 28.0356 45.5131 27.9027C45.8452 27.7699 46.101 27.5844 46.2807 27.3461C46.4643 27.1039 46.5561 26.8227 46.5561 26.5024ZM52.7377 27.1352V22.2602H53.4409V28.6H52.767L52.7377 27.1352ZM52.8666 25.9633L53.2299 25.9516C53.2299 26.35 53.183 26.7172 53.0893 27.0531C52.9955 27.3891 52.8491 27.682 52.6498 27.932C52.4506 28.182 52.1928 28.3754 51.8764 28.5121C51.56 28.6488 51.1791 28.7172 50.7338 28.7172C50.4252 28.7172 50.142 28.6742 49.8842 28.5883C49.6303 28.4984 49.4116 28.3578 49.228 28.1664C49.0444 27.975 48.9018 27.727 48.8002 27.4223C48.7026 27.1176 48.6537 26.7484 48.6537 26.3149V22.2602H49.351V26.3266C49.351 26.6664 49.3881 26.9496 49.4623 27.1762C49.5405 27.4027 49.6459 27.5844 49.7787 27.7211C49.9155 27.8578 50.0717 27.9555 50.2475 28.0141C50.4233 28.0727 50.6127 28.102 50.8159 28.102C51.3315 28.102 51.7377 28.0024 52.0346 27.8031C52.3354 27.6039 52.5483 27.3422 52.6733 27.018C52.8022 26.6899 52.8666 26.3383 52.8666 25.9633ZM55.9721 23.309V28.6H55.2748V22.2602H55.9545L55.9721 23.309ZM58.2162 22.2133L58.1987 22.8578C58.1205 22.8461 58.0444 22.8363 57.9702 22.8285C57.8959 22.8207 57.8159 22.8168 57.7299 22.8168C57.4252 22.8168 57.1577 22.8734 56.9272 22.9867C56.7006 23.0961 56.5092 23.2504 56.353 23.4496C56.1967 23.6449 56.0776 23.8754 55.9955 24.141C55.9135 24.4027 55.8666 24.684 55.8549 24.9848L55.5971 25.0844C55.5971 24.6703 55.6401 24.2856 55.726 23.9301C55.812 23.5746 55.9428 23.2641 56.1186 22.9984C56.2983 22.7289 56.5229 22.5199 56.7924 22.3715C57.0659 22.2192 57.3862 22.143 57.7534 22.143C57.8432 22.143 57.9311 22.1508 58.017 22.1664C58.1069 22.1781 58.1733 22.1938 58.2162 22.2133ZM60.6127 28.6H59.9155V21.475C59.9155 21.0414 59.9897 20.6762 60.1381 20.3793C60.2905 20.0824 60.5053 19.8578 60.7827 19.7055C61.0639 19.5531 61.3979 19.477 61.7846 19.477C61.9057 19.477 62.0307 19.4848 62.1596 19.5004C62.2885 19.5121 62.4135 19.5375 62.5346 19.5766L62.4819 20.1684C62.3842 20.141 62.2846 20.1234 62.183 20.1156C62.0854 20.1039 61.9702 20.0981 61.8373 20.0981C61.5834 20.0981 61.3647 20.1527 61.1811 20.2621C60.9975 20.3676 60.8569 20.5219 60.7592 20.725C60.6616 20.9281 60.6127 21.1781 60.6127 21.475V28.6ZM62.1245 22.2602V22.8344H58.8666V22.2602H62.1245ZM69.4135 24.4984H67.0112L66.9995 23.8891H69.0678C69.4897 23.8891 69.8491 23.8285 70.1459 23.7074C70.4428 23.5863 70.6674 23.4067 70.8198 23.1684C70.976 22.9262 71.0541 22.6293 71.0541 22.2777C71.0541 21.9184 70.978 21.6215 70.8256 21.3871C70.6733 21.1488 70.4448 20.9731 70.1401 20.8598C69.8354 20.7465 69.4526 20.6899 68.9916 20.6899H67.1987V28.6H66.478V20.0688H68.9916C69.4252 20.0688 69.8139 20.1117 70.1577 20.1977C70.5014 20.2836 70.7944 20.4184 71.0366 20.602C71.2787 20.7856 71.4623 21.018 71.5873 21.2992C71.7162 21.5766 71.7807 21.9086 71.7807 22.2953C71.7807 22.6469 71.7026 22.9652 71.5463 23.2504C71.3901 23.5317 71.1694 23.7621 70.8842 23.9418C70.603 24.1176 70.2651 24.227 69.8705 24.2699L69.4135 24.4984ZM69.3608 28.6H66.7827L67.1518 27.9848H69.3608C69.7827 27.9848 70.142 27.9145 70.4389 27.7738C70.7397 27.6293 70.9702 27.4242 71.1303 27.1586C71.2905 26.893 71.3705 26.5766 71.3705 26.2094C71.3705 25.8852 71.3002 25.5942 71.1596 25.3363C71.019 25.0785 70.8041 24.8754 70.5151 24.727C70.226 24.5746 69.8588 24.4984 69.4135 24.4984H67.9194L67.9311 23.8891H70.0463L70.1752 24.1059C70.558 24.1449 70.892 24.2641 71.1772 24.4633C71.4662 24.6586 71.6889 24.9067 71.8452 25.2074C72.0053 25.5082 72.0854 25.8383 72.0854 26.1977C72.0854 26.7133 71.9702 27.1508 71.7397 27.5102C71.5131 27.8656 71.1948 28.1371 70.7846 28.3246C70.3784 28.5082 69.9037 28.6 69.3608 28.6ZM73.2866 25.5297V25.3363C73.2866 24.8754 73.353 24.4496 73.4858 24.059C73.6186 23.6684 73.808 23.3305 74.0541 23.0453C74.3041 22.7602 74.603 22.5395 74.9506 22.3832C75.2983 22.2231 75.685 22.143 76.1108 22.143C76.5405 22.143 76.9291 22.2231 77.2768 22.3832C77.6245 22.5395 77.9233 22.7602 78.1733 23.0453C78.4233 23.3305 78.6147 23.6684 78.7475 24.059C78.8803 24.4496 78.9467 24.8754 78.9467 25.3363V25.5297C78.9467 25.9906 78.8803 26.4164 78.7475 26.807C78.6147 27.1938 78.4233 27.5297 78.1733 27.8149C77.9272 28.1 77.6303 28.3227 77.2827 28.4828C76.935 28.6391 76.5483 28.7172 76.1225 28.7172C75.6928 28.7172 75.3041 28.6391 74.9565 28.4828C74.6088 28.3227 74.31 28.1 74.06 27.8149C73.81 27.5297 73.6186 27.1938 73.4858 26.807C73.353 26.4164 73.2866 25.9906 73.2866 25.5297ZM73.9838 25.3363V25.5297C73.9838 25.8774 74.0307 26.2074 74.1245 26.5199C74.2182 26.8285 74.3549 27.1039 74.5346 27.3461C74.7143 27.5844 74.937 27.7719 75.2026 27.9086C75.4682 28.0453 75.7748 28.1137 76.1225 28.1137C76.4662 28.1137 76.769 28.0453 77.0307 27.9086C77.2963 27.7719 77.519 27.5844 77.6987 27.3461C77.8784 27.1039 78.0131 26.8285 78.103 26.5199C78.1967 26.2074 78.2436 25.8774 78.2436 25.5297V25.3363C78.2436 24.9926 78.1967 24.6664 78.103 24.3578C78.0131 24.0492 77.8764 23.7738 77.6928 23.5317C77.5131 23.2895 77.2905 23.0981 77.0248 22.9574C76.7592 22.8168 76.4545 22.7465 76.1108 22.7465C75.767 22.7465 75.4623 22.8168 75.1967 22.9574C74.935 23.0981 74.7123 23.2895 74.5287 23.5317C74.3491 23.7738 74.2123 24.0492 74.1186 24.3578C74.0287 24.6664 73.9838 24.9926 73.9838 25.3363ZM84.2553 27.4633V24.1938C84.2553 23.893 84.1928 23.6332 84.0678 23.4145C83.9428 23.1957 83.7592 23.0277 83.517 22.9106C83.2748 22.7934 82.976 22.7348 82.6205 22.7348C82.2924 22.7348 81.9995 22.7934 81.7416 22.9106C81.4877 23.0238 81.2866 23.1781 81.1381 23.3734C80.9936 23.5649 80.9213 23.7777 80.9213 24.0121L80.2182 24.0063C80.2182 23.768 80.2768 23.5375 80.394 23.3149C80.5112 23.0922 80.6772 22.893 80.892 22.7172C81.1069 22.5414 81.3627 22.4027 81.6596 22.3012C81.9604 22.1957 82.2905 22.143 82.6498 22.143C83.103 22.143 83.5014 22.2192 83.8452 22.3715C84.1928 22.5238 84.4643 22.7524 84.6596 23.057C84.8549 23.3617 84.9526 23.7445 84.9526 24.2055V27.2699C84.9526 27.4887 84.9682 27.7152 84.9995 27.9496C85.0346 28.184 85.0834 28.3774 85.1459 28.5297V28.6H84.4018C84.3549 28.4594 84.3178 28.2836 84.2905 28.0727C84.267 27.8578 84.2553 27.6547 84.2553 27.4633ZM84.4194 24.9086L84.4311 25.4477H83.0541C82.6948 25.4477 82.3725 25.4809 82.0873 25.5473C81.8061 25.6098 81.5678 25.7035 81.3725 25.8285C81.1772 25.9496 81.0268 26.0961 80.9213 26.268C80.8198 26.4399 80.769 26.6352 80.769 26.8539C80.769 27.0805 80.8256 27.2875 80.9389 27.475C81.0561 27.6625 81.2202 27.8129 81.4311 27.9262C81.6459 28.0356 81.8998 28.0902 82.1928 28.0902C82.5834 28.0902 82.9272 28.018 83.2241 27.8734C83.5248 27.7289 83.7729 27.5395 83.9682 27.3051C84.1635 27.0707 84.2944 26.8149 84.3608 26.5375L84.6655 26.9418C84.6147 27.1371 84.5209 27.3383 84.3842 27.5453C84.2514 27.7484 84.0776 27.9399 83.8627 28.1195C83.6479 28.2953 83.394 28.4399 83.101 28.5531C82.812 28.6625 82.4838 28.7172 82.1166 28.7172C81.7026 28.7172 81.3412 28.6391 81.0327 28.4828C80.728 28.3266 80.4897 28.1137 80.3178 27.8442C80.1498 27.5707 80.0659 27.2621 80.0659 26.9184C80.0659 26.6059 80.1323 26.3266 80.2651 26.0805C80.3979 25.8305 80.5893 25.6195 80.8393 25.4477C81.0932 25.2719 81.3979 25.1391 81.7534 25.0492C82.1127 24.9555 82.5151 24.9086 82.9604 24.9086H84.4194ZM87.5307 23.309V28.6H86.8334V22.2602H87.5131L87.5307 23.309ZM89.7748 22.2133L89.7573 22.8578C89.6791 22.8461 89.603 22.8363 89.5287 22.8285C89.4545 22.8207 89.3745 22.8168 89.2885 22.8168C88.9838 22.8168 88.7162 22.8734 88.4858 22.9867C88.2592 23.0961 88.0678 23.2504 87.9116 23.4496C87.7553 23.6449 87.6362 23.8754 87.5541 24.141C87.4721 24.4027 87.4252 24.684 87.4135 24.9848L87.1557 25.0844C87.1557 24.6703 87.1987 24.2856 87.2846 23.9301C87.3705 23.5746 87.5014 23.2641 87.6772 22.9984C87.8569 22.7289 88.0815 22.5199 88.351 22.3715C88.6245 22.2192 88.9448 22.143 89.312 22.143C89.4018 22.143 89.4897 22.1508 89.5756 22.1664C89.6655 22.1781 89.7319 22.1938 89.7748 22.2133ZM94.8784 27.3695V19.6H95.5815V28.6H94.9252L94.8784 27.3695ZM90.478 25.4945V25.3715C90.478 24.8793 90.5346 24.4359 90.6479 24.0414C90.7612 23.643 90.9233 23.3031 91.1342 23.0219C91.3491 22.7367 91.6069 22.5199 91.9077 22.3715C92.2084 22.2192 92.5483 22.143 92.9272 22.143C93.2983 22.143 93.6264 22.2035 93.9116 22.3246C94.1967 22.4457 94.4409 22.6195 94.644 22.8461C94.851 23.0727 95.017 23.3422 95.142 23.6547C95.2709 23.9672 95.3647 24.3149 95.4233 24.6977V26.2621C95.3764 26.6215 95.2905 26.9516 95.1655 27.2524C95.0405 27.5492 94.8745 27.809 94.6674 28.0317C94.4604 28.2504 94.2104 28.4203 93.9174 28.5414C93.6284 28.6586 93.2944 28.7172 92.9155 28.7172C92.5405 28.7172 92.2026 28.6391 91.9018 28.4828C91.601 28.3266 91.3452 28.1059 91.1342 27.8207C90.9233 27.5317 90.7612 27.1899 90.6479 26.7953C90.5346 26.4008 90.478 25.9672 90.478 25.4945ZM91.1811 25.3715V25.4945C91.1811 25.8656 91.2182 26.2094 91.2924 26.5258C91.3666 26.8422 91.4799 27.1176 91.6323 27.352C91.7846 27.5863 91.978 27.7699 92.2123 27.9027C92.4467 28.0356 92.7241 28.102 93.0444 28.102C93.4467 28.102 93.7846 28.0258 94.058 27.8734C94.3315 27.7172 94.5502 27.5121 94.7143 27.2582C94.8784 27.0004 94.9975 26.7192 95.0717 26.4145V24.5922C95.0248 24.3852 94.9565 24.1742 94.8666 23.9594C94.7768 23.7445 94.6537 23.5473 94.4975 23.3676C94.3452 23.184 94.1498 23.0375 93.9116 22.9281C93.6772 22.8149 93.392 22.7582 93.0561 22.7582C92.7319 22.7582 92.4526 22.8246 92.2182 22.9574C91.9838 23.0902 91.7885 23.2758 91.6323 23.5141C91.4799 23.7484 91.3666 24.0238 91.2924 24.3402C91.2182 24.6567 91.1811 25.0004 91.1811 25.3715ZM101.224 26.9828C101.224 26.8109 101.181 26.641 101.095 26.4731C101.009 26.3051 100.843 26.1508 100.597 26.0102C100.355 25.8695 99.9975 25.7504 99.5248 25.6527C99.1733 25.5746 98.8588 25.4867 98.5815 25.3891C98.308 25.2914 98.0776 25.1742 97.8901 25.0375C97.7026 24.9008 97.56 24.7367 97.4623 24.5453C97.3647 24.3539 97.3159 24.1274 97.3159 23.8656C97.3159 23.6313 97.3666 23.4106 97.4682 23.2035C97.5737 22.9926 97.7221 22.809 97.9135 22.6527C98.1088 22.4926 98.3432 22.3676 98.6166 22.2777C98.894 22.1879 99.2045 22.143 99.5483 22.143C100.037 22.143 100.455 22.227 100.802 22.3949C101.154 22.559 101.421 22.7836 101.605 23.0688C101.792 23.3539 101.886 23.6762 101.886 24.0356H101.189C101.189 23.8168 101.124 23.6098 100.996 23.4145C100.871 23.2192 100.685 23.059 100.439 22.934C100.197 22.809 99.8998 22.7465 99.5483 22.7465C99.185 22.7465 98.8901 22.8012 98.6635 22.9106C98.437 23.0199 98.2709 23.1586 98.1655 23.3266C98.0639 23.4945 98.0131 23.6684 98.0131 23.8481C98.0131 23.9887 98.0346 24.1176 98.0776 24.2348C98.1245 24.3481 98.2065 24.4535 98.3237 24.5512C98.4448 24.6488 98.6166 24.7406 98.8393 24.8266C99.062 24.9125 99.351 24.9965 99.7065 25.0785C100.218 25.1918 100.636 25.3305 100.96 25.4945C101.289 25.6547 101.531 25.8539 101.687 26.0922C101.843 26.3266 101.921 26.6117 101.921 26.9477C101.921 27.2094 101.867 27.4496 101.757 27.6684C101.648 27.8832 101.49 28.0688 101.283 28.225C101.08 28.3813 100.833 28.5024 100.544 28.5883C100.259 28.6742 99.9389 28.7172 99.5834 28.7172C99.0483 28.7172 98.5952 28.6293 98.2241 28.4535C97.8569 28.2738 97.5776 28.0395 97.3862 27.7504C97.1987 27.4574 97.1049 27.1469 97.1049 26.8188H97.8022C97.8256 27.1469 97.9291 27.4067 98.1127 27.5981C98.2963 27.7856 98.5209 27.9184 98.7866 27.9965C99.0561 28.0746 99.3217 28.1137 99.5834 28.1137C99.9428 28.1137 100.244 28.0609 100.486 27.9555C100.728 27.85 100.912 27.7113 101.037 27.5395C101.162 27.3676 101.224 27.182 101.224 26.9828Z" fill="white"/>
<path d="M47.6822 9.73438L49.9908 11.5625L48.8834 12.5234L46.6099 10.6953L47.6822 9.73438ZM50.0494 6.53516V6.93945C50.0494 7.58789 49.9615 8.16992 49.7857 8.68555C49.6138 9.20117 49.3658 9.64062 49.0416 10.0039C48.7173 10.3633 48.3345 10.6387 47.8931 10.8301C47.4517 11.0215 46.9615 11.1172 46.4224 11.1172C45.8873 11.1172 45.397 11.0215 44.9517 10.8301C44.5064 10.6387 44.1216 10.3633 43.7974 10.0039C43.4732 9.64062 43.2213 9.20117 43.0416 8.68555C42.8658 8.16992 42.7779 7.58789 42.7779 6.93945V6.53516C42.7779 5.88281 42.8658 5.30078 43.0416 4.78906C43.2213 4.27344 43.4713 3.83398 43.7916 3.4707C44.1119 3.10742 44.4947 2.83008 44.94 2.63867C45.3853 2.44727 45.8755 2.35156 46.4107 2.35156C46.9498 2.35156 47.44 2.44727 47.8814 2.63867C48.3267 2.83008 48.7115 3.10742 49.0357 3.4707C49.3599 3.83398 49.6099 4.27344 49.7857 4.78906C49.9615 5.30078 50.0494 5.88281 50.0494 6.53516ZM48.274 6.93945V6.52344C48.274 6.07031 48.231 5.67188 48.1451 5.32812C48.063 4.98438 47.942 4.69531 47.7818 4.46094C47.6255 4.22656 47.4322 4.05078 47.2017 3.93359C46.9713 3.8125 46.7076 3.75195 46.4107 3.75195C46.1138 3.75195 45.8502 3.8125 45.6197 3.93359C45.3892 4.05078 45.1959 4.22656 45.0396 4.46094C44.8834 4.69531 44.7642 4.98438 44.6822 5.32812C44.6002 5.67188 44.5591 6.07031 44.5591 6.52344V6.93945C44.5591 7.38867 44.6002 7.78711 44.6822 8.13477C44.7642 8.47852 44.8834 8.76953 45.0396 9.00781C45.1998 9.24219 45.3951 9.41992 45.6255 9.54102C45.8599 9.66211 46.1255 9.72266 46.4224 9.72266C46.7193 9.72266 46.981 9.66211 47.2076 9.54102C47.438 9.41992 47.6314 9.24219 47.7877 9.00781C47.9478 8.76953 48.0689 8.47852 48.1509 8.13477C48.233 7.78711 48.274 7.38867 48.274 6.93945ZM54.9654 9.48242V4.66016H56.6529V11H55.065L54.9654 9.48242ZM55.1529 8.18164L55.6509 8.16992C55.6509 8.5918 55.6021 8.98438 55.5045 9.34766C55.4068 9.70703 55.2603 10.0195 55.065 10.2852C54.8697 10.5469 54.6236 10.752 54.3267 10.9004C54.0298 11.0449 53.6802 11.1172 53.2779 11.1172C52.9693 11.1172 52.6841 11.0742 52.4224 10.9883C52.1646 10.8984 51.942 10.7598 51.7545 10.5723C51.5709 10.3809 51.4263 10.1367 51.3209 9.83984C51.2193 9.53906 51.1685 9.17773 51.1685 8.75586V4.66016H52.856V8.76758C52.856 8.95508 52.8775 9.11328 52.9205 9.24219C52.9673 9.37109 53.0318 9.47656 53.1138 9.55859C53.1959 9.64062 53.2916 9.69922 53.4009 9.73438C53.5142 9.76953 53.6392 9.78711 53.7759 9.78711C54.1236 9.78711 54.397 9.7168 54.5963 9.57617C54.7994 9.43555 54.942 9.24414 55.024 9.00195C55.1099 8.75586 55.1529 8.48242 55.1529 8.18164ZM59.7232 4.66016V11H58.0298V4.66016H59.7232ZM57.9244 3.00781C57.9244 2.76172 58.0103 2.55859 58.1822 2.39844C58.3541 2.23828 58.5845 2.1582 58.8736 2.1582C59.1588 2.1582 59.3873 2.23828 59.5591 2.39844C59.7349 2.55859 59.8228 2.76172 59.8228 3.00781C59.8228 3.25391 59.7349 3.45703 59.5591 3.61719C59.3873 3.77734 59.1588 3.85742 58.8736 3.85742C58.5845 3.85742 58.3541 3.77734 58.1822 3.61719C58.0103 3.45703 57.9244 3.25391 57.9244 3.00781ZM63.7369 9.79883C63.9439 9.79883 64.1275 9.75977 64.2877 9.68164C64.4478 9.59961 64.5728 9.48633 64.6627 9.3418C64.7564 9.19336 64.8052 9.01953 64.8091 8.82031H66.397C66.3931 9.26562 66.274 9.66211 66.0396 10.0098C65.8052 10.3535 65.4908 10.625 65.0963 10.8242C64.7017 11.0195 64.2603 11.1172 63.772 11.1172C63.2798 11.1172 62.8502 11.0352 62.483 10.8711C62.1197 10.707 61.817 10.4805 61.5748 10.1914C61.3326 9.89844 61.1509 9.55859 61.0298 9.17188C60.9088 8.78125 60.8482 8.36328 60.8482 7.91797V7.74805C60.8482 7.29883 60.9088 6.88086 61.0298 6.49414C61.1509 6.10352 61.3326 5.76367 61.5748 5.47461C61.817 5.18164 62.1197 4.95312 62.483 4.78906C62.8463 4.625 63.272 4.54297 63.7603 4.54297C64.2798 4.54297 64.7349 4.64258 65.1255 4.8418C65.5201 5.04102 65.8287 5.32617 66.0513 5.69727C66.2779 6.06445 66.3931 6.5 66.397 7.00391H64.8091C64.8052 6.79297 64.7603 6.60156 64.6744 6.42969C64.5923 6.25781 64.4713 6.12109 64.3111 6.01953C64.1548 5.91406 63.9615 5.86133 63.731 5.86133C63.4849 5.86133 63.2838 5.91406 63.1275 6.01953C62.9713 6.12109 62.8502 6.26172 62.7642 6.44141C62.6783 6.61719 62.6177 6.81836 62.5826 7.04492C62.5513 7.26758 62.5357 7.50195 62.5357 7.74805V7.91797C62.5357 8.16406 62.5513 8.40039 62.5826 8.62695C62.6138 8.85352 62.6724 9.05469 62.7584 9.23047C62.8482 9.40625 62.9713 9.54492 63.1275 9.64648C63.2838 9.74805 63.4869 9.79883 63.7369 9.79883ZM69.063 1.99414V11H67.3755V1.99414H69.063ZM73.0591 4.66016L70.3052 7.80078L68.8287 9.29492L68.2134 8.07617L69.3853 6.58789L71.0318 4.66016H73.0591ZM71.3072 11L69.4322 8.07031L70.5982 7.05078L73.2525 11H71.3072ZM78.3326 8.76758C78.3326 8.61523 78.3091 8.47852 78.2623 8.35742C78.2193 8.23242 78.1373 8.11914 78.0162 8.01758C77.8951 7.91211 77.7252 7.80859 77.5064 7.70703C77.2877 7.60547 77.0045 7.5 76.6568 7.39062C76.2701 7.26562 75.9029 7.125 75.5552 6.96875C75.2115 6.8125 74.9068 6.63086 74.6412 6.42383C74.3795 6.21289 74.1724 5.96875 74.0201 5.69141C73.8716 5.41406 73.7974 5.0918 73.7974 4.72461C73.7974 4.36914 73.8755 4.04688 74.0318 3.75781C74.188 3.46484 74.4068 3.21484 74.688 3.00781C74.9693 2.79688 75.3013 2.63477 75.6841 2.52148C76.0709 2.4082 76.4947 2.35156 76.9556 2.35156C77.5845 2.35156 78.1334 2.46484 78.6021 2.69141C79.0709 2.91797 79.4341 3.22852 79.692 3.62305C79.9537 4.01758 80.0845 4.46875 80.0845 4.97656H78.3384C78.3384 4.72656 78.2857 4.50781 78.1802 4.32031C78.0787 4.12891 77.9224 3.97852 77.7115 3.86914C77.5045 3.75977 77.2427 3.70508 76.9263 3.70508C76.6216 3.70508 76.3677 3.75195 76.1646 3.8457C75.9615 3.93555 75.8091 4.05859 75.7076 4.21484C75.606 4.36719 75.5552 4.53906 75.5552 4.73047C75.5552 4.875 75.5904 5.00586 75.6607 5.12305C75.7349 5.24023 75.8443 5.34961 75.9888 5.45117C76.1334 5.55273 76.3111 5.64844 76.522 5.73828C76.733 5.82812 76.9771 5.91602 77.2545 6.00195C77.7193 6.14258 78.1275 6.30078 78.4791 6.47656C78.8345 6.65234 79.1314 6.84961 79.3697 7.06836C79.608 7.28711 79.7877 7.53516 79.9088 7.8125C80.0298 8.08984 80.0904 8.4043 80.0904 8.75586C80.0904 9.12695 80.0181 9.45898 79.8736 9.75195C79.7291 10.0449 79.5201 10.293 79.2466 10.4961C78.9732 10.6992 78.647 10.8535 78.2681 10.959C77.8892 11.0645 77.4654 11.1172 76.9966 11.1172C76.5748 11.1172 76.1588 11.0625 75.7486 10.9531C75.3384 10.8398 74.9654 10.6699 74.6295 10.4434C74.2974 10.2168 74.0318 9.92773 73.8326 9.57617C73.6334 9.22461 73.5338 8.80859 73.5338 8.32812H75.2974C75.2974 8.59375 75.3384 8.81836 75.4205 9.00195C75.5025 9.18555 75.6177 9.33398 75.7662 9.44727C75.9185 9.56055 76.0982 9.64258 76.3052 9.69336C76.5162 9.74414 76.7466 9.76953 76.9966 9.76953C77.3013 9.76953 77.5513 9.72656 77.7466 9.64062C77.9459 9.55469 78.0923 9.43555 78.1861 9.2832C78.2838 9.13086 78.3326 8.95898 78.3326 8.76758ZM84.9302 9.48242V4.66016H86.6177V11H85.0298L84.9302 9.48242ZM85.1177 8.18164L85.6158 8.16992C85.6158 8.5918 85.567 8.98438 85.4693 9.34766C85.3716 9.70703 85.2252 10.0195 85.0298 10.2852C84.8345 10.5469 84.5884 10.752 84.2916 10.9004C83.9947 11.0449 83.6451 11.1172 83.2427 11.1172C82.9341 11.1172 82.649 11.0742 82.3873 10.9883C82.1295 10.8984 81.9068 10.7598 81.7193 10.5723C81.5357 10.3809 81.3912 10.1367 81.2857 9.83984C81.1841 9.53906 81.1334 9.17773 81.1334 8.75586V4.66016H82.8209V8.76758C82.8209 8.95508 82.8423 9.11328 82.8853 9.24219C82.9322 9.37109 82.9966 9.47656 83.0787 9.55859C83.1607 9.64062 83.2564 9.69922 83.3658 9.73438C83.4791 9.76953 83.6041 9.78711 83.7408 9.78711C84.0884 9.78711 84.3619 9.7168 84.5611 9.57617C84.7642 9.43555 84.9068 9.24414 84.9888 9.00195C85.0748 8.75586 85.1177 8.48242 85.1177 8.18164ZM89.5943 6.04297V11H87.9068V4.66016H89.4947L89.5943 6.04297ZM91.5045 4.61914L91.4752 6.18359C91.3931 6.17188 91.2935 6.16211 91.1763 6.1543C91.063 6.14258 90.9595 6.13672 90.8658 6.13672C90.6275 6.13672 90.4205 6.16797 90.2447 6.23047C90.0728 6.28906 89.9283 6.37695 89.8111 6.49414C89.6978 6.61133 89.6119 6.75391 89.5533 6.92188C89.4986 7.08984 89.4673 7.28125 89.4595 7.49609L89.1197 7.39062C89.1197 6.98047 89.1607 6.60352 89.2427 6.25977C89.3248 5.91211 89.4439 5.60938 89.6002 5.35156C89.7603 5.09375 89.9556 4.89453 90.1861 4.75391C90.4166 4.61328 90.6802 4.54297 90.9771 4.54297C91.0709 4.54297 91.1666 4.55078 91.2642 4.56641C91.3619 4.57812 91.442 4.5957 91.5045 4.61914ZM94.5689 11H92.8697V4.09766C92.8697 3.61719 92.9634 3.21289 93.1509 2.88477C93.3423 2.55273 93.6099 2.30273 93.9537 2.13477C94.3013 1.96289 94.7134 1.87695 95.19 1.87695C95.3463 1.87695 95.4966 1.88867 95.6412 1.91211C95.7857 1.93164 95.9263 1.95703 96.063 1.98828L96.0455 3.25977C95.9713 3.24023 95.8931 3.22656 95.8111 3.21875C95.7291 3.21094 95.6334 3.20703 95.524 3.20703C95.3209 3.20703 95.147 3.24219 95.0025 3.3125C94.8619 3.37891 94.7545 3.47852 94.6802 3.61133C94.606 3.74414 94.5689 3.90625 94.5689 4.09766V11ZM95.8345 4.66016V5.85547H91.9263V4.66016H95.8345Z" fill="white"/>
<path d="M36.8105 24.9279C35.4025 24.7491 34.0535 24.1457 33.0188 23.222C32.0954 22.395 30.7791 22.3801 29.8623 23.222C27.3803 25.4867 22.842 25.4867 20.3207 23.1102C19.4367 22.2758 18.1597 22.4323 17.2625 23.2443C14.774 25.4867 10.2619 25.4792 7.75371 23.1177C6.86963 22.2833 5.57298 22.4546 4.66925 23.2667C3.6542 24.1755 2.31171 24.764 0.890629 24.9354C0.373278 24.995 0 25.5165 0 26.105V28.5038C0 29.1817 0.497704 29.7553 1.09364 29.6957C2.97968 29.5095 4.76748 28.8465 6.29334 27.7663C9.99338 30.3439 15.2651 30.3066 18.8669 27.7663C22.567 30.3439 27.8387 30.3066 31.4405 27.7663C32.9664 28.8241 34.7738 29.502 36.6206 29.6883C37.2165 29.7479 37.7142 29.1743 37.7142 28.4963V26.1422C37.7207 25.5463 37.3409 24.995 36.8105 24.9279ZM36.8105 14.2004C35.4025 14.0216 34.0535 13.4182 33.0188 12.4944C32.0954 11.6675 30.7791 11.6526 29.8623 12.4944C27.3803 14.7591 22.842 14.7591 20.3207 12.3827C19.4367 11.5483 18.1597 11.7047 17.2625 12.5168C14.774 14.7591 10.2619 14.7517 7.75371 12.3901C6.86963 11.5557 5.57298 11.7271 4.66925 12.5391C3.6542 13.448 2.31171 14.0365 0.890629 14.2078C0.373278 14.2674 0 14.7889 0 15.3774V17.7762C0 18.4542 0.497704 19.0278 1.09364 18.9682C2.97968 18.7819 4.76748 18.1189 6.29334 17.0387C9.99338 19.6163 15.2651 19.5791 18.8669 17.0387C22.567 19.6163 27.8387 19.5791 31.4405 17.0387C32.9664 18.0966 34.7738 18.7745 36.6206 18.9607C37.2165 19.0203 37.7142 18.4467 37.7142 17.7688V15.4147C37.7207 14.8187 37.3409 14.2674 36.8105 14.2004ZM36.8105 3.47284C35.4025 3.2866 34.0535 2.69062 33.0188 1.76686C32.0954 0.939945 30.7791 0.925045 29.8623 1.76686C27.3803 4.03156 22.842 4.03156 20.3207 1.65511C19.4367 0.82075 18.1597 0.977193 17.2625 1.78921C14.774 4.03156 10.2619 4.02411 7.75371 1.66256C6.86963 0.828199 5.57298 0.999542 4.66925 1.81156C3.6542 2.72042 2.31171 3.30894 0.890629 3.48029C0.373278 3.53989 0 4.06136 0 4.64989V7.04869C0 7.72661 0.497704 8.30023 1.09364 8.24064C2.97968 8.05439 4.76748 7.39137 6.29334 6.31117C9.99338 8.88876 15.2651 8.85151 18.8669 6.31117C22.567 8.88876 27.8387 8.85151 31.4405 6.31117C32.9664 7.36902 34.7738 8.04695 36.6206 8.23319C37.2165 8.29278 37.7142 7.71916 37.7142 7.04124V4.68714C37.7207 4.09116 37.3409 3.53989 36.8105 3.47284Z" fill="white"/>
</svg>
