<svg width="764" height="209" viewBox="0 0 764 209" fill="none" xmlns="http://www.w3.org/2000/svg">
<path d="M296.734 183.637C296.734 181.762 296.422 180.09 295.797 178.621C295.172 177.152 294.141 175.84 292.703 174.684C291.297 173.496 289.391 172.402 286.984 171.402C284.609 170.371 281.641 169.356 278.078 168.356C274.672 167.387 271.594 166.324 268.844 165.168C266.094 164.012 263.734 162.684 261.766 161.184C259.828 159.684 258.344 157.934 257.312 155.934C256.281 153.902 255.766 151.543 255.766 148.856C255.766 146.231 256.328 143.84 257.453 141.684C258.578 139.527 260.156 137.668 262.188 136.106C264.25 134.543 266.672 133.34 269.453 132.496C272.266 131.652 275.344 131.231 278.688 131.231C283.469 131.231 287.594 132.137 291.062 133.949C294.562 135.762 297.266 138.215 299.172 141.309C301.109 144.371 302.078 147.809 302.078 151.621H296.312C296.312 148.652 295.609 146.012 294.203 143.699C292.828 141.356 290.828 139.527 288.203 138.215C285.609 136.871 282.438 136.199 278.688 136.199C274.938 136.199 271.781 136.777 269.219 137.934C266.688 139.059 264.766 140.574 263.453 142.481C262.172 144.356 261.531 146.449 261.531 148.762C261.531 150.387 261.844 151.887 262.469 153.262C263.094 154.606 264.109 155.871 265.516 157.059C266.953 158.215 268.844 159.309 271.188 160.34C273.531 161.34 276.422 162.293 279.859 163.199C283.484 164.199 286.703 165.309 289.516 166.527C292.328 167.746 294.703 169.152 296.641 170.746C298.578 172.309 300.047 174.137 301.047 176.231C302.047 178.324 302.547 180.762 302.547 183.543C302.547 186.324 301.953 188.824 300.766 191.043C299.609 193.231 297.969 195.09 295.844 196.621C293.75 198.152 291.266 199.324 288.391 200.137C285.547 200.949 282.438 201.356 279.062 201.356C276.031 201.356 273.016 200.965 270.016 200.184C267.016 199.402 264.266 198.199 261.766 196.574C259.297 194.918 257.312 192.793 255.812 190.199C254.344 187.606 253.609 184.512 253.609 180.918H259.328C259.328 183.793 259.906 186.215 261.062 188.184C262.219 190.152 263.75 191.746 265.656 192.965C267.594 194.184 269.719 195.074 272.031 195.637C274.375 196.168 276.719 196.434 279.062 196.434C282.656 196.434 285.766 195.902 288.391 194.84C291.047 193.777 293.094 192.293 294.531 190.387C296 188.449 296.734 186.199 296.734 183.637ZM346.188 188.699V149.699H351.812V200.418H346.422L346.188 188.699ZM347.219 179.324L350.125 179.231C350.125 182.418 349.75 185.356 349 188.043C348.25 190.731 347.078 193.074 345.484 195.074C343.891 197.074 341.828 198.621 339.297 199.715C336.766 200.809 333.719 201.356 330.156 201.356C327.688 201.356 325.422 201.012 323.359 200.324C321.328 199.606 319.578 198.481 318.109 196.949C316.641 195.418 315.5 193.434 314.688 190.996C313.906 188.559 313.516 185.606 313.516 182.137V149.699H319.094V182.231C319.094 184.949 319.391 187.215 319.984 189.027C320.609 190.84 321.453 192.293 322.516 193.387C323.609 194.481 324.859 195.262 326.266 195.731C327.672 196.199 329.188 196.434 330.812 196.434C334.938 196.434 338.188 195.637 340.562 194.043C342.969 192.449 344.672 190.356 345.672 187.762C346.703 185.137 347.219 182.324 347.219 179.324ZM372.062 158.09V200.418H366.484V149.699H371.922L372.062 158.09ZM390.016 149.324L389.875 154.481C389.25 154.387 388.641 154.309 388.047 154.246C387.453 154.184 386.812 154.152 386.125 154.152C383.688 154.152 381.547 154.606 379.703 155.512C377.891 156.387 376.359 157.621 375.109 159.215C373.859 160.777 372.906 162.621 372.25 164.746C371.594 166.84 371.219 169.09 371.125 171.496L369.062 172.293C369.062 168.981 369.406 165.902 370.094 163.059C370.781 160.215 371.828 157.731 373.234 155.606C374.672 153.449 376.469 151.777 378.625 150.59C380.812 149.371 383.375 148.762 386.312 148.762C387.031 148.762 387.734 148.824 388.422 148.949C389.141 149.043 389.672 149.168 390.016 149.324ZM409.188 200.418H403.609V143.418C403.609 139.949 404.203 137.027 405.391 134.652C406.609 132.277 408.328 130.481 410.547 129.262C412.797 128.043 415.469 127.434 418.562 127.434C419.531 127.434 420.531 127.496 421.562 127.621C422.594 127.715 423.594 127.918 424.562 128.231L424.141 132.965C423.359 132.746 422.562 132.606 421.75 132.543C420.969 132.449 420.047 132.402 418.984 132.402C416.953 132.402 415.203 132.84 413.734 133.715C412.266 134.559 411.141 135.793 410.359 137.418C409.578 139.043 409.188 141.043 409.188 143.418V200.418ZM421.281 149.699V154.293H395.219V149.699H421.281ZM479.594 167.606H460.375L460.281 162.731H476.828C480.203 162.731 483.078 162.246 485.453 161.277C487.828 160.309 489.625 158.871 490.844 156.965C492.094 155.027 492.719 152.652 492.719 149.84C492.719 146.965 492.109 144.59 490.891 142.715C489.672 140.809 487.844 139.402 485.406 138.496C482.969 137.59 479.906 137.137 476.219 137.137H461.875V200.418H456.109V132.168H476.219C479.688 132.168 482.797 132.512 485.547 133.199C488.297 133.887 490.641 134.965 492.578 136.434C494.516 137.902 495.984 139.762 496.984 142.012C498.016 144.231 498.531 146.887 498.531 149.981C498.531 152.793 497.906 155.34 496.656 157.621C495.406 159.871 493.641 161.715 491.359 163.152C489.109 164.559 486.406 165.434 483.25 165.777L479.594 167.606ZM479.172 200.418H458.547L461.5 195.496H479.172C482.547 195.496 485.422 194.934 487.797 193.809C490.203 192.652 492.047 191.012 493.328 188.887C494.609 186.762 495.25 184.231 495.25 181.293C495.25 178.699 494.688 176.371 493.562 174.309C492.438 172.246 490.719 170.621 488.406 169.434C486.094 168.215 483.156 167.606 479.594 167.606H467.641L467.734 162.731H484.656L485.688 164.465C488.75 164.777 491.422 165.731 493.703 167.324C496.016 168.887 497.797 170.871 499.047 173.277C500.328 175.684 500.969 178.324 500.969 181.199C500.969 185.324 500.047 188.824 498.203 191.699C496.391 194.543 493.844 196.715 490.562 198.215C487.312 199.684 483.516 200.418 479.172 200.418ZM510.578 175.856V174.309C510.578 170.621 511.109 167.215 512.172 164.09C513.234 160.965 514.75 158.262 516.719 155.981C518.719 153.699 521.109 151.934 523.891 150.684C526.672 149.402 529.766 148.762 533.172 148.762C536.609 148.762 539.719 149.402 542.5 150.684C545.281 151.934 547.672 153.699 549.672 155.981C551.672 158.262 553.203 160.965 554.266 164.09C555.328 167.215 555.859 170.621 555.859 174.309V175.856C555.859 179.543 555.328 182.949 554.266 186.074C553.203 189.168 551.672 191.856 549.672 194.137C547.703 196.418 545.328 198.199 542.547 199.481C539.766 200.731 536.672 201.356 533.266 201.356C529.828 201.356 526.719 200.731 523.938 199.481C521.156 198.199 518.766 196.418 516.766 194.137C514.766 191.856 513.234 189.168 512.172 186.074C511.109 182.949 510.578 179.543 510.578 175.856ZM516.156 174.309V175.856C516.156 178.637 516.531 181.277 517.281 183.777C518.031 186.246 519.125 188.449 520.562 190.387C522 192.293 523.781 193.793 525.906 194.887C528.031 195.981 530.484 196.527 533.266 196.527C536.016 196.527 538.438 195.981 540.531 194.887C542.656 193.793 544.438 192.293 545.875 190.387C547.312 188.449 548.391 186.246 549.109 183.777C549.859 181.277 550.234 178.637 550.234 175.856V174.309C550.234 171.559 549.859 168.949 549.109 166.481C548.391 164.012 547.297 161.809 545.828 159.871C544.391 157.934 542.609 156.402 540.484 155.277C538.359 154.152 535.922 153.59 533.172 153.59C530.422 153.59 527.984 154.152 525.859 155.277C523.766 156.402 521.984 157.934 520.516 159.871C519.078 161.809 517.984 164.012 517.234 166.481C516.516 168.949 516.156 171.559 516.156 174.309ZM598.328 191.324V165.168C598.328 162.762 597.828 160.684 596.828 158.934C595.828 157.184 594.359 155.84 592.422 154.902C590.484 153.965 588.094 153.496 585.25 153.496C582.625 153.496 580.281 153.965 578.219 154.902C576.188 155.809 574.578 157.043 573.391 158.606C572.234 160.137 571.656 161.84 571.656 163.715L566.031 163.668C566.031 161.762 566.5 159.918 567.438 158.137C568.375 156.356 569.703 154.762 571.422 153.356C573.141 151.949 575.188 150.84 577.562 150.027C579.969 149.184 582.609 148.762 585.484 148.762C589.109 148.762 592.297 149.371 595.047 150.59C597.828 151.809 600 153.637 601.562 156.074C603.125 158.512 603.906 161.574 603.906 165.262V189.777C603.906 191.527 604.031 193.34 604.281 195.215C604.562 197.09 604.953 198.637 605.453 199.856V200.418H599.5C599.125 199.293 598.828 197.887 598.609 196.199C598.422 194.481 598.328 192.856 598.328 191.324ZM599.641 170.887L599.734 175.199H588.719C585.844 175.199 583.266 175.465 580.984 175.996C578.734 176.496 576.828 177.246 575.266 178.246C573.703 179.215 572.5 180.387 571.656 181.762C570.844 183.137 570.438 184.699 570.438 186.449C570.438 188.262 570.891 189.918 571.797 191.418C572.734 192.918 574.047 194.121 575.734 195.027C577.453 195.902 579.484 196.34 581.828 196.34C584.953 196.34 587.703 195.762 590.078 194.606C592.484 193.449 594.469 191.934 596.031 190.059C597.594 188.184 598.641 186.137 599.172 183.918L601.609 187.152C601.203 188.715 600.453 190.324 599.359 191.981C598.297 193.606 596.906 195.137 595.188 196.574C593.469 197.981 591.438 199.137 589.094 200.043C586.781 200.918 584.156 201.356 581.219 201.356C577.906 201.356 575.016 200.731 572.547 199.481C570.109 198.231 568.203 196.527 566.828 194.371C565.484 192.184 564.812 189.715 564.812 186.965C564.812 184.465 565.344 182.231 566.406 180.262C567.469 178.262 569 176.574 571 175.199C573.031 173.793 575.469 172.731 578.312 172.012C581.188 171.262 584.406 170.887 587.969 170.887H599.641ZM624.531 158.09V200.418H618.953V149.699H624.391L624.531 158.09ZM642.484 149.324L642.344 154.481C641.719 154.387 641.109 154.309 640.516 154.246C639.922 154.184 639.281 154.152 638.594 154.152C636.156 154.152 634.016 154.606 632.172 155.512C630.359 156.387 628.828 157.621 627.578 159.215C626.328 160.777 625.375 162.621 624.719 164.746C624.062 166.84 623.688 169.09 623.594 171.496L621.531 172.293C621.531 168.981 621.875 165.902 622.562 163.059C623.25 160.215 624.297 157.731 625.703 155.606C627.141 153.449 628.938 151.777 631.094 150.59C633.281 149.371 635.844 148.762 638.781 148.762C639.5 148.762 640.203 148.824 640.891 148.949C641.609 149.043 642.141 149.168 642.484 149.324ZM683.312 190.574V128.418H688.938V200.418H683.688L683.312 190.574ZM648.109 175.574V174.59C648.109 170.652 648.562 167.106 649.469 163.949C650.375 160.762 651.672 158.043 653.359 155.793C655.078 153.512 657.141 151.777 659.547 150.59C661.953 149.371 664.672 148.762 667.703 148.762C670.672 148.762 673.297 149.246 675.578 150.215C677.859 151.184 679.812 152.574 681.438 154.387C683.094 156.199 684.422 158.356 685.422 160.856C686.453 163.356 687.203 166.137 687.672 169.199V181.715C687.297 184.59 686.609 187.231 685.609 189.637C684.609 192.012 683.281 194.09 681.625 195.871C679.969 197.621 677.969 198.981 675.625 199.949C673.312 200.887 670.641 201.356 667.609 201.356C664.609 201.356 661.906 200.731 659.5 199.481C657.094 198.231 655.047 196.465 653.359 194.184C651.672 191.871 650.375 189.137 649.469 185.981C648.562 182.824 648.109 179.356 648.109 175.574ZM653.734 174.59V175.574C653.734 178.543 654.031 181.293 654.625 183.824C655.219 186.356 656.125 188.559 657.344 190.434C658.562 192.309 660.109 193.777 661.984 194.84C663.859 195.902 666.078 196.434 668.641 196.434C671.859 196.434 674.562 195.824 676.75 194.606C678.938 193.356 680.688 191.715 682 189.684C683.312 187.621 684.266 185.371 684.859 182.934V168.356C684.484 166.699 683.938 165.012 683.219 163.293C682.5 161.574 681.516 159.996 680.266 158.559C679.047 157.09 677.484 155.918 675.578 155.043C673.703 154.137 671.422 153.684 668.734 153.684C666.141 153.684 663.906 154.215 662.031 155.277C660.156 156.34 658.594 157.824 657.344 159.731C656.125 161.606 655.219 163.809 654.625 166.34C654.031 168.871 653.734 171.621 653.734 174.59ZM734.078 187.481C734.078 186.106 733.734 184.746 733.047 183.402C732.359 182.059 731.031 180.824 729.062 179.699C727.125 178.574 724.266 177.621 720.484 176.84C717.672 176.215 715.156 175.512 712.938 174.731C710.75 173.949 708.906 173.012 707.406 171.918C705.906 170.824 704.766 169.512 703.984 167.981C703.203 166.449 702.812 164.637 702.812 162.543C702.812 160.668 703.219 158.902 704.031 157.246C704.875 155.559 706.062 154.09 707.594 152.84C709.156 151.559 711.031 150.559 713.219 149.84C715.438 149.121 717.922 148.762 720.672 148.762C724.578 148.762 727.922 149.434 730.703 150.777C733.516 152.09 735.656 153.887 737.125 156.168C738.625 158.449 739.375 161.027 739.375 163.902H733.797C733.797 162.152 733.281 160.496 732.25 158.934C731.25 157.371 729.766 156.09 727.797 155.09C725.859 154.09 723.484 153.59 720.672 153.59C717.766 153.59 715.406 154.027 713.594 154.902C711.781 155.777 710.453 156.887 709.609 158.231C708.797 159.574 708.391 160.965 708.391 162.402C708.391 163.527 708.562 164.559 708.906 165.496C709.281 166.402 709.938 167.246 710.875 168.027C711.844 168.809 713.219 169.543 715 170.231C716.781 170.918 719.094 171.59 721.938 172.246C726.031 173.152 729.375 174.262 731.969 175.574C734.594 176.856 736.531 178.449 737.781 180.356C739.031 182.231 739.656 184.512 739.656 187.199C739.656 189.293 739.219 191.215 738.344 192.965C737.469 194.684 736.203 196.168 734.547 197.418C732.922 198.668 730.953 199.637 728.641 200.324C726.359 201.012 723.797 201.356 720.953 201.356C716.672 201.356 713.047 200.652 710.078 199.246C707.141 197.809 704.906 195.934 703.375 193.621C701.875 191.277 701.125 188.793 701.125 186.168H706.703C706.891 188.793 707.719 190.871 709.188 192.402C710.656 193.902 712.453 194.965 714.578 195.59C716.734 196.215 718.859 196.527 720.953 196.527C723.828 196.527 726.234 196.106 728.172 195.262C730.109 194.418 731.578 193.309 732.578 191.934C733.578 190.559 734.078 189.074 734.078 187.481Z" fill="white"/>
<path d="M302.172 78.875L320.641 93.5L311.781 101.188L293.594 86.5625L302.172 78.875ZM321.109 53.2812V56.5156C321.109 61.7031 320.406 66.3594 319 70.4844C317.625 74.6094 315.641 78.125 313.047 81.0312C310.453 83.9062 307.391 86.1094 303.859 87.6406C300.328 89.1719 296.406 89.9375 292.094 89.9375C287.812 89.9375 283.891 89.1719 280.328 87.6406C276.766 86.1094 273.688 83.9062 271.094 81.0312C268.5 78.125 266.484 74.6094 265.047 70.4844C263.641 66.3594 262.938 61.7031 262.938 56.5156V53.2812C262.938 48.0625 263.641 43.4062 265.047 39.3125C266.484 35.1875 268.484 31.6719 271.047 28.7656C273.609 25.8594 276.672 23.6406 280.234 22.1094C283.797 20.5781 287.719 19.8125 292 19.8125C296.312 19.8125 300.234 20.5781 303.766 22.1094C307.328 23.6406 310.406 25.8594 313 28.7656C315.594 31.6719 317.594 35.1875 319 39.3125C320.406 43.4062 321.109 48.0625 321.109 53.2812ZM306.906 56.5156V53.1875C306.906 49.5625 306.562 46.375 305.875 43.625C305.219 40.875 304.25 38.5625 302.969 36.6875C301.719 34.8125 300.172 33.4062 298.328 32.4688C296.484 31.5 294.375 31.0156 292 31.0156C289.625 31.0156 287.516 31.5 285.672 32.4688C283.828 33.4062 282.281 34.8125 281.031 36.6875C279.781 38.5625 278.828 40.875 278.172 43.625C277.516 46.375 277.188 49.5625 277.188 53.1875V56.5156C277.188 60.1094 277.516 63.2969 278.172 66.0781C278.828 68.8281 279.781 71.1562 281.031 73.0625C282.312 74.9375 283.875 76.3594 285.719 77.3281C287.594 78.2969 289.719 78.7812 292.094 78.7812C294.469 78.7812 296.562 78.2969 298.375 77.3281C300.219 76.3594 301.766 74.9375 303.016 73.0625C304.297 71.1562 305.266 68.8281 305.922 66.0781C306.578 63.2969 306.906 60.1094 306.906 56.5156ZM360.438 76.8594V38.2812H373.938V89H361.234L360.438 76.8594ZM361.938 66.4531L365.922 66.3594C365.922 69.7344 365.531 72.875 364.75 75.7812C363.969 78.6562 362.797 81.1562 361.234 83.2812C359.672 85.375 357.703 87.0156 355.328 88.2031C352.953 89.3594 350.156 89.9375 346.938 89.9375C344.469 89.9375 342.188 89.5938 340.094 88.9062C338.031 88.1875 336.25 87.0781 334.75 85.5781C333.281 84.0469 332.125 82.0938 331.281 79.7188C330.469 77.3125 330.062 74.4219 330.062 71.0469V38.2812H343.562V71.1406C343.562 72.6406 343.734 73.9062 344.078 74.9375C344.453 75.9688 344.969 76.8125 345.625 77.4688C346.281 78.125 347.047 78.5938 347.922 78.875C348.828 79.1562 349.828 79.2969 350.922 79.2969C353.703 79.2969 355.891 78.7344 357.484 77.6094C359.109 76.4844 360.25 74.9531 360.906 73.0156C361.594 71.0469 361.938 68.8594 361.938 66.4531ZM398.5 38.2812V89H384.953V38.2812H398.5ZM384.109 25.0625C384.109 23.0938 384.797 21.4687 386.172 20.1875C387.547 18.9063 389.391 18.2656 391.703 18.2656C393.984 18.2656 395.812 18.9063 397.188 20.1875C398.594 21.4687 399.297 23.0938 399.297 25.0625C399.297 27.0312 398.594 28.6563 397.188 29.9375C395.812 31.2187 393.984 31.8594 391.703 31.8594C389.391 31.8594 387.547 31.2187 386.172 29.9375C384.797 28.6563 384.109 27.0312 384.109 25.0625ZM430.609 79.3906C432.266 79.3906 433.734 79.0781 435.016 78.4531C436.297 77.7969 437.297 76.8906 438.016 75.7344C438.766 74.5469 439.156 73.1562 439.188 71.5625H451.891C451.859 75.125 450.906 78.2969 449.031 81.0781C447.156 83.8281 444.641 86 441.484 87.5938C438.328 89.1562 434.797 89.9375 430.891 89.9375C426.953 89.9375 423.516 89.2812 420.578 87.9688C417.672 86.6562 415.25 84.8438 413.312 82.5312C411.375 80.1875 409.922 77.4688 408.953 74.375C407.984 71.25 407.5 67.9062 407.5 64.3438V62.9844C407.5 59.3906 407.984 56.0469 408.953 52.9531C409.922 49.8281 411.375 47.1094 413.312 44.7969C415.25 42.4531 417.672 40.625 420.578 39.3125C423.484 38 426.891 37.3438 430.797 37.3438C434.953 37.3438 438.594 38.1406 441.719 39.7344C444.875 41.3281 447.344 43.6094 449.125 46.5781C450.938 49.5156 451.859 53 451.891 57.0312H439.188C439.156 55.3438 438.797 53.8125 438.109 52.4375C437.453 51.0625 436.484 49.9688 435.203 49.1562C433.953 48.3125 432.406 47.8906 430.562 47.8906C428.594 47.8906 426.984 48.3125 425.734 49.1562C424.484 49.9688 423.516 51.0938 422.828 52.5312C422.141 53.9375 421.656 55.5469 421.375 57.3594C421.125 59.1406 421 61.0156 421 62.9844V64.3438C421 66.3125 421.125 68.2031 421.375 70.0156C421.625 71.8281 422.094 73.4375 422.781 74.8438C423.5 76.25 424.484 77.3594 425.734 78.1719C426.984 78.9844 428.609 79.3906 430.609 79.3906ZM473.219 16.9531V89H459.719V16.9531H473.219ZM505.188 38.2812L483.156 63.4062L471.344 75.3594L466.422 65.6094L475.797 53.7031L488.969 38.2812H505.188ZM491.172 89L476.172 65.5625L485.5 57.4062L506.734 89H491.172ZM547.375 71.1406C547.375 69.9219 547.188 68.8281 546.812 67.8594C546.469 66.8594 545.812 65.9531 544.844 65.1406C543.875 64.2969 542.516 63.4688 540.766 62.6562C539.016 61.8438 536.75 61 533.969 60.125C530.875 59.125 527.938 58 525.156 56.75C522.406 55.5 519.969 54.0469 517.844 52.3906C515.75 50.7031 514.094 48.75 512.875 46.5312C511.688 44.3125 511.094 41.7344 511.094 38.7969C511.094 35.9531 511.719 33.375 512.969 31.0625C514.219 28.7188 515.969 26.7187 518.219 25.0625C520.469 23.375 523.125 22.0781 526.188 21.1719C529.281 20.2656 532.672 19.8125 536.359 19.8125C541.391 19.8125 545.781 20.7187 549.531 22.5312C553.281 24.3438 556.188 26.8281 558.25 29.9844C560.344 33.1406 561.391 36.75 561.391 40.8125H547.422C547.422 38.8125 547 37.0625 546.156 35.5625C545.344 34.0312 544.094 32.8281 542.406 31.9531C540.75 31.0781 538.656 30.6406 536.125 30.6406C533.688 30.6406 531.656 31.0156 530.031 31.7656C528.406 32.4844 527.188 33.4688 526.375 34.7188C525.562 35.9375 525.156 37.3125 525.156 38.8438C525.156 40 525.438 41.0469 526 41.9844C526.594 42.9219 527.469 43.7969 528.625 44.6094C529.781 45.4219 531.203 46.1875 532.891 46.9062C534.578 47.625 536.531 48.3281 538.75 49.0156C542.469 50.1406 545.734 51.4062 548.547 52.8125C551.391 54.2188 553.766 55.7969 555.672 57.5469C557.578 59.2969 559.016 61.2812 559.984 63.5C560.953 65.7188 561.438 68.2344 561.438 71.0469C561.438 74.0156 560.859 76.6719 559.703 79.0156C558.547 81.3594 556.875 83.3438 554.688 84.9688C552.5 86.5938 549.891 87.8281 546.859 88.6719C543.828 89.5156 540.438 89.9375 536.688 89.9375C533.312 89.9375 529.984 89.5 526.703 88.625C523.422 87.7188 520.438 86.3594 517.75 84.5469C515.094 82.7344 512.969 80.4219 511.375 77.6094C509.781 74.7969 508.984 71.4688 508.984 67.625H523.094C523.094 69.75 523.422 71.5469 524.078 73.0156C524.734 74.4844 525.656 75.6719 526.844 76.5781C528.062 77.4844 529.5 78.1406 531.156 78.5469C532.844 78.9531 534.688 79.1562 536.688 79.1562C539.125 79.1562 541.125 78.8125 542.688 78.125C544.281 77.4375 545.453 76.4844 546.203 75.2656C546.984 74.0469 547.375 72.6719 547.375 71.1406ZM600.156 76.8594V38.2812H613.656V89H600.953L600.156 76.8594ZM601.656 66.4531L605.641 66.3594C605.641 69.7344 605.25 72.875 604.469 75.7812C603.688 78.6562 602.516 81.1562 600.953 83.2812C599.391 85.375 597.422 87.0156 595.047 88.2031C592.672 89.3594 589.875 89.9375 586.656 89.9375C584.188 89.9375 581.906 89.5938 579.812 88.9062C577.75 88.1875 575.969 87.0781 574.469 85.5781C573 84.0469 571.844 82.0938 571 79.7188C570.188 77.3125 569.781 74.4219 569.781 71.0469V38.2812H583.281V71.1406C583.281 72.6406 583.453 73.9062 583.797 74.9375C584.172 75.9688 584.688 76.8125 585.344 77.4688C586 78.125 586.766 78.5938 587.641 78.875C588.547 79.1562 589.547 79.2969 590.641 79.2969C593.422 79.2969 595.609 78.7344 597.203 77.6094C598.828 76.4844 599.969 74.9531 600.625 73.0156C601.312 71.0469 601.656 68.8594 601.656 66.4531ZM637.469 49.3438V89H623.969V38.2812H636.672L637.469 49.3438ZM652.75 37.9531L652.516 50.4688C651.859 50.375 651.062 50.2969 650.125 50.2344C649.219 50.1406 648.391 50.0938 647.641 50.0938C645.734 50.0938 644.078 50.3438 642.672 50.8438C641.297 51.3125 640.141 52.0156 639.203 52.9531C638.297 53.8906 637.609 55.0312 637.141 56.375C636.703 57.7188 636.453 59.25 636.391 60.9688L633.672 60.125C633.672 56.8438 634 53.8281 634.656 51.0781C635.312 48.2969 636.266 45.875 637.516 43.8125C638.797 41.75 640.359 40.1562 642.203 39.0312C644.047 37.9062 646.156 37.3438 648.531 37.3438C649.281 37.3438 650.047 37.4062 650.828 37.5312C651.609 37.625 652.25 37.7656 652.75 37.9531ZM677.266 89H663.672V33.7812C663.672 29.9375 664.422 26.7031 665.922 24.0781C667.453 21.4219 669.594 19.4219 672.344 18.0781C675.125 16.7031 678.422 16.0156 682.234 16.0156C683.484 16.0156 684.688 16.1094 685.844 16.2969C687 16.4531 688.125 16.6563 689.219 16.9062L689.078 27.0781C688.484 26.9219 687.859 26.8125 687.203 26.75C686.547 26.6875 685.781 26.6562 684.906 26.6562C683.281 26.6562 681.891 26.9375 680.734 27.5C679.609 28.0312 678.75 28.8281 678.156 29.8906C677.562 30.9531 677.266 32.25 677.266 33.7812V89ZM687.391 38.2812V47.8438H656.125V38.2812H687.391Z" fill="white"/>
<path d="M220.205 157.877C211.783 156.744 203.713 152.923 197.523 147.072C191.999 141.835 184.125 141.741 178.64 147.072C163.793 161.415 136.644 161.415 121.562 146.364C116.273 141.08 108.634 142.071 103.267 147.214C88.3799 161.415 61.388 161.368 46.3838 146.412C41.0951 141.127 33.3383 142.212 27.9321 147.355C21.8599 153.111 13.8289 156.839 5.32787 157.924C2.233 158.301 0 161.604 0 165.331V180.524C0 184.817 2.97734 188.45 6.54231 188.073C17.8248 186.893 28.5198 182.694 37.6476 175.853C59.7818 192.177 91.3181 191.941 112.865 175.853C134.999 192.177 166.535 191.941 188.081 175.853C197.209 182.552 208.022 186.846 219.069 188.025C222.634 188.403 225.612 184.77 225.612 180.476V165.567C225.651 161.793 223.379 158.301 220.205 157.877V157.877ZM220.205 89.9355C211.783 88.8032 203.713 84.9815 197.523 79.131C191.999 73.8939 184.125 73.7995 178.64 79.131C163.793 93.4741 136.644 93.4741 121.562 78.4233C116.273 73.139 108.634 74.1298 103.267 79.2725C88.3799 93.4741 61.388 93.4269 46.3838 78.4705C41.0951 73.1862 33.3383 74.2713 27.9321 79.4141C21.8599 85.1702 13.8289 88.8975 5.32787 89.9827C2.233 90.3601 0 93.6628 0 97.3901V112.583C0 116.876 2.97734 120.509 6.54231 120.132C17.8248 118.952 28.5198 114.753 37.6476 107.912C59.7818 124.236 91.3181 124 112.865 107.912C134.999 124.236 166.535 124 188.081 107.912C197.209 114.611 208.022 118.905 219.069 120.084C222.634 120.462 225.612 116.829 225.612 112.535V97.6261C225.651 93.8516 223.379 90.3601 220.205 89.9355V89.9355ZM220.205 21.9944C211.783 20.8149 203.713 17.0404 197.523 11.1899C191.999 5.95281 184.125 5.85844 178.64 11.1899C163.793 25.533 136.644 25.533 121.562 10.4822C116.273 5.19791 108.634 6.18871 103.267 11.3315C88.3799 25.533 61.388 25.4859 46.3838 10.5294C41.0951 5.24509 33.3383 6.33026 27.9321 11.473C21.8599 17.2291 13.8289 20.9565 5.32787 22.0416C2.233 22.4191 0 25.7218 0 29.4491V44.6415C0 48.935 2.97734 52.5679 6.54231 52.1905C17.8248 51.0109 28.5198 46.8118 37.6476 39.9705C59.7818 56.2952 91.3181 56.0593 112.865 39.9705C134.999 56.2952 166.535 56.0593 188.081 39.9705C197.209 46.6703 208.022 50.9638 219.069 52.1433C222.634 52.5207 225.612 48.8878 225.612 44.5943V29.685C225.651 25.9105 223.379 22.4191 220.205 21.9944V21.9944Z" fill="white"/>
</svg>
