<svg width="98" height="30" viewBox="0 0 98 30" fill="none" xmlns="http://www.w3.org/2000/svg">
<path d="M41.8418 24.9023C41.8418 24.668 41.8027 24.459 41.7246 24.2754C41.6465 24.0918 41.5176 23.9277 41.3379 23.7832C41.1621 23.6348 40.9238 23.498 40.623 23.373C40.3262 23.2441 39.9551 23.1172 39.5098 22.9922C39.084 22.8711 38.6992 22.7383 38.3555 22.5938C38.0117 22.4492 37.7168 22.2832 37.4707 22.0957C37.2285 21.9082 37.043 21.6895 36.9141 21.4395C36.7852 21.1855 36.7207 20.8906 36.7207 20.5547C36.7207 20.2266 36.791 19.9277 36.9316 19.6582C37.0723 19.3887 37.2695 19.1562 37.5234 18.9609C37.7812 18.7656 38.084 18.6152 38.4316 18.5098C38.7832 18.4043 39.168 18.3516 39.5859 18.3516C40.1836 18.3516 40.6992 18.4648 41.1328 18.6914C41.5703 18.918 41.9082 19.2246 42.1465 19.6113C42.3887 19.9941 42.5098 20.4238 42.5098 20.9004H41.7891C41.7891 20.5293 41.7012 20.1992 41.5254 19.9102C41.3535 19.6172 41.1035 19.3887 40.7754 19.2246C40.4512 19.0566 40.0547 18.9727 39.5859 18.9727C39.1172 18.9727 38.7227 19.0449 38.4023 19.1895C38.0859 19.3301 37.8457 19.5195 37.6816 19.7578C37.5215 19.9922 37.4414 20.2539 37.4414 20.543C37.4414 20.7461 37.4805 20.9336 37.5586 21.1055C37.6367 21.2734 37.7637 21.4316 37.9395 21.5801C38.1191 21.7246 38.3555 21.8613 38.6484 21.9902C38.9414 22.1152 39.3027 22.2344 39.7324 22.3477C40.1855 22.4727 40.5879 22.6113 40.9395 22.7637C41.291 22.916 41.5879 23.0918 41.8301 23.291C42.0723 23.4863 42.2559 23.7148 42.3809 23.9766C42.5059 24.2383 42.5684 24.543 42.5684 24.8906C42.5684 25.2383 42.4941 25.5508 42.3457 25.8281C42.2012 26.1016 41.9961 26.334 41.7305 26.5254C41.4688 26.7168 41.1582 26.8633 40.7988 26.9648C40.4434 27.0664 40.0547 27.1172 39.6328 27.1172C39.2539 27.1172 38.877 27.0684 38.502 26.9707C38.127 26.873 37.7832 26.7227 37.4707 26.5195C37.1621 26.3125 36.9141 26.0469 36.7266 25.7227C36.543 25.3984 36.4512 25.0117 36.4512 24.5625H37.166C37.166 24.9219 37.2383 25.2246 37.3828 25.4707C37.5273 25.7168 37.7188 25.916 37.957 26.0684C38.1992 26.2207 38.4648 26.332 38.7539 26.4023C39.0469 26.4688 39.3398 26.502 39.6328 26.502C40.082 26.502 40.4707 26.4355 40.7988 26.3027C41.1309 26.1699 41.3867 25.9844 41.5664 25.7461C41.75 25.5039 41.8418 25.2227 41.8418 24.9023ZM48.0234 25.5352V20.6602H48.7266V27H48.0527L48.0234 25.5352ZM48.1523 24.3633L48.5156 24.3516C48.5156 24.75 48.4688 25.1172 48.375 25.4531C48.2812 25.7891 48.1348 26.082 47.9355 26.332C47.7363 26.582 47.4785 26.7754 47.1621 26.9121C46.8457 27.0488 46.4648 27.1172 46.0195 27.1172C45.7109 27.1172 45.4277 27.0742 45.1699 26.9883C44.916 26.8984 44.6973 26.7578 44.5137 26.5664C44.3301 26.375 44.1875 26.127 44.0859 25.8223C43.9883 25.5176 43.9395 25.1484 43.9395 24.7148V20.6602H44.6367V24.7266C44.6367 25.0664 44.6738 25.3496 44.748 25.5762C44.8262 25.8027 44.9316 25.9844 45.0645 26.1211C45.2012 26.2578 45.3574 26.3555 45.5332 26.4141C45.709 26.4727 45.8984 26.502 46.1016 26.502C46.6172 26.502 47.0234 26.4023 47.3203 26.2031C47.6211 26.0039 47.834 25.7422 47.959 25.418C48.0879 25.0898 48.1523 24.7383 48.1523 24.3633ZM51.2578 21.709V27H50.5605V20.6602H51.2402L51.2578 21.709ZM53.502 20.6133L53.4844 21.2578C53.4062 21.2461 53.3301 21.2363 53.2559 21.2285C53.1816 21.2207 53.1016 21.2168 53.0156 21.2168C52.7109 21.2168 52.4434 21.2734 52.2129 21.3867C51.9863 21.4961 51.7949 21.6504 51.6387 21.8496C51.4824 22.0449 51.3633 22.2754 51.2812 22.541C51.1992 22.8027 51.1523 23.084 51.1406 23.3848L50.8828 23.4844C50.8828 23.0703 50.9258 22.6855 51.0117 22.3301C51.0977 21.9746 51.2285 21.6641 51.4043 21.3984C51.584 21.1289 51.8086 20.9199 52.0781 20.7715C52.3516 20.6191 52.6719 20.543 53.0391 20.543C53.1289 20.543 53.2168 20.5508 53.3027 20.5664C53.3926 20.5781 53.459 20.5938 53.502 20.6133ZM55.8984 27H55.2012V19.875C55.2012 19.4414 55.2754 19.0762 55.4238 18.7793C55.5762 18.4824 55.791 18.2578 56.0684 18.1055C56.3496 17.9531 56.6836 17.877 57.0703 17.877C57.1914 17.877 57.3164 17.8848 57.4453 17.9004C57.5742 17.9121 57.6992 17.9375 57.8203 17.9766L57.7676 18.5684C57.6699 18.541 57.5703 18.5234 57.4688 18.5156C57.3711 18.5039 57.2559 18.498 57.123 18.498C56.8691 18.498 56.6504 18.5527 56.4668 18.6621C56.2832 18.7676 56.1426 18.9219 56.0449 19.125C55.9473 19.3281 55.8984 19.5781 55.8984 19.875V27ZM57.4102 20.6602V21.2344H54.1523V20.6602H57.4102ZM64.6992 22.8984H62.2969L62.2852 22.2891H64.3535C64.7754 22.2891 65.1348 22.2285 65.4316 22.1074C65.7285 21.9863 65.9531 21.8066 66.1055 21.5684C66.2617 21.3262 66.3398 21.0293 66.3398 20.6777C66.3398 20.3184 66.2637 20.0215 66.1113 19.7871C65.959 19.5488 65.7305 19.373 65.4258 19.2598C65.1211 19.1465 64.7383 19.0898 64.2773 19.0898H62.4844V27H61.7637V18.4688H64.2773C64.7109 18.4688 65.0996 18.5117 65.4434 18.5977C65.7871 18.6836 66.0801 18.8184 66.3223 19.002C66.5645 19.1855 66.748 19.418 66.873 19.6992C67.002 19.9766 67.0664 20.3086 67.0664 20.6953C67.0664 21.0469 66.9883 21.3652 66.832 21.6504C66.6758 21.9316 66.4551 22.1621 66.1699 22.3418C65.8887 22.5176 65.5508 22.627 65.1562 22.6699L64.6992 22.8984ZM64.6465 27H62.0684L62.4375 26.3848H64.6465C65.0684 26.3848 65.4277 26.3145 65.7246 26.1738C66.0254 26.0293 66.2559 25.8242 66.416 25.5586C66.5762 25.293 66.6562 24.9766 66.6562 24.6094C66.6562 24.2852 66.5859 23.9941 66.4453 23.7363C66.3047 23.4785 66.0898 23.2754 65.8008 23.127C65.5117 22.9746 65.1445 22.8984 64.6992 22.8984H63.2051L63.2168 22.2891H65.332L65.4609 22.5059C65.8438 22.5449 66.1777 22.6641 66.4629 22.8633C66.752 23.0586 66.9746 23.3066 67.1309 23.6074C67.291 23.9082 67.3711 24.2383 67.3711 24.5977C67.3711 25.1133 67.2559 25.5508 67.0254 25.9102C66.7988 26.2656 66.4805 26.5371 66.0703 26.7246C65.6641 26.9082 65.1895 27 64.6465 27ZM68.5723 23.9297V23.7363C68.5723 23.2754 68.6387 22.8496 68.7715 22.459C68.9043 22.0684 69.0938 21.7305 69.3398 21.4453C69.5898 21.1602 69.8887 20.9395 70.2363 20.7832C70.584 20.623 70.9707 20.543 71.3965 20.543C71.8262 20.543 72.2148 20.623 72.5625 20.7832C72.9102 20.9395 73.209 21.1602 73.459 21.4453C73.709 21.7305 73.9004 22.0684 74.0332 22.459C74.166 22.8496 74.2324 23.2754 74.2324 23.7363V23.9297C74.2324 24.3906 74.166 24.8164 74.0332 25.207C73.9004 25.5938 73.709 25.9297 73.459 26.2148C73.2129 26.5 72.916 26.7227 72.5684 26.8828C72.2207 27.0391 71.834 27.1172 71.4082 27.1172C70.9785 27.1172 70.5898 27.0391 70.2422 26.8828C69.8945 26.7227 69.5957 26.5 69.3457 26.2148C69.0957 25.9297 68.9043 25.5938 68.7715 25.207C68.6387 24.8164 68.5723 24.3906 68.5723 23.9297ZM69.2695 23.7363V23.9297C69.2695 24.2773 69.3164 24.6074 69.4102 24.9199C69.5039 25.2285 69.6406 25.5039 69.8203 25.7461C70 25.9844 70.2227 26.1719 70.4883 26.3086C70.7539 26.4453 71.0605 26.5137 71.4082 26.5137C71.752 26.5137 72.0547 26.4453 72.3164 26.3086C72.582 26.1719 72.8047 25.9844 72.9844 25.7461C73.1641 25.5039 73.2988 25.2285 73.3887 24.9199C73.4824 24.6074 73.5293 24.2773 73.5293 23.9297V23.7363C73.5293 23.3926 73.4824 23.0664 73.3887 22.7578C73.2988 22.4492 73.1621 22.1738 72.9785 21.9316C72.7988 21.6895 72.5762 21.498 72.3105 21.3574C72.0449 21.2168 71.7402 21.1465 71.3965 21.1465C71.0527 21.1465 70.748 21.2168 70.4824 21.3574C70.2207 21.498 69.998 21.6895 69.8145 21.9316C69.6348 22.1738 69.498 22.4492 69.4043 22.7578C69.3145 23.0664 69.2695 23.3926 69.2695 23.7363ZM79.541 25.8633V22.5938C79.541 22.293 79.4785 22.0332 79.3535 21.8145C79.2285 21.5957 79.0449 21.4277 78.8027 21.3105C78.5605 21.1934 78.2617 21.1348 77.9062 21.1348C77.5781 21.1348 77.2852 21.1934 77.0273 21.3105C76.7734 21.4238 76.5723 21.5781 76.4238 21.7734C76.2793 21.9648 76.207 22.1777 76.207 22.4121L75.5039 22.4062C75.5039 22.168 75.5625 21.9375 75.6797 21.7148C75.7969 21.4922 75.9629 21.293 76.1777 21.1172C76.3926 20.9414 76.6484 20.8027 76.9453 20.7012C77.2461 20.5957 77.5762 20.543 77.9355 20.543C78.3887 20.543 78.7871 20.6191 79.1309 20.7715C79.4785 20.9238 79.75 21.1523 79.9453 21.457C80.1406 21.7617 80.2383 22.1445 80.2383 22.6055V25.6699C80.2383 25.8887 80.2539 26.1152 80.2852 26.3496C80.3203 26.584 80.3691 26.7773 80.4316 26.9297V27H79.6875C79.6406 26.8594 79.6035 26.6836 79.5762 26.4727C79.5527 26.2578 79.541 26.0547 79.541 25.8633ZM79.7051 23.3086L79.7168 23.8477H78.3398C77.9805 23.8477 77.6582 23.8809 77.373 23.9473C77.0918 24.0098 76.8535 24.1035 76.6582 24.2285C76.4629 24.3496 76.3125 24.4961 76.207 24.668C76.1055 24.8398 76.0547 25.0352 76.0547 25.2539C76.0547 25.4805 76.1113 25.6875 76.2246 25.875C76.3418 26.0625 76.5059 26.2129 76.7168 26.3262C76.9316 26.4355 77.1855 26.4902 77.4785 26.4902C77.8691 26.4902 78.2129 26.418 78.5098 26.2734C78.8105 26.1289 79.0586 25.9395 79.2539 25.7051C79.4492 25.4707 79.5801 25.2148 79.6465 24.9375L79.9512 25.3418C79.9004 25.5371 79.8066 25.7383 79.6699 25.9453C79.5371 26.1484 79.3633 26.3398 79.1484 26.5195C78.9336 26.6953 78.6797 26.8398 78.3867 26.9531C78.0977 27.0625 77.7695 27.1172 77.4023 27.1172C76.9883 27.1172 76.627 27.0391 76.3184 26.8828C76.0137 26.7266 75.7754 26.5137 75.6035 26.2441C75.4355 25.9707 75.3516 25.6621 75.3516 25.3184C75.3516 25.0059 75.418 24.7266 75.5508 24.4805C75.6836 24.2305 75.875 24.0195 76.125 23.8477C76.3789 23.6719 76.6836 23.5391 77.0391 23.4492C77.3984 23.3555 77.8008 23.3086 78.2461 23.3086H79.7051ZM82.8164 21.709V27H82.1191V20.6602H82.7988L82.8164 21.709ZM85.0605 20.6133L85.043 21.2578C84.9648 21.2461 84.8887 21.2363 84.8145 21.2285C84.7402 21.2207 84.6602 21.2168 84.5742 21.2168C84.2695 21.2168 84.002 21.2734 83.7715 21.3867C83.5449 21.4961 83.3535 21.6504 83.1973 21.8496C83.041 22.0449 82.9219 22.2754 82.8398 22.541C82.7578 22.8027 82.7109 23.084 82.6992 23.3848L82.4414 23.4844C82.4414 23.0703 82.4844 22.6855 82.5703 22.3301C82.6562 21.9746 82.7871 21.6641 82.9629 21.3984C83.1426 21.1289 83.3672 20.9199 83.6367 20.7715C83.9102 20.6191 84.2305 20.543 84.5977 20.543C84.6875 20.543 84.7754 20.5508 84.8613 20.5664C84.9512 20.5781 85.0176 20.5938 85.0605 20.6133ZM90.1641 25.7695V18H90.8672V27H90.2109L90.1641 25.7695ZM85.7637 23.8945V23.7715C85.7637 23.2793 85.8203 22.8359 85.9336 22.4414C86.0469 22.043 86.209 21.7031 86.4199 21.4219C86.6348 21.1367 86.8926 20.9199 87.1934 20.7715C87.4941 20.6191 87.834 20.543 88.2129 20.543C88.584 20.543 88.9121 20.6035 89.1973 20.7246C89.4824 20.8457 89.7266 21.0195 89.9297 21.2461C90.1367 21.4727 90.3027 21.7422 90.4277 22.0547C90.5566 22.3672 90.6504 22.7148 90.709 23.0977V24.6621C90.6621 25.0215 90.5762 25.3516 90.4512 25.6523C90.3262 25.9492 90.1602 26.209 89.9531 26.4316C89.7461 26.6504 89.4961 26.8203 89.2031 26.9414C88.9141 27.0586 88.5801 27.1172 88.2012 27.1172C87.8262 27.1172 87.4883 27.0391 87.1875 26.8828C86.8867 26.7266 86.6309 26.5059 86.4199 26.2207C86.209 25.9316 86.0469 25.5898 85.9336 25.1953C85.8203 24.8008 85.7637 24.3672 85.7637 23.8945ZM86.4668 23.7715V23.8945C86.4668 24.2656 86.5039 24.6094 86.5781 24.9258C86.6523 25.2422 86.7656 25.5176 86.918 25.752C87.0703 25.9863 87.2637 26.1699 87.498 26.3027C87.7324 26.4355 88.0098 26.502 88.3301 26.502C88.7324 26.502 89.0703 26.4258 89.3438 26.2734C89.6172 26.1172 89.8359 25.9121 90 25.6582C90.1641 25.4004 90.2832 25.1191 90.3574 24.8145V22.9922C90.3105 22.7852 90.2422 22.5742 90.1523 22.3594C90.0625 22.1445 89.9395 21.9473 89.7832 21.7676C89.6309 21.584 89.4355 21.4375 89.1973 21.3281C88.9629 21.2148 88.6777 21.1582 88.3418 21.1582C88.0176 21.1582 87.7383 21.2246 87.5039 21.3574C87.2695 21.4902 87.0742 21.6758 86.918 21.9141C86.7656 22.1484 86.6523 22.4238 86.5781 22.7402C86.5039 23.0566 86.4668 23.4004 86.4668 23.7715ZM96.5098 25.3828C96.5098 25.2109 96.4668 25.041 96.3809 24.873C96.2949 24.7051 96.1289 24.5508 95.8828 24.4102C95.6406 24.2695 95.2832 24.1504 94.8105 24.0527C94.459 23.9746 94.1445 23.8867 93.8672 23.7891C93.5938 23.6914 93.3633 23.5742 93.1758 23.4375C92.9883 23.3008 92.8457 23.1367 92.748 22.9453C92.6504 22.7539 92.6016 22.5273 92.6016 22.2656C92.6016 22.0312 92.6523 21.8105 92.7539 21.6035C92.8594 21.3926 93.0078 21.209 93.1992 21.0527C93.3945 20.8926 93.6289 20.7676 93.9023 20.6777C94.1797 20.5879 94.4902 20.543 94.834 20.543C95.3223 20.543 95.7402 20.627 96.0879 20.7949C96.4395 20.959 96.707 21.1836 96.8906 21.4688C97.0781 21.7539 97.1719 22.0762 97.1719 22.4355H96.4746C96.4746 22.2168 96.4102 22.0098 96.2812 21.8145C96.1562 21.6191 95.9707 21.459 95.7246 21.334C95.4824 21.209 95.1855 21.1465 94.834 21.1465C94.4707 21.1465 94.1758 21.2012 93.9492 21.3105C93.7227 21.4199 93.5566 21.5586 93.4512 21.7266C93.3496 21.8945 93.2988 22.0684 93.2988 22.248C93.2988 22.3887 93.3203 22.5176 93.3633 22.6348C93.4102 22.748 93.4922 22.8535 93.6094 22.9512C93.7305 23.0488 93.9023 23.1406 94.125 23.2266C94.3477 23.3125 94.6367 23.3965 94.9922 23.4785C95.5039 23.5918 95.9219 23.7305 96.2461 23.8945C96.5742 24.0547 96.8164 24.2539 96.9727 24.4922C97.1289 24.7266 97.207 25.0117 97.207 25.3477C97.207 25.6094 97.1523 25.8496 97.043 26.0684C96.9336 26.2832 96.7754 26.4688 96.5684 26.625C96.3652 26.7812 96.1191 26.9023 95.8301 26.9883C95.5449 27.0742 95.2246 27.1172 94.8691 27.1172C94.334 27.1172 93.8809 27.0293 93.5098 26.8535C93.1426 26.6738 92.8633 26.4395 92.6719 26.1504C92.4844 25.8574 92.3906 25.5469 92.3906 25.2188H93.0879C93.1113 25.5469 93.2148 25.8066 93.3984 25.998C93.582 26.1855 93.8066 26.3184 94.0723 26.3965C94.3418 26.4746 94.6074 26.5137 94.8691 26.5137C95.2285 26.5137 95.5293 26.4609 95.7715 26.3555C96.0137 26.25 96.1973 26.1113 96.3223 25.9395C96.4473 25.7676 96.5098 25.582 96.5098 25.3828Z" fill="#023E61"/>
<path d="M42.3965 9.73438L44.7051 11.5625L43.5977 12.5234L41.3242 10.6953L42.3965 9.73438ZM44.7637 6.53516V6.93945C44.7637 7.58789 44.6758 8.16992 44.5 8.68555C44.3281 9.20117 44.0801 9.64062 43.7559 10.0039C43.4316 10.3633 43.0488 10.6387 42.6074 10.8301C42.166 11.0215 41.6758 11.1172 41.1367 11.1172C40.6016 11.1172 40.1113 11.0215 39.666 10.8301C39.2207 10.6387 38.8359 10.3633 38.5117 10.0039C38.1875 9.64062 37.9355 9.20117 37.7559 8.68555C37.5801 8.16992 37.4922 7.58789 37.4922 6.93945V6.53516C37.4922 5.88281 37.5801 5.30078 37.7559 4.78906C37.9355 4.27344 38.1855 3.83398 38.5059 3.4707C38.8262 3.10742 39.209 2.83008 39.6543 2.63867C40.0996 2.44727 40.5898 2.35156 41.125 2.35156C41.6641 2.35156 42.1543 2.44727 42.5957 2.63867C43.041 2.83008 43.4258 3.10742 43.75 3.4707C44.0742 3.83398 44.3242 4.27344 44.5 4.78906C44.6758 5.30078 44.7637 5.88281 44.7637 6.53516ZM42.9883 6.93945V6.52344C42.9883 6.07031 42.9453 5.67188 42.8594 5.32812C42.7773 4.98438 42.6562 4.69531 42.4961 4.46094C42.3398 4.22656 42.1465 4.05078 41.916 3.93359C41.6855 3.8125 41.4219 3.75195 41.125 3.75195C40.8281 3.75195 40.5645 3.8125 40.334 3.93359C40.1035 4.05078 39.9102 4.22656 39.7539 4.46094C39.5977 4.69531 39.4785 4.98438 39.3965 5.32812C39.3145 5.67188 39.2734 6.07031 39.2734 6.52344V6.93945C39.2734 7.38867 39.3145 7.78711 39.3965 8.13477C39.4785 8.47852 39.5977 8.76953 39.7539 9.00781C39.9141 9.24219 40.1094 9.41992 40.3398 9.54102C40.5742 9.66211 40.8398 9.72266 41.1367 9.72266C41.4336 9.72266 41.6953 9.66211 41.9219 9.54102C42.1523 9.41992 42.3457 9.24219 42.502 9.00781C42.6621 8.76953 42.7832 8.47852 42.8652 8.13477C42.9473 7.78711 42.9883 7.38867 42.9883 6.93945ZM49.6797 9.48242V4.66016H51.3672V11H49.7793L49.6797 9.48242ZM49.8672 8.18164L50.3652 8.16992C50.3652 8.5918 50.3164 8.98438 50.2188 9.34766C50.1211 9.70703 49.9746 10.0195 49.7793 10.2852C49.584 10.5469 49.3379 10.752 49.041 10.9004C48.7441 11.0449 48.3945 11.1172 47.9922 11.1172C47.6836 11.1172 47.3984 11.0742 47.1367 10.9883C46.8789 10.8984 46.6562 10.7598 46.4688 10.5723C46.2852 10.3809 46.1406 10.1367 46.0352 9.83984C45.9336 9.53906 45.8828 9.17773 45.8828 8.75586V4.66016H47.5703V8.76758C47.5703 8.95508 47.5918 9.11328 47.6348 9.24219C47.6816 9.37109 47.7461 9.47656 47.8281 9.55859C47.9102 9.64062 48.0059 9.69922 48.1152 9.73438C48.2285 9.76953 48.3535 9.78711 48.4902 9.78711C48.8379 9.78711 49.1113 9.7168 49.3105 9.57617C49.5137 9.43555 49.6562 9.24414 49.7383 9.00195C49.8242 8.75586 49.8672 8.48242 49.8672 8.18164ZM54.4375 4.66016V11H52.7441V4.66016H54.4375ZM52.6387 3.00781C52.6387 2.76172 52.7246 2.55859 52.8965 2.39844C53.0684 2.23828 53.2988 2.1582 53.5879 2.1582C53.873 2.1582 54.1016 2.23828 54.2734 2.39844C54.4492 2.55859 54.5371 2.76172 54.5371 3.00781C54.5371 3.25391 54.4492 3.45703 54.2734 3.61719C54.1016 3.77734 53.873 3.85742 53.5879 3.85742C53.2988 3.85742 53.0684 3.77734 52.8965 3.61719C52.7246 3.45703 52.6387 3.25391 52.6387 3.00781ZM58.4512 9.79883C58.6582 9.79883 58.8418 9.75977 59.002 9.68164C59.1621 9.59961 59.2871 9.48633 59.377 9.3418C59.4707 9.19336 59.5195 9.01953 59.5234 8.82031H61.1113C61.1074 9.26562 60.9883 9.66211 60.7539 10.0098C60.5195 10.3535 60.2051 10.625 59.8105 10.8242C59.416 11.0195 58.9746 11.1172 58.4863 11.1172C57.9941 11.1172 57.5645 11.0352 57.1973 10.8711C56.834 10.707 56.5312 10.4805 56.2891 10.1914C56.0469 9.89844 55.8652 9.55859 55.7441 9.17188C55.623 8.78125 55.5625 8.36328 55.5625 7.91797V7.74805C55.5625 7.29883 55.623 6.88086 55.7441 6.49414C55.8652 6.10352 56.0469 5.76367 56.2891 5.47461C56.5312 5.18164 56.834 4.95312 57.1973 4.78906C57.5605 4.625 57.9863 4.54297 58.4746 4.54297C58.9941 4.54297 59.4492 4.64258 59.8398 4.8418C60.2344 5.04102 60.543 5.32617 60.7656 5.69727C60.9922 6.06445 61.1074 6.5 61.1113 7.00391H59.5234C59.5195 6.79297 59.4746 6.60156 59.3887 6.42969C59.3066 6.25781 59.1855 6.12109 59.0254 6.01953C58.8691 5.91406 58.6758 5.86133 58.4453 5.86133C58.1992 5.86133 57.998 5.91406 57.8418 6.01953C57.6855 6.12109 57.5645 6.26172 57.4785 6.44141C57.3926 6.61719 57.332 6.81836 57.2969 7.04492C57.2656 7.26758 57.25 7.50195 57.25 7.74805V7.91797C57.25 8.16406 57.2656 8.40039 57.2969 8.62695C57.3281 8.85352 57.3867 9.05469 57.4727 9.23047C57.5625 9.40625 57.6855 9.54492 57.8418 9.64648C57.998 9.74805 58.2012 9.79883 58.4512 9.79883ZM63.7773 1.99414V11H62.0898V1.99414H63.7773ZM67.7734 4.66016L65.0195 7.80078L63.543 9.29492L62.9277 8.07617L64.0996 6.58789L65.7461 4.66016H67.7734ZM66.0215 11L64.1465 8.07031L65.3125 7.05078L67.9668 11H66.0215ZM73.0469 8.76758C73.0469 8.61523 73.0234 8.47852 72.9766 8.35742C72.9336 8.23242 72.8516 8.11914 72.7305 8.01758C72.6094 7.91211 72.4395 7.80859 72.2207 7.70703C72.002 7.60547 71.7188 7.5 71.3711 7.39062C70.9844 7.26562 70.6172 7.125 70.2695 6.96875C69.9258 6.8125 69.6211 6.63086 69.3555 6.42383C69.0938 6.21289 68.8867 5.96875 68.7344 5.69141C68.5859 5.41406 68.5117 5.0918 68.5117 4.72461C68.5117 4.36914 68.5898 4.04688 68.7461 3.75781C68.9023 3.46484 69.1211 3.21484 69.4023 3.00781C69.6836 2.79688 70.0156 2.63477 70.3984 2.52148C70.7852 2.4082 71.209 2.35156 71.6699 2.35156C72.2988 2.35156 72.8477 2.46484 73.3164 2.69141C73.7852 2.91797 74.1484 3.22852 74.4062 3.62305C74.668 4.01758 74.7988 4.46875 74.7988 4.97656H73.0527C73.0527 4.72656 73 4.50781 72.8945 4.32031C72.793 4.12891 72.6367 3.97852 72.4258 3.86914C72.2188 3.75977 71.957 3.70508 71.6406 3.70508C71.3359 3.70508 71.082 3.75195 70.8789 3.8457C70.6758 3.93555 70.5234 4.05859 70.4219 4.21484C70.3203 4.36719 70.2695 4.53906 70.2695 4.73047C70.2695 4.875 70.3047 5.00586 70.375 5.12305C70.4492 5.24023 70.5586 5.34961 70.7031 5.45117C70.8477 5.55273 71.0254 5.64844 71.2363 5.73828C71.4473 5.82812 71.6914 5.91602 71.9688 6.00195C72.4336 6.14258 72.8418 6.30078 73.1934 6.47656C73.5488 6.65234 73.8457 6.84961 74.084 7.06836C74.3223 7.28711 74.502 7.53516 74.623 7.8125C74.7441 8.08984 74.8047 8.4043 74.8047 8.75586C74.8047 9.12695 74.7324 9.45898 74.5879 9.75195C74.4434 10.0449 74.2344 10.293 73.9609 10.4961C73.6875 10.6992 73.3613 10.8535 72.9824 10.959C72.6035 11.0645 72.1797 11.1172 71.7109 11.1172C71.2891 11.1172 70.873 11.0625 70.4629 10.9531C70.0527 10.8398 69.6797 10.6699 69.3438 10.4434C69.0117 10.2168 68.7461 9.92773 68.5469 9.57617C68.3477 9.22461 68.248 8.80859 68.248 8.32812H70.0117C70.0117 8.59375 70.0527 8.81836 70.1348 9.00195C70.2168 9.18555 70.332 9.33398 70.4805 9.44727C70.6328 9.56055 70.8125 9.64258 71.0195 9.69336C71.2305 9.74414 71.4609 9.76953 71.7109 9.76953C72.0156 9.76953 72.2656 9.72656 72.4609 9.64062C72.6602 9.55469 72.8066 9.43555 72.9004 9.2832C72.998 9.13086 73.0469 8.95898 73.0469 8.76758ZM79.6445 9.48242V4.66016H81.332V11H79.7441L79.6445 9.48242ZM79.832 8.18164L80.3301 8.16992C80.3301 8.5918 80.2812 8.98438 80.1836 9.34766C80.0859 9.70703 79.9395 10.0195 79.7441 10.2852C79.5488 10.5469 79.3027 10.752 79.0059 10.9004C78.709 11.0449 78.3594 11.1172 77.957 11.1172C77.6484 11.1172 77.3633 11.0742 77.1016 10.9883C76.8438 10.8984 76.6211 10.7598 76.4336 10.5723C76.25 10.3809 76.1055 10.1367 76 9.83984C75.8984 9.53906 75.8477 9.17773 75.8477 8.75586V4.66016H77.5352V8.76758C77.5352 8.95508 77.5566 9.11328 77.5996 9.24219C77.6465 9.37109 77.7109 9.47656 77.793 9.55859C77.875 9.64062 77.9707 9.69922 78.0801 9.73438C78.1934 9.76953 78.3184 9.78711 78.4551 9.78711C78.8027 9.78711 79.0762 9.7168 79.2754 9.57617C79.4785 9.43555 79.6211 9.24414 79.7031 9.00195C79.7891 8.75586 79.832 8.48242 79.832 8.18164ZM84.3086 6.04297V11H82.6211V4.66016H84.209L84.3086 6.04297ZM86.2188 4.61914L86.1895 6.18359C86.1074 6.17188 86.0078 6.16211 85.8906 6.1543C85.7773 6.14258 85.6738 6.13672 85.5801 6.13672C85.3418 6.13672 85.1348 6.16797 84.959 6.23047C84.7871 6.28906 84.6426 6.37695 84.5254 6.49414C84.4121 6.61133 84.3262 6.75391 84.2676 6.92188C84.2129 7.08984 84.1816 7.28125 84.1738 7.49609L83.834 7.39062C83.834 6.98047 83.875 6.60352 83.957 6.25977C84.0391 5.91211 84.1582 5.60938 84.3145 5.35156C84.4746 5.09375 84.6699 4.89453 84.9004 4.75391C85.1309 4.61328 85.3945 4.54297 85.6914 4.54297C85.7852 4.54297 85.8809 4.55078 85.9785 4.56641C86.0762 4.57812 86.1562 4.5957 86.2188 4.61914ZM89.2832 11H87.584V4.09766C87.584 3.61719 87.6777 3.21289 87.8652 2.88477C88.0566 2.55273 88.3242 2.30273 88.668 2.13477C89.0156 1.96289 89.4277 1.87695 89.9043 1.87695C90.0605 1.87695 90.2109 1.88867 90.3555 1.91211C90.5 1.93164 90.6406 1.95703 90.7773 1.98828L90.7598 3.25977C90.6855 3.24023 90.6074 3.22656 90.5254 3.21875C90.4434 3.21094 90.3477 3.20703 90.2383 3.20703C90.0352 3.20703 89.8613 3.24219 89.7168 3.3125C89.5762 3.37891 89.4688 3.47852 89.3945 3.61133C89.3203 3.74414 89.2832 3.90625 89.2832 4.09766V11ZM90.5488 4.66016V5.85547H86.6406V4.66016H90.5488Z" fill="#023E61"/>
<path d="M32.2092 22.6618C30.9772 22.4992 29.7968 21.9507 28.8914 21.1109C28.0835 20.3591 26.9317 20.3456 26.1295 21.1109C23.9578 23.1697 19.9868 23.1697 17.7806 21.0093C17.0071 20.2508 15.8897 20.393 15.1047 21.1312C12.9272 23.1697 8.97914 23.1629 6.7845 21.0161C6.01093 20.2575 4.87636 20.4133 4.0856 21.1515C3.19742 21.9777 2.02274 22.5128 0.7793 22.6685C0.326618 22.7227 0 23.1968 0 23.7318V25.9125C0 26.5288 0.435491 27.0503 0.956935 26.9961C2.60722 26.8268 4.17155 26.2241 5.50667 25.2421C8.74421 27.5853 13.357 27.5515 16.5086 25.2421C19.7461 27.5853 24.3589 27.5515 27.5104 25.2421C28.8456 26.2037 30.4271 26.82 32.043 26.9894C32.5644 27.0435 32.9999 26.5221 32.9999 25.9058V23.7657C33.0057 23.2239 32.6733 22.7227 32.2092 22.6618ZM32.2092 12.9094C30.9772 12.7469 29.7968 12.1983 28.8914 11.3586C28.0835 10.6068 26.9317 10.5933 26.1295 11.3586C23.9578 13.4174 19.9868 13.4174 17.7806 11.257C17.0071 10.4985 15.8897 10.6407 15.1047 11.3789C12.9272 13.4174 8.97914 13.4106 6.7845 11.2637C6.01093 10.5052 4.87636 10.661 4.0856 11.3992C3.19742 12.2254 2.02274 12.7605 0.7793 12.9162C0.326618 12.9704 0 13.4445 0 13.9795V16.1602C0 16.7765 0.435491 17.298 0.956935 17.2438C2.60722 17.0745 4.17155 16.4718 5.50667 15.4897C8.74421 17.833 13.357 17.7992 16.5086 15.4897C19.7461 17.833 24.3589 17.7992 27.5104 15.4897C28.8456 16.4514 30.4271 17.0677 32.043 17.237C32.5644 17.2912 32.9999 16.7697 32.9999 16.1534V14.0134C33.0057 13.4716 32.6733 12.9704 32.2092 12.9094ZM32.2092 3.15713C30.9772 2.98782 29.7968 2.44603 28.8914 1.60624C28.0835 0.854504 26.9317 0.840959 26.1295 1.60624C23.9578 3.66507 19.9868 3.66507 17.7806 1.50466C17.0071 0.746145 15.8897 0.888366 15.1047 1.62656C12.9272 3.66507 8.97914 3.65829 6.7845 1.51143C6.01093 0.752917 4.87636 0.908683 4.0856 1.64688C3.19742 2.47312 2.02274 3.00814 0.7793 3.16391C0.326618 3.21809 0 3.69216 0 4.22718V6.4079C0 7.0242 0.435491 7.54567 0.956935 7.49149C2.60722 7.32218 4.17155 6.71944 5.50667 5.73743C8.74421 8.0807 13.357 8.04684 16.5086 5.73743C19.7461 8.0807 24.3589 8.04684 27.5104 5.73743C28.8456 6.69912 30.4271 7.31541 32.043 7.48472C32.5644 7.5389 32.9999 7.01742 32.9999 6.40113V4.26104C33.0057 3.71925 32.6733 3.21809 32.2092 3.15713Z" fill="#7DE9FF"/>
</svg>
