<svg width="25" height="25" viewBox="0 0 25 25" fill="none" xmlns="http://www.w3.org/2000/svg">
<path d="M23.867 2.1756L23.8683 2.1759C23.9441 2.19329 24 2.26094 24 2.34379C24 14.3154 14.2969 24 2.34377 24C2.26265 24 2.19373 23.9454 2.17543 23.8663L1.00385 18.7895C1.00385 18.7895 1.00384 18.7894 1.00384 18.7894C0.986473 18.7138 1.02476 18.6227 1.11265 18.5827L6.57558 16.2414C6.64228 16.2129 6.7237 16.23 6.77526 16.2929C6.77528 16.2929 6.77529 16.2929 6.77531 16.293L9.19688 19.2516L9.69007 19.8541L10.3951 19.5237C14.4326 17.6313 17.6726 14.3445 19.5283 10.3907L19.8593 9.68548L19.2564 9.19202L16.2975 6.77014L16.2975 6.77012L16.2922 6.76587C16.2389 6.72282 16.216 6.64144 16.2463 6.57072L18.5883 1.10614C18.5884 1.10575 18.5886 1.10535 18.5888 1.10496C18.6227 1.02847 18.7097 0.985559 18.7894 1.00386C18.7894 1.00386 18.7894 1.00387 18.7895 1.00387L23.867 2.1756Z" stroke="#023E61" stroke-width="2"/>
</svg>
