<svg width="87" height="85" viewBox="0 0 87 85" fill="none" xmlns="http://www.w3.org/2000/svg">
<g filter="url(#filter0_d_2_136)">
<mask id="path-1-inside-1_2_136" fill="white">
<path d="M19.7918 76.5511C20.0362 76.5796 20.2863 76.5963 20.3566 76.5803C20.4181 76.5663 20.5747 76.4362 20.69 76.2945C21.0146 75.9215 21.7268 75.4342 23.0375 74.6954C26.1003 72.9758 29.1737 71.6474 33.9727 69.9689C35.1417 69.5563 36.1004 69.223 36.1092 69.221C36.1179 69.219 36.1489 69.3169 36.1701 69.4434C36.1855 69.5816 36.3183 69.7929 36.4944 69.9629C37.8272 71.3189 42.6751 71.8499 48.0112 71.2149C49.9898 70.9805 53.7467 70.2948 53.708 70.1723C53.6848 70.0988 52.531 69.8151 51.4593 69.6124C46.626 68.7105 40.7601 68.2953 37.7076 68.6478C37.3981 68.6813 37.1397 68.6981 37.1423 68.6765C37.133 68.6471 37.854 68.1578 38.7471 67.5873C39.1223 67.3446 40.5855 66.5816 40.9839 66.4123C41.1343 66.3519 41.1581 66.3675 41.2479 66.6516C41.7115 68.0582 45.6674 68.8654 50.6401 68.5701C52.0069 68.4852 53.6719 68.3011 55.1612 68.0677C56.3896 67.8726 58.7518 67.362 58.7301 67.2935C58.7115 67.2347 57.8321 67.0146 56.8576 66.8213C56.3667 66.7281 56.0009 66.6432 56.0448 66.6332C56.0799 66.6253 56.5419 66.5675 57.0685 66.5056C57.5878 66.4506 58.5423 66.3125 59.1872 66.2079C60.4332 66.0088 62.6884 65.5173 62.6682 65.4536C62.6373 65.3557 60.9988 64.9983 59.229 64.7022C56.2378 64.206 52.6331 63.8545 50.2003 63.8141C49.1126 63.7988 47.3778 63.8517 46.8528 63.9185C46.6446 63.9449 46.4683 63.9534 46.4606 63.9289C46.4544 63.9093 46.6932 63.7711 46.9847 63.6208C47.2777 63.4755 47.761 63.1872 48.053 62.9791C48.5094 62.6654 48.607 62.617 48.6654 62.6824C49.057 63.0869 49.9679 63.3472 51.1295 63.3877C54.9379 63.5197 60.7962 61.737 65.9144 58.8941C66.4255 58.6047 66.456 58.582 66.2777 58.5543C66.0096 58.5102 65.0773 58.5698 63.741 58.7213C62.4662 58.8587 60.2477 59.1686 59.8524 59.2584C59.4219 59.3562 59.5408 59.2557 60.1351 59.0209C62.3971 58.1342 65.3343 56.3748 67.638 54.5179C68.9292 53.4791 69.0739 53.3412 68.906 53.3163C68.691 53.2917 67.1567 53.6508 65.7598 54.0575C60.9666 55.4564 56.5753 57.1735 53.9384 58.6914L53.2614 59.0815L54.7955 57.6199L56.3209 56.1604L56.6784 56.2786C57.4602 56.5472 58.6549 56.365 60.0017 55.7702C63.085 54.4133 65.9663 51.4645 67.6886 47.9181L68.1323 46.9983L68.5173 46.8163C69.8212 46.205 71.4245 45.2002 72.7844 44.1405C73.7059 43.4219 75.3894 41.8372 75.2887 41.7866C75.1761 41.7282 74.62 41.8755 73.3089 42.3152C69.7642 43.4934 65.8612 45.236 63.8585 46.5258C63.5065 46.7528 63.2124 46.9246 63.2078 46.9099C63.2031 46.8952 63.3717 46.4159 63.5858 45.8423C63.8015 45.2736 63.9929 44.7471 64.011 44.6852C64.0575 44.5644 64.0575 44.5644 64.551 44.5468C67.5151 44.4507 71.4298 41.5243 73.8121 37.6231C74.4522 36.58 75.3457 34.6708 75.2853 34.4798C75.2404 34.3377 74.9499 34.4615 73.9979 35.0243C71.2644 36.6534 67.1155 39.822 65.4883 41.5252C65.2252 41.795 65.0024 42.0136 64.9833 42.0127C64.9714 42.0049 65.0562 41.7074 65.1783 41.3489C65.5021 40.3777 66.0112 38.1463 66.1211 37.2132C66.2143 36.436 66.2283 36.3909 66.4148 36.3852C66.5192 36.3877 66.9455 36.3066 67.3584 36.2128C68.2897 36.0012 68.9476 35.6994 69.9508 35.0305C71.7086 33.8594 73.2247 32.1919 74.3575 30.1759C74.6532 29.6519 75.2903 28.242 75.2671 28.1685C75.2624 28.1538 75.1715 28.164 75.0661 28.188C74.4247 28.3337 70.9437 30.7259 68.9703 32.3765C68.2482 32.9815 66.9183 34.2549 66.5332 34.7047C66.3977 34.8719 66.2706 35.0058 66.2602 35.0029C66.2499 35 66.2148 34.7403 66.1922 34.4304C66.168 34.1157 66.021 33.3827 65.8718 32.7918L65.5885 31.717L66.0112 31.5947C66.6474 31.4029 67.3472 30.9657 67.9623 30.3797C69.6861 28.7438 70.5581 26.1413 70.3089 23.3578C70.2764 22.9872 70.2146 22.6128 70.1691 22.5286L70.0901 22.3681L69.8161 22.6036C68.9101 23.3712 66.9797 26.0515 65.9239 28.0133L65.4601 28.8694L65.3026 28.5797C65.1224 28.2479 64.8259 27.9058 64.3909 27.5427C64.1212 27.3152 64.0546 27.1939 63.6271 26.0206L63.1686 24.7494L63.3619 24.7054C64.012 24.5577 65.1879 23.5713 65.8471 22.6183C67.003 20.9435 67.4724 18.7947 67.2561 16.2347C67.1809 15.4014 67.0963 14.9849 66.9997 15.0068C66.9645 15.0148 66.7785 15.1411 66.5795 15.2861C65.7386 15.9024 64.6323 17.1984 63.832 18.509C63.3222 19.3388 62.4473 21.2175 62.2068 21.9756C62.1034 22.3036 61.9896 22.5394 61.9596 22.5042C61.9209 22.4711 61.6001 22.082 61.2447 21.643C60.8894 21.204 60.4203 20.6439 60.2003 20.3947L59.786 19.9481L60.0077 19.8452C60.4439 19.6464 60.63 19.5201 60.9933 19.1803C62.4872 17.7699 62.7432 15.1551 61.6424 12.5074C61.2969 11.683 60.7851 10.7494 60.6131 10.652C60.4736 10.5682 60.3381 10.7354 60.0382 11.3653C59.3148 12.8894 58.6066 15.6226 58.5291 17.1942C58.5135 17.5022 58.4979 17.8102 58.4917 17.8799C58.4844 17.976 58.3775 17.9058 58.036 17.6002C57.7942 17.3716 57.3572 17.0615 57.0637 16.9077C56.7568 16.7412 56.1575 16.3051 55.6404 15.8609C55.1502 15.4421 54.7048 15.0761 54.6485 15.0469C54.5772 15.0001 54.6408 14.9332 54.9525 14.7573C55.6791 14.3455 56.0783 13.5828 56.0636 12.6727C56.0508 12.1559 55.6497 10.9766 55.2876 10.3974C54.4953 9.11281 53.1279 7.79614 51.4628 6.69935C51.1657 6.50437 50.8707 6.34567 50.8118 6.33805C50.6646 6.31902 50.6107 6.62524 50.671 7.2625C50.6978 7.55565 50.706 7.79002 50.6941 7.78223C50.6822 7.77443 50.4911 7.58688 50.2788 7.36214C49.5638 6.59015 47.7696 5.23397 47.5531 5.29367C47.0482 5.42415 48.0149 9.04724 49.0525 10.8693L49.1826 11.1023L48.4582 10.9256C47.7529 10.7499 47.741 10.7421 47.7333 10.5391C47.7146 9.19947 45.6357 7.77674 42.348 6.84919C41.1389 6.50972 39.8146 6.22269 39.6301 6.26461C39.4983 6.29456 39.521 6.33664 39.8625 6.73152C40.5769 7.56138 42.059 8.79424 43.3914 9.67264L44.2589 10.242L43.4719 10.1951C41.886 10.0935 38.2027 10.1483 38.1753 10.27C38.1199 10.482 40.6366 11.5323 43.3151 12.4093C45.3969 13.0964 47.5526 13.6303 49.3233 13.8999C50.1852 14.0347 51.94 14.1347 52.0961 14.0625C52.2026 14.012 52.5296 14.2422 53.6894 15.1703C54.6767 15.9697 54.6792 15.9481 53.7037 15.6921C52.1128 15.2766 49.9963 14.9859 47.7873 14.8789C46.7269 14.8311 45.2672 14.8006 45.1354 14.8305C45.0124 14.8585 45.4557 15.1882 46.0963 15.5466C48.0508 16.6354 51.1472 17.9109 53.6429 18.6562C54.3399 18.8653 54.8039 19.0224 54.6685 19.0111C53.5172 18.8843 51.7515 18.8393 50.1196 18.8899C48.9828 18.9277 46.63 19.1106 46.2698 19.1925L46.0678 19.2384L46.2739 19.3543C47.2142 19.8861 51.4661 21.0932 54.3245 21.6459C56.5092 22.0629 58.9202 22.3025 60.1873 22.2298C60.6219 22.2045 60.5847 22.1762 60.9974 22.7964C61.3708 23.352 61.3651 23.3638 60.9022 23.1803C60.1525 22.8939 59.0793 22.6863 57.774 22.5787C55.4343 22.3859 53.0908 22.5089 50.0579 22.9829L49.6357 23.0473L49.8021 23.1565C50.2743 23.4587 54.0101 24.2844 56.2444 24.5904L57.3842 24.7409L57.4839 24.9965C57.8133 25.8298 59.3491 27.5597 60.7413 28.687C61.5782 29.3683 62.7252 30.0473 63.6511 30.4144C63.9099 30.5183 63.9683 30.5838 64.1062 30.9304C64.1934 31.1468 64.2332 31.3321 64.2068 31.338C64.1804 31.344 64.0306 31.2573 63.8627 31.1433C63.375 30.7921 61.7093 30.0209 60.6511 29.6524C59.5811 29.2761 57.8853 28.8268 56.6632 28.5952C55.9321 28.4569 55.913 28.456 55.9238 28.5795C55.9464 28.8894 57.6951 30.5184 59.2646 31.6999C61.0097 33.02 62.9523 34.101 64.3985 34.565L65.0501 34.7792L65.0581 35.4598C65.062 36.2464 64.9009 37.7319 64.7146 38.5722L64.5873 39.1524L64.3337 38.7375C63.3136 37.0899 61.3009 35.4002 58.7559 34.0519L58.0992 33.7023L58.0315 33.8752C57.9513 34.0982 58.8067 36.8331 59.2689 37.7885C60.4122 40.1536 61.7051 41.8599 63.0215 42.7472L63.4152 43.0095L63.2435 43.479C63.0619 43.977 62.9725 43.992 62.814 43.5503C62.465 42.5954 60.8704 40.7687 59.3794 39.6271C58.7321 39.1285 57.5661 38.3592 57.487 38.3772C57.3904 38.3992 57.3748 38.5287 57.4015 39.0896C57.4888 40.7654 58.3555 43.7445 59.2232 45.327C59.8212 46.4143 60.4891 47.2757 61.1457 47.8037L61.4985 48.0857L61.2452 48.5948C61.1087 48.8778 60.9091 49.2591 60.7886 49.444L60.5855 49.7841L60.3284 48.9711C59.7574 47.1952 58.3353 45.5865 55.9448 43.9826L55.2169 43.497L55.1507 43.6748C55.1155 43.772 55.1128 44.1506 55.1334 44.5134C55.208 45.4939 56.3572 49.1281 56.8649 49.9891C57.3529 50.8179 57.7791 51.3615 58.3101 51.8498L58.7621 52.2668L58.2137 52.8849C57.658 53.5099 57.4538 53.6981 57.5055 53.5341C57.5283 53.4869 57.5294 53.1927 57.5171 52.8857C57.5038 52.4268 57.4192 52.0995 57.0898 51.1769C56.6664 49.987 56.2837 49.3127 55.4578 48.3087C55.0786 47.8542 54.1896 46.9485 54.1369 46.9605C53.8733 47.0204 53.5978 48.9781 53.6252 50.6728C53.6469 52.29 53.7114 52.7321 54.1589 54.1476C54.4909 55.2271 54.6241 55.559 54.825 55.8073L55.0828 56.1162L54.54 56.6333C54.1203 57.0332 53.9968 57.119 54.0113 57.0159C54.158 55.6334 53.9418 54.4436 53.3128 53.1691C52.9663 52.4604 52.2809 51.4245 51.7654 50.8067C51.3878 50.357 50.4611 49.3917 50.3469 49.3284C50.1066 49.194 49.8023 50.7331 49.7377 52.3751C49.6304 55.3709 50.1757 58.0188 51.1582 59.2497C51.2946 59.4129 51.3839 59.5764 51.3581 59.6137C51.3022 59.7052 50.5259 60.228 49.8825 60.6052C49.5708 60.7811 49.207 61.0002 49.0746 61.088L48.8142 61.247L48.9373 60.862C49.2031 60.0352 49.3042 59.104 49.2497 58.0979C49.2086 57.4616 48.3939 54.8854 48.0495 54.3022C47.5583 53.4636 47.3538 53.1741 47.2835 53.1901C47.0287 53.248 46.2815 55.0242 45.833 56.6432C45.0565 59.4288 44.891 61.288 45.2947 62.8027L45.5073 63.5943L44.8732 63.9117C44.5336 64.0886 43.7868 64.4368 43.2178 64.692C42.6488 64.9473 42.1206 65.1829 42.0317 65.2293C41.9341 65.2777 42.0023 65.1362 42.2365 64.8048C43.9316 62.4825 44.5526 59.622 44.0916 56.2882C44.0514 55.9824 44.038 55.9697 43.8954 56.0546C43.2664 56.418 41.0347 59.277 39.7298 61.3741C39.5421 61.674 39.3829 61.9149 39.3741 61.9169C39.3653 61.9189 39.3519 61.817 39.3571 61.6846C39.3688 60.8577 38.9154 58.2624 38.7227 58.07C38.6302 57.986 38.6142 57.9949 38.3723 58.2126C38.0523 58.511 36.9336 60.1249 36.3204 61.1934C34.3831 64.5367 33.4056 67.431 33.5931 69.2152L33.6168 69.4986L32.5383 69.8697C28.4184 71.2836 24.4932 73.0155 21.5317 74.7279C20.5999 75.2651 20.2831 75.4841 19.8546 75.8859C19.5635 76.1568 19.3309 76.4039 19.3402 76.4333C19.3495 76.4627 19.5546 76.5158 19.7918 76.5511ZM43.6683 65.1934C44.4037 64.8688 45.0223 64.5917 45.0559 64.5788C45.0792 64.5631 45.1473 64.6893 45.2103 64.8587C45.2826 65.0575 45.4164 65.2424 45.6308 65.4142L45.9464 65.6679L45.4659 65.6669C44.6944 65.6689 43.1348 65.7398 42.7286 65.7954C42.5292 65.8197 42.3545 65.8332 42.3483 65.8136C42.3437 65.7989 42.9416 65.516 43.6683 65.1934ZM50.7825 60.9204C51.2425 60.6479 51.8085 60.2936 52.0498 60.1337L52.4845 59.8407L52.6545 59.9911C52.7454 60.0702 53.0414 60.2024 53.3101 60.2778C53.8681 60.4345 53.8495 60.465 53.0501 60.6467C52.4175 60.7904 50.771 61.301 50.1256 61.5527C49.8656 61.6538 49.5938 61.747 49.5323 61.761C49.3654 61.7989 49.8073 61.499 50.7825 60.9204ZM62.0976 49.325C62.2847 48.9938 62.5231 48.5564 62.6182 48.351L62.8018 47.9786L63.1733 48.0517C63.6156 48.1401 64.1871 48.131 64.8408 48.0245L65.3261 47.9509L64.6604 48.4067C63.7652 49.0301 62.3624 50.0733 61.5675 50.7159C61.2077 51.0077 60.8987 51.2511 60.8723 51.2571C60.8547 51.2611 61.044 50.9661 61.2937 50.5944C61.5537 50.2256 61.9104 49.6563 62.0976 49.325ZM51.4897 11.6384L51.7213 11.3286L51.7993 11.5156C52.0693 12.1314 52.5042 12.9408 52.7722 13.3419C52.9396 13.6031 53.0723 13.8144 53.0548 13.8184C53.046 13.8204 52.8977 13.7386 52.7313 13.6294C52.5056 13.4812 52.411 13.361 52.3305 13.1063C52.2267 12.7781 51.612 12.1146 51.3433 12.0392C51.209 12.0015 51.1961 12.0201 51.4897 11.6384ZM58.026 24.805C58.3562 24.8665 60.3425 24.9243 61.0649 24.8862C61.5099 24.8638 61.9227 24.8592 61.9775 24.8835C62.084 24.9223 62.6426 26.3913 62.5635 26.4093C62.5372 26.4153 62.2975 26.3122 62.0412 26.1867C61.4207 25.892 59.8143 25.3384 58.7514 25.0444C58.0002 24.8424 57.684 24.7358 58.026 24.805ZM59.6256 27.3919C59.7165 27.471 59.8048 27.5716 59.8172 27.6108C59.8296 27.65 59.7629 27.6179 59.672 27.5388C59.5811 27.4597 59.4928 27.359 59.4804 27.3199C59.468 27.2807 59.5346 27.3128 59.6256 27.3919ZM59.9024 27.7017C59.9231 27.7075 60.2641 27.9817 60.6691 28.3097C61.4673 28.9577 62.2965 29.5253 63.0213 29.9118C63.2822 30.052 63.509 30.1737 63.5416 30.1873C63.5669 30.2078 63.5716 30.2225 63.554 30.2265C63.4046 30.2604 61.9151 29.3914 61.2218 28.8665C60.4944 28.3231 59.734 27.6455 59.9024 27.7017ZM58.0018 19.4873C58.1548 19.4946 58.3201 19.541 58.3651 19.5938C58.4668 19.7072 58.4493 19.7111 58.0214 19.6089C57.6055 19.5144 57.59 19.4654 58.0018 19.4873Z"/>
</mask>
<path d="M19.7918 76.5511C20.0362 76.5796 20.2863 76.5963 20.3566 76.5803C20.4181 76.5663 20.5747 76.4362 20.69 76.2945C21.0146 75.9215 21.7268 75.4342 23.0375 74.6954C26.1003 72.9758 29.1737 71.6474 33.9727 69.9689C35.1417 69.5563 36.1004 69.223 36.1092 69.221C36.1179 69.219 36.1489 69.3169 36.1701 69.4434C36.1855 69.5816 36.3183 69.7929 36.4944 69.9629C37.8272 71.3189 42.6751 71.8499 48.0112 71.2149C49.9898 70.9805 53.7467 70.2948 53.708 70.1723C53.6848 70.0988 52.531 69.8151 51.4593 69.6124C46.626 68.7105 40.7601 68.2953 37.7076 68.6478C37.3981 68.6813 37.1397 68.6981 37.1423 68.6765C37.133 68.6471 37.854 68.1578 38.7471 67.5873C39.1223 67.3446 40.5855 66.5816 40.9839 66.4123C41.1343 66.3519 41.1581 66.3675 41.2479 66.6516C41.7115 68.0582 45.6674 68.8654 50.6401 68.5701C52.0069 68.4852 53.6719 68.3011 55.1612 68.0677C56.3896 67.8726 58.7518 67.362 58.7301 67.2935C58.7115 67.2347 57.8321 67.0146 56.8576 66.8213C56.3667 66.7281 56.0009 66.6432 56.0448 66.6332C56.0799 66.6253 56.5419 66.5675 57.0685 66.5056C57.5878 66.4506 58.5423 66.3125 59.1872 66.2079C60.4332 66.0088 62.6884 65.5173 62.6682 65.4536C62.6373 65.3557 60.9988 64.9983 59.229 64.7022C56.2378 64.206 52.6331 63.8545 50.2003 63.8141C49.1126 63.7988 47.3778 63.8517 46.8528 63.9185C46.6446 63.9449 46.4683 63.9534 46.4606 63.9289C46.4544 63.9093 46.6932 63.7711 46.9847 63.6208C47.2777 63.4755 47.761 63.1872 48.053 62.9791C48.5094 62.6654 48.607 62.617 48.6654 62.6824C49.057 63.0869 49.9679 63.3472 51.1295 63.3877C54.9379 63.5197 60.7962 61.737 65.9144 58.8941C66.4255 58.6047 66.456 58.582 66.2777 58.5543C66.0096 58.5102 65.0773 58.5698 63.741 58.7213C62.4662 58.8587 60.2477 59.1686 59.8524 59.2584C59.4219 59.3562 59.5408 59.2557 60.1351 59.0209C62.3971 58.1342 65.3343 56.3748 67.638 54.5179C68.9292 53.4791 69.0739 53.3412 68.906 53.3163C68.691 53.2917 67.1567 53.6508 65.7598 54.0575C60.9666 55.4564 56.5753 57.1735 53.9384 58.6914L53.2614 59.0815L54.7955 57.6199L56.3209 56.1604L56.6784 56.2786C57.4602 56.5472 58.6549 56.365 60.0017 55.7702C63.085 54.4133 65.9663 51.4645 67.6886 47.9181L68.1323 46.9983L68.5173 46.8163C69.8212 46.205 71.4245 45.2002 72.7844 44.1405C73.7059 43.4219 75.3894 41.8372 75.2887 41.7866C75.1761 41.7282 74.62 41.8755 73.3089 42.3152C69.7642 43.4934 65.8612 45.236 63.8585 46.5258C63.5065 46.7528 63.2124 46.9246 63.2078 46.9099C63.2031 46.8952 63.3717 46.4159 63.5858 45.8423C63.8015 45.2736 63.9929 44.7471 64.011 44.6852C64.0575 44.5644 64.0575 44.5644 64.551 44.5468C67.5151 44.4507 71.4298 41.5243 73.8121 37.6231C74.4522 36.58 75.3457 34.6708 75.2853 34.4798C75.2404 34.3377 74.9499 34.4615 73.9979 35.0243C71.2644 36.6534 67.1155 39.822 65.4883 41.5252C65.2252 41.795 65.0024 42.0136 64.9833 42.0127C64.9714 42.0049 65.0562 41.7074 65.1783 41.3489C65.5021 40.3777 66.0112 38.1463 66.1211 37.2132C66.2143 36.436 66.2283 36.3909 66.4148 36.3852C66.5192 36.3877 66.9455 36.3066 67.3584 36.2128C68.2897 36.0012 68.9476 35.6994 69.9508 35.0305C71.7086 33.8594 73.2247 32.1919 74.3575 30.1759C74.6532 29.6519 75.2903 28.242 75.2671 28.1685C75.2624 28.1538 75.1715 28.164 75.0661 28.188C74.4247 28.3337 70.9437 30.7259 68.9703 32.3765C68.2482 32.9815 66.9183 34.2549 66.5332 34.7047C66.3977 34.8719 66.2706 35.0058 66.2602 35.0029C66.2499 35 66.2148 34.7403 66.1922 34.4304C66.168 34.1157 66.021 33.3827 65.8718 32.7918L65.5885 31.717L66.0112 31.5947C66.6474 31.4029 67.3472 30.9657 67.9623 30.3797C69.6861 28.7438 70.5581 26.1413 70.3089 23.3578C70.2764 22.9872 70.2146 22.6128 70.1691 22.5286L70.0901 22.3681L69.8161 22.6036C68.9101 23.3712 66.9797 26.0515 65.9239 28.0133L65.4601 28.8694L65.3026 28.5797C65.1224 28.2479 64.8259 27.9058 64.3909 27.5427C64.1212 27.3152 64.0546 27.1939 63.6271 26.0206L63.1686 24.7494L63.3619 24.7054C64.012 24.5577 65.1879 23.5713 65.8471 22.6183C67.003 20.9435 67.4724 18.7947 67.2561 16.2347C67.1809 15.4014 67.0963 14.9849 66.9997 15.0068C66.9645 15.0148 66.7785 15.1411 66.5795 15.2861C65.7386 15.9024 64.6323 17.1984 63.832 18.509C63.3222 19.3388 62.4473 21.2175 62.2068 21.9756C62.1034 22.3036 61.9896 22.5394 61.9596 22.5042C61.9209 22.4711 61.6001 22.082 61.2447 21.643C60.8894 21.204 60.4203 20.6439 60.2003 20.3947L59.786 19.9481L60.0077 19.8452C60.4439 19.6464 60.63 19.5201 60.9933 19.1803C62.4872 17.7699 62.7432 15.1551 61.6424 12.5074C61.2969 11.683 60.7851 10.7494 60.6131 10.652C60.4736 10.5682 60.3381 10.7354 60.0382 11.3653C59.3148 12.8894 58.6066 15.6226 58.5291 17.1942C58.5135 17.5022 58.4979 17.8102 58.4917 17.8799C58.4844 17.976 58.3775 17.9058 58.036 17.6002C57.7942 17.3716 57.3572 17.0615 57.0637 16.9077C56.7568 16.7412 56.1575 16.3051 55.6404 15.8609C55.1502 15.4421 54.7048 15.0761 54.6485 15.0469C54.5772 15.0001 54.6408 14.9332 54.9525 14.7573C55.6791 14.3455 56.0783 13.5828 56.0636 12.6727C56.0508 12.1559 55.6497 10.9766 55.2876 10.3974C54.4953 9.11281 53.1279 7.79614 51.4628 6.69935C51.1657 6.50437 50.8707 6.34567 50.8118 6.33805C50.6646 6.31902 50.6107 6.62524 50.671 7.2625C50.6978 7.55565 50.706 7.79002 50.6941 7.78223C50.6822 7.77443 50.4911 7.58688 50.2788 7.36214C49.5638 6.59015 47.7696 5.23397 47.5531 5.29367C47.0482 5.42415 48.0149 9.04724 49.0525 10.8693L49.1826 11.1023L48.4582 10.9256C47.7529 10.7499 47.741 10.7421 47.7333 10.5391C47.7146 9.19947 45.6357 7.77674 42.348 6.84919C41.1389 6.50972 39.8146 6.22269 39.6301 6.26461C39.4983 6.29456 39.521 6.33664 39.8625 6.73152C40.5769 7.56138 42.059 8.79424 43.3914 9.67264L44.2589 10.242L43.4719 10.1951C41.886 10.0935 38.2027 10.1483 38.1753 10.27C38.1199 10.482 40.6366 11.5323 43.3151 12.4093C45.3969 13.0964 47.5526 13.6303 49.3233 13.8999C50.1852 14.0347 51.94 14.1347 52.0961 14.0625C52.2026 14.012 52.5296 14.2422 53.6894 15.1703C54.6767 15.9697 54.6792 15.9481 53.7037 15.6921C52.1128 15.2766 49.9963 14.9859 47.7873 14.8789C46.7269 14.8311 45.2672 14.8006 45.1354 14.8305C45.0124 14.8585 45.4557 15.1882 46.0963 15.5466C48.0508 16.6354 51.1472 17.9109 53.6429 18.6562C54.3399 18.8653 54.8039 19.0224 54.6685 19.0111C53.5172 18.8843 51.7515 18.8393 50.1196 18.8899C48.9828 18.9277 46.63 19.1106 46.2698 19.1925L46.0678 19.2384L46.2739 19.3543C47.2142 19.8861 51.4661 21.0932 54.3245 21.6459C56.5092 22.0629 58.9202 22.3025 60.1873 22.2298C60.6219 22.2045 60.5847 22.1762 60.9974 22.7964C61.3708 23.352 61.3651 23.3638 60.9022 23.1803C60.1525 22.8939 59.0793 22.6863 57.774 22.5787C55.4343 22.3859 53.0908 22.5089 50.0579 22.9829L49.6357 23.0473L49.8021 23.1565C50.2743 23.4587 54.0101 24.2844 56.2444 24.5904L57.3842 24.7409L57.4839 24.9965C57.8133 25.8298 59.3491 27.5597 60.7413 28.687C61.5782 29.3683 62.7252 30.0473 63.6511 30.4144C63.9099 30.5183 63.9683 30.5838 64.1062 30.9304C64.1934 31.1468 64.2332 31.3321 64.2068 31.338C64.1804 31.344 64.0306 31.2573 63.8627 31.1433C63.375 30.7921 61.7093 30.0209 60.6511 29.6524C59.5811 29.2761 57.8853 28.8268 56.6632 28.5952C55.9321 28.4569 55.913 28.456 55.9238 28.5795C55.9464 28.8894 57.6951 30.5184 59.2646 31.6999C61.0097 33.02 62.9523 34.101 64.3985 34.565L65.0501 34.7792L65.0581 35.4598C65.062 36.2464 64.9009 37.7319 64.7146 38.5722L64.5873 39.1524L64.3337 38.7375C63.3136 37.0899 61.3009 35.4002 58.7559 34.0519L58.0992 33.7023L58.0315 33.8752C57.9513 34.0982 58.8067 36.8331 59.2689 37.7885C60.4122 40.1536 61.7051 41.8599 63.0215 42.7472L63.4152 43.0095L63.2435 43.479C63.0619 43.977 62.9725 43.992 62.814 43.5503C62.465 42.5954 60.8704 40.7687 59.3794 39.6271C58.7321 39.1285 57.5661 38.3592 57.487 38.3772C57.3904 38.3992 57.3748 38.5287 57.4015 39.0896C57.4888 40.7654 58.3555 43.7445 59.2232 45.327C59.8212 46.4143 60.4891 47.2757 61.1457 47.8037L61.4985 48.0857L61.2452 48.5948C61.1087 48.8778 60.9091 49.2591 60.7886 49.444L60.5855 49.7841L60.3284 48.9711C59.7574 47.1952 58.3353 45.5865 55.9448 43.9826L55.2169 43.497L55.1507 43.6748C55.1155 43.772 55.1128 44.1506 55.1334 44.5134C55.208 45.4939 56.3572 49.1281 56.8649 49.9891C57.3529 50.8179 57.7791 51.3615 58.3101 51.8498L58.7621 52.2668L58.2137 52.8849C57.658 53.5099 57.4538 53.6981 57.5055 53.5341C57.5283 53.4869 57.5294 53.1927 57.5171 52.8857C57.5038 52.4268 57.4192 52.0995 57.0898 51.1769C56.6664 49.987 56.2837 49.3127 55.4578 48.3087C55.0786 47.8542 54.1896 46.9485 54.1369 46.9605C53.8733 47.0204 53.5978 48.9781 53.6252 50.6728C53.6469 52.29 53.7114 52.7321 54.1589 54.1476C54.4909 55.2271 54.6241 55.559 54.825 55.8073L55.0828 56.1162L54.54 56.6333C54.1203 57.0332 53.9968 57.119 54.0113 57.0159C54.158 55.6334 53.9418 54.4436 53.3128 53.1691C52.9663 52.4604 52.2809 51.4245 51.7654 50.8067C51.3878 50.357 50.4611 49.3917 50.3469 49.3284C50.1066 49.194 49.8023 50.7331 49.7377 52.3751C49.6304 55.3709 50.1757 58.0188 51.1582 59.2497C51.2946 59.4129 51.3839 59.5764 51.3581 59.6137C51.3022 59.7052 50.5259 60.228 49.8825 60.6052C49.5708 60.7811 49.207 61.0002 49.0746 61.088L48.8142 61.247L48.9373 60.862C49.2031 60.0352 49.3042 59.104 49.2497 58.0979C49.2086 57.4616 48.3939 54.8854 48.0495 54.3022C47.5583 53.4636 47.3538 53.1741 47.2835 53.1901C47.0287 53.248 46.2815 55.0242 45.833 56.6432C45.0565 59.4288 44.891 61.288 45.2947 62.8027L45.5073 63.5943L44.8732 63.9117C44.5336 64.0886 43.7868 64.4368 43.2178 64.692C42.6488 64.9473 42.1206 65.1829 42.0317 65.2293C41.9341 65.2777 42.0023 65.1362 42.2365 64.8048C43.9316 62.4825 44.5526 59.622 44.0916 56.2882C44.0514 55.9824 44.038 55.9697 43.8954 56.0546C43.2664 56.418 41.0347 59.277 39.7298 61.3741C39.5421 61.674 39.3829 61.9149 39.3741 61.9169C39.3653 61.9189 39.3519 61.817 39.3571 61.6846C39.3688 60.8577 38.9154 58.2624 38.7227 58.07C38.6302 57.986 38.6142 57.9949 38.3723 58.2126C38.0523 58.511 36.9336 60.1249 36.3204 61.1934C34.3831 64.5367 33.4056 67.431 33.5931 69.2152L33.6168 69.4986L32.5383 69.8697C28.4184 71.2836 24.4932 73.0155 21.5317 74.7279C20.5999 75.2651 20.2831 75.4841 19.8546 75.8859C19.5635 76.1568 19.3309 76.4039 19.3402 76.4333C19.3495 76.4627 19.5546 76.5158 19.7918 76.5511ZM43.6683 65.1934C44.4037 64.8688 45.0223 64.5917 45.0559 64.5788C45.0792 64.5631 45.1473 64.6893 45.2103 64.8587C45.2826 65.0575 45.4164 65.2424 45.6308 65.4142L45.9464 65.6679L45.4659 65.6669C44.6944 65.6689 43.1348 65.7398 42.7286 65.7954C42.5292 65.8197 42.3545 65.8332 42.3483 65.8136C42.3437 65.7989 42.9416 65.516 43.6683 65.1934ZM50.7825 60.9204C51.2425 60.6479 51.8085 60.2936 52.0498 60.1337L52.4845 59.8407L52.6545 59.9911C52.7454 60.0702 53.0414 60.2024 53.3101 60.2778C53.8681 60.4345 53.8495 60.465 53.0501 60.6467C52.4175 60.7904 50.771 61.301 50.1256 61.5527C49.8656 61.6538 49.5938 61.747 49.5323 61.761C49.3654 61.7989 49.8073 61.499 50.7825 60.9204ZM62.0976 49.325C62.2847 48.9938 62.5231 48.5564 62.6182 48.351L62.8018 47.9786L63.1733 48.0517C63.6156 48.1401 64.1871 48.131 64.8408 48.0245L65.3261 47.9509L64.6604 48.4067C63.7652 49.0301 62.3624 50.0733 61.5675 50.7159C61.2077 51.0077 60.8987 51.2511 60.8723 51.2571C60.8547 51.2611 61.044 50.9661 61.2937 50.5944C61.5537 50.2256 61.9104 49.6563 62.0976 49.325ZM51.4897 11.6384L51.7213 11.3286L51.7993 11.5156C52.0693 12.1314 52.5042 12.9408 52.7722 13.3419C52.9396 13.6031 53.0723 13.8144 53.0548 13.8184C53.046 13.8204 52.8977 13.7386 52.7313 13.6294C52.5056 13.4812 52.411 13.361 52.3305 13.1063C52.2267 12.7781 51.612 12.1146 51.3433 12.0392C51.209 12.0015 51.1961 12.0201 51.4897 11.6384ZM58.026 24.805C58.3562 24.8665 60.3425 24.9243 61.0649 24.8862C61.5099 24.8638 61.9227 24.8592 61.9775 24.8835C62.084 24.9223 62.6426 26.3913 62.5635 26.4093C62.5372 26.4153 62.2975 26.3122 62.0412 26.1867C61.4207 25.892 59.8143 25.3384 58.7514 25.0444C58.0002 24.8424 57.684 24.7358 58.026 24.805ZM59.6256 27.3919C59.7165 27.471 59.8048 27.5716 59.8172 27.6108C59.8296 27.65 59.7629 27.6179 59.672 27.5388C59.5811 27.4597 59.4928 27.359 59.4804 27.3199C59.468 27.2807 59.5346 27.3128 59.6256 27.3919ZM59.9024 27.7017C59.9231 27.7075 60.2641 27.9817 60.6691 28.3097C61.4673 28.9577 62.2965 29.5253 63.0213 29.9118C63.2822 30.052 63.509 30.1737 63.5416 30.1873C63.5669 30.2078 63.5716 30.2225 63.554 30.2265C63.4046 30.2604 61.9151 29.3914 61.2218 28.8665C60.4944 28.3231 59.734 27.6455 59.9024 27.7017ZM58.0018 19.4873C58.1548 19.4946 58.3201 19.541 58.3651 19.5938C58.4668 19.7072 58.4493 19.7111 58.0214 19.6089C57.6055 19.5144 57.59 19.4654 58.0018 19.4873Z" fill="white" stroke="#7DE9FF" stroke-width="2" mask="url(#path-1-inside-1_2_136)"/>
</g>
<defs>
<filter id="filter0_d_2_136" x="15.34" y="5.29175" width="63.9531" height="79.2948" filterUnits="userSpaceOnUse" color-interpolation-filters="sRGB">
<feFlood flood-opacity="0" result="BackgroundImageFix"/>
<feColorMatrix in="SourceAlpha" type="matrix" values="0 0 0 0 0 0 0 0 0 0 0 0 0 0 0 0 0 0 127 0" result="hardAlpha"/>
<feOffset dy="4"/>
<feGaussianBlur stdDeviation="2"/>
<feComposite in2="hardAlpha" operator="out"/>
<feColorMatrix type="matrix" values="0 0 0 0 0 0 0 0 0 0 0 0 0 0 0 0 0 0 0.25 0"/>
<feBlend mode="normal" in2="BackgroundImageFix" result="effect1_dropShadow_2_136"/>
<feBlend mode="normal" in="SourceGraphic" in2="effect1_dropShadow_2_136" result="shape"/>
</filter>
</defs>
</svg>
