<svg width="87" height="86" viewBox="0 0 87 86" fill="none" xmlns="http://www.w3.org/2000/svg">
<g filter="url(#filter0_d_2_133)">
<mask id="path-1-inside-1_2_133" fill="white">
<path d="M66.4352 77.1603C66.1908 77.1887 65.9407 77.2054 65.8704 77.1894C65.8089 77.1754 65.6523 77.0454 65.537 76.9037C65.2124 76.5307 64.5001 76.0434 63.1895 75.3045C60.1267 73.5849 57.0532 72.2565 52.2543 70.5781C51.0853 70.1654 50.1266 69.8321 50.1178 69.8301C50.109 69.8281 50.0781 69.9261 50.0569 70.0525C50.0415 70.1907 49.9087 70.402 49.7326 70.572C48.3998 71.928 43.5519 72.4591 38.2158 71.824C36.2372 71.5896 32.4802 70.9039 32.519 70.7814C32.5422 70.708 33.696 70.4242 34.7676 70.2215C39.601 69.3197 45.4669 68.9045 48.5194 69.2569C48.8289 69.2905 49.0873 69.3072 49.0847 69.2856C49.094 69.2562 48.373 68.7669 47.4799 68.1965C47.1046 67.9537 45.6415 67.1908 45.2431 67.0215C45.0927 66.961 45.0689 66.9766 44.9791 67.2607C44.5155 68.6673 40.5596 69.4745 35.5869 69.1792C34.2201 69.0944 32.5551 68.9103 31.0657 68.6768C29.8374 68.4817 27.4752 67.9712 27.4969 67.9026C27.5155 67.8438 28.3949 67.6237 29.3694 67.4304C29.8603 67.3372 30.2261 67.2524 30.1822 67.2424C30.1471 67.2344 29.6851 67.1767 29.1585 67.1147C28.6391 67.0597 27.6847 66.9216 27.0398 66.817C25.7938 66.6179 23.5386 66.1264 23.5588 66.0628C23.5897 65.9648 25.2282 65.6074 26.998 65.3114C29.9892 64.8152 33.5939 64.4636 36.0267 64.4232C37.1144 64.4079 38.8491 64.4609 39.3742 64.5277C39.5824 64.554 39.7586 64.5625 39.7664 64.538C39.7726 64.5185 39.5338 64.3802 39.2423 64.23C38.9493 64.0846 38.466 63.7963 38.174 63.5882C37.7176 63.2745 37.62 63.2261 37.5616 63.2916C37.17 63.6961 36.2591 63.9563 35.0975 63.9968C31.2891 64.1289 25.4308 62.3462 20.3126 59.5032C19.8015 59.2138 19.771 59.1912 19.9492 59.1634C20.2174 59.1194 21.1496 59.179 22.486 59.3304C23.7608 59.4678 25.9793 59.7777 26.3746 59.8675C26.8051 59.9654 26.6862 59.8649 26.0919 59.6301C23.8298 58.7433 20.8927 56.9839 18.589 55.127C17.2978 54.0882 17.1531 53.9503 17.321 53.9255C17.536 53.9008 19.0703 54.26 20.4672 54.6666C25.2604 56.0656 29.6517 57.7826 32.2886 59.3005L32.9656 59.6906L31.4315 58.2291L29.9061 56.7695L29.5486 56.8878C28.7668 57.1563 27.5721 56.9741 26.2252 56.3793C23.1419 55.0225 20.2607 52.0736 18.5384 48.5272L18.0947 47.6074L17.7097 47.4254C16.4057 46.8142 14.8025 45.8094 13.4426 44.7497C12.5211 44.031 10.8375 42.4463 10.9383 42.3957C11.0509 42.3373 11.607 42.4846 12.9181 42.9243C16.4628 44.1025 20.3658 45.8451 22.3685 47.1349C22.7205 47.3619 23.0146 47.5337 23.0192 47.519C23.0239 47.5043 22.8553 47.025 22.6412 46.4514C22.4255 45.8827 22.2341 45.3562 22.216 45.2944C22.1695 45.1736 22.1695 45.1736 21.676 45.1559C18.7119 45.0598 14.7972 42.1334 12.4149 38.2322C11.7748 37.1891 10.8813 35.2799 10.9417 35.0889C10.9866 34.9469 11.2771 35.0706 12.2291 35.6334C14.9626 37.2625 19.1115 40.4312 20.7387 42.1344C21.0018 42.4041 21.2246 42.6227 21.2437 42.6218C21.2556 42.614 21.1708 42.3165 21.0487 41.9581C20.7249 40.9868 20.2158 38.7555 20.1059 37.8223C20.0127 37.0452 19.9987 37 19.8122 36.9943C19.7078 36.9969 19.2814 36.9157 18.8685 36.8219C17.9373 36.6103 17.2794 36.3086 16.2762 35.6396C14.5184 34.4685 13.0023 32.8011 11.8695 30.785C11.5737 30.2611 10.9367 28.8511 10.9599 28.7777C10.9646 28.763 11.0555 28.7731 11.1609 28.7971C11.8023 28.9428 15.2832 31.335 17.2567 32.9856C17.9787 33.5907 19.3087 34.8641 19.6938 35.3138C19.8293 35.4811 19.9564 35.615 19.9668 35.6121C19.9771 35.6092 20.0122 35.3494 20.0348 35.0396C20.059 34.7248 20.206 33.9918 20.3552 33.401L20.6385 32.3262L20.2158 32.2039C19.5796 32.0121 18.8798 31.5748 18.2647 30.9888C16.5409 29.3529 15.6689 26.7504 15.9181 23.967C15.9505 23.5963 16.0124 23.2219 16.0579 23.1378L16.1369 22.9772L16.4108 23.2127C17.3169 23.9803 19.2473 26.6606 20.3031 28.6224L20.7668 29.4785L20.9244 29.1888C21.1046 28.857 21.4011 28.5149 21.8361 28.1518C22.1058 27.9244 22.1724 27.803 22.5999 26.6297L23.0583 25.3585L22.8651 25.3146C22.215 25.1668 21.0391 24.1804 20.3799 23.2275C19.224 21.5526 18.7546 19.4038 18.9709 16.8439C19.0461 16.0105 19.1307 15.594 19.2273 15.616C19.2625 15.624 19.4485 15.7502 19.6475 15.8952C20.4884 16.5115 21.5947 17.8076 22.395 19.1181C22.9047 19.9479 23.7797 21.8266 24.0202 22.5847C24.1236 22.9127 24.2374 23.1486 24.2673 23.1134C24.3061 23.0802 24.6269 22.6911 24.9822 22.2521C25.3376 21.8132 25.8067 21.253 26.0267 21.0038L26.441 20.5572L26.2193 20.4544C25.7831 20.2555 25.597 20.1292 25.2337 19.7894C23.7398 18.379 23.4838 15.7642 24.5846 13.1166C24.9301 12.2921 25.4419 11.3585 25.6139 11.2611C25.7534 11.1773 25.8888 11.3446 26.1888 11.9744C26.9121 13.4985 27.6204 16.2318 27.6979 17.8033C27.7135 18.1113 27.7291 18.4193 27.7353 18.489C27.7426 18.5851 27.8495 18.5149 28.191 18.2093C28.4328 17.9808 28.8698 17.6706 29.1633 17.5168C29.4702 17.3503 30.0695 16.9143 30.5866 16.4701C31.0768 16.0513 31.5222 15.6852 31.5785 15.656C31.6498 15.6092 31.5862 15.5423 31.2745 15.3665C30.5479 14.9546 30.1487 14.192 30.1634 13.2818C30.1762 12.765 30.5773 11.5858 30.9394 11.0066C31.7317 9.72194 33.0991 8.40527 34.7642 7.30848C35.0612 7.1135 35.3563 6.9548 35.4152 6.94719C35.5624 6.92815 35.6163 7.23437 35.556 7.87164C35.5292 8.16478 35.521 8.39916 35.5329 8.39136C35.5448 8.38356 35.7359 8.19601 35.9482 7.97127C36.6632 7.19928 38.4574 5.8431 38.6739 5.9028C39.1788 6.03328 38.2121 9.65637 37.1745 11.4785L37.0444 11.7114L37.7688 11.5348C38.4741 11.3591 38.486 11.3513 38.4937 11.1483C38.5124 9.8086 40.5913 8.38587 43.879 7.45832C45.0881 7.11885 46.4124 6.83182 46.5969 6.87374C46.7287 6.90369 46.706 6.94577 46.3645 7.34065C45.6501 8.17051 44.168 9.40337 42.8356 10.2818L41.9681 10.8511L42.7551 10.8042C44.341 10.7026 48.0243 10.7574 48.0517 10.8791C48.1071 11.0912 45.5904 12.1414 42.9119 13.0184C40.8301 13.7056 38.6744 14.2394 36.9036 14.509C36.0418 14.6439 34.2869 14.7438 34.1309 14.6716C34.0244 14.6212 33.6974 14.8513 32.5376 15.7795C31.5503 16.5788 31.5477 16.5572 32.5233 16.3012C34.1142 15.8858 36.2307 15.595 38.4397 15.488C39.5 15.4402 40.9598 15.4097 41.0916 15.4397C41.2146 15.4676 40.7713 15.7973 40.1307 16.1557C38.1762 17.2445 35.0798 18.52 32.5841 19.2653C31.8871 19.4744 31.4231 19.6315 31.5585 19.6203C32.7098 19.4934 34.4755 19.4484 36.1073 19.499C37.2442 19.5368 39.597 19.7197 39.9572 19.8016L40.1592 19.8475L39.9531 19.9634C39.0128 20.4952 34.7609 21.7024 31.9024 22.255C29.7178 22.672 27.3067 22.9116 26.0397 22.8389C25.6051 22.8136 25.6423 22.7853 25.2296 23.4055C24.8562 23.9611 24.8619 23.9729 25.3248 23.7894C26.0745 23.503 27.1477 23.2954 28.453 23.1878C30.7927 22.995 33.1362 23.1181 36.1691 23.592L36.5913 23.6565L36.4249 23.7656C35.9527 24.0678 32.2169 24.8936 29.9826 25.1995L28.8427 25.35L28.7431 25.6056C28.4137 26.4389 26.8779 28.1688 25.4857 29.2961C24.6488 29.9774 23.5018 30.6565 22.5759 31.0235C22.3171 31.1274 22.2587 31.1929 22.1208 31.5396C22.0336 31.756 21.9938 31.9412 22.0202 31.9472C22.0465 31.9532 22.1964 31.8665 22.3643 31.7524C22.852 31.4012 24.5177 30.6301 25.5759 30.2616C26.6459 29.8852 28.3417 29.4359 29.5638 29.2044C30.2949 29.066 30.314 29.0651 30.3032 29.1887C30.2806 29.4985 28.5319 31.1275 26.9624 32.309C25.2173 33.6291 23.2747 34.7101 21.8284 35.1742L21.1769 35.3883L21.1688 36.069C21.165 36.8555 21.3261 38.3411 21.5124 39.1813L21.6397 39.7615L21.8933 39.3466C22.9133 37.699 24.926 36.0093 27.4711 34.661L28.1278 34.3115L28.1955 34.4844C28.2757 34.7073 27.4203 37.4423 26.9581 38.3977C25.8148 40.7627 24.5219 42.4691 23.2055 43.3564L22.8118 43.6186L22.9835 44.0881C23.1651 44.5861 23.2545 44.6012 23.413 44.1595C23.762 43.2046 25.3566 41.3778 26.8476 40.2362C27.4949 39.7376 28.6609 38.9684 28.74 38.9863C28.8366 39.0083 28.8522 39.1378 28.8255 39.6987C28.7382 41.3745 27.8715 44.3536 27.0038 45.9361C26.4058 47.0234 25.7379 47.8848 25.0813 48.4128L24.7284 48.6949L24.9818 49.2039C25.1183 49.4869 25.3179 49.8683 25.4384 50.0531L25.6415 50.3933L25.8986 49.5802C26.4696 47.8044 27.8917 46.1956 30.2821 44.5917L31.0101 44.1061L31.0763 44.2839C31.1114 44.3812 31.1141 44.7598 31.0936 45.1226C31.019 46.103 29.8698 49.7372 29.3621 50.5983C28.8741 51.4271 28.4479 51.9707 27.9169 52.459L27.4649 52.876L28.0133 53.4941C28.569 54.1191 28.7732 54.3072 28.7214 54.1432C28.6987 54.096 28.6976 53.8018 28.7099 53.4949C28.7232 53.0359 28.8078 52.7087 29.1372 51.7861C29.5606 50.5961 29.9433 49.9219 30.7692 48.9179C31.1484 48.4633 32.0374 47.5577 32.0901 47.5696C32.3537 47.6295 32.6292 49.5873 32.6018 51.2819C32.5801 52.8992 32.5156 53.3412 32.068 54.7567C31.7361 55.8362 31.6029 56.1681 31.402 56.4165L31.1442 56.7254L31.6869 57.2424C32.1067 57.6423 32.2302 57.7281 32.2157 57.6251C32.069 56.2426 32.2852 55.0528 32.9142 53.7783C33.2607 53.0696 33.9461 52.0336 34.4616 51.4158C34.8392 50.9662 35.7659 50.0008 35.8801 49.9375C36.1203 49.8031 36.4247 51.3422 36.4893 52.9843C36.5966 55.98 36.0513 58.6279 35.0688 59.8588C34.9324 60.022 34.8431 60.1855 34.8689 60.2229C34.9248 60.3143 35.7011 60.8372 36.3445 61.2144C36.6562 61.3902 37.02 61.6094 37.1523 61.6972L37.4128 61.8561L37.2897 61.4712C37.0239 60.6443 36.9228 59.7131 36.9773 58.7071C37.0184 58.0707 37.833 55.4945 38.1775 54.9113C38.6687 54.0727 38.8732 53.7832 38.9435 53.7992C39.1983 53.8571 39.9455 55.6333 40.394 57.2524C41.1705 60.0379 41.3359 61.8971 40.9323 63.4118L40.7197 64.2034L41.3538 64.5208C41.6934 64.6977 42.4402 65.0459 43.0092 65.3012C43.5782 65.5565 44.1064 65.792 44.1953 65.8384C44.2929 65.8869 44.2247 65.7454 43.9905 65.4139C42.2954 63.0916 41.6744 60.2312 42.1353 56.8974C42.1756 56.5915 42.189 56.5788 42.3316 56.6637C42.9606 57.0271 45.1923 59.8861 46.4972 61.9833C46.6848 62.2832 46.8441 62.5241 46.8529 62.5261C46.8617 62.5281 46.8751 62.4261 46.8698 62.2937C46.8582 61.4669 47.3116 58.8715 47.5043 58.6791C47.5968 58.5951 47.6128 58.604 47.8547 58.8217C48.1747 59.1202 49.2934 60.734 49.9066 61.8026C51.8438 65.1459 52.8214 68.0401 52.6338 69.8244L52.6102 70.1077L53.6887 70.4788C57.8086 71.8927 61.7338 73.6246 64.6953 75.337C65.6271 75.8742 65.9439 76.0932 66.3724 76.4951C66.6634 76.7659 66.8961 77.013 66.8868 77.0424C66.8775 77.0718 66.6723 77.1249 66.4352 77.1603ZM42.5587 65.8025C41.8233 65.4779 41.2047 65.2009 41.1711 65.188C41.1478 65.1722 41.0797 65.2984 41.0167 65.4679C40.9444 65.6667 40.8106 65.8515 40.5962 66.0233L40.2806 66.277L40.7611 66.276C41.5326 66.2781 43.0922 66.349 43.4984 66.4045C43.6978 66.4289 43.8725 66.4423 43.8787 66.4227C43.8833 66.408 43.2854 66.1251 42.5587 65.8025ZM35.4445 61.5296C34.9845 61.2571 34.4185 60.9027 34.1772 60.7429L33.7425 60.4499L33.5725 60.6002C33.4816 60.6793 33.1856 60.8115 32.9169 60.887C32.3589 61.0436 32.3775 61.0741 33.1769 61.2558C33.8095 61.3995 35.456 61.9102 36.1014 62.1618C36.3614 62.2629 36.6332 62.3562 36.6947 62.3701C36.8616 62.4081 36.4197 62.1082 35.4445 61.5296ZM24.1294 49.9342C23.9422 49.6029 23.7039 49.1655 23.6087 48.9602L23.4252 48.5877L23.0537 48.6608C22.6114 48.7493 22.0399 48.7401 21.3861 48.6336L20.9009 48.5601L21.5666 49.0158C22.4618 49.6392 23.8646 50.6824 24.6595 51.325C25.0192 51.6168 25.3283 51.8603 25.3547 51.8662C25.3723 51.8702 25.183 51.5753 24.9333 51.2035C24.6733 50.8347 24.3166 50.2654 24.1294 49.9342ZM34.7373 12.2476L34.5057 11.9377L34.4277 12.1247C34.1577 12.7406 33.7228 13.55 33.4547 13.951C33.2874 14.2122 33.1547 14.4235 33.1722 14.4275C33.181 14.4295 33.3293 14.3477 33.4957 14.2385C33.7214 14.0904 33.816 13.9701 33.8965 13.7154C34.0002 13.3873 34.615 12.7237 34.8836 12.6483C35.018 12.6106 35.0309 12.6293 34.7373 12.2476ZM28.201 25.4142C27.8708 25.4756 25.8845 25.5335 25.162 25.4953C24.7171 25.4729 24.3042 25.4684 24.2495 25.4927C24.143 25.5315 23.5844 27.0004 23.6634 27.0184C23.6898 27.0244 23.9295 26.9214 24.1858 26.7959C24.8063 26.5012 26.4127 25.9475 27.4755 25.6535C28.2268 25.4515 28.543 25.3449 28.201 25.4142ZM26.6014 28.001C26.5105 28.0801 26.4222 28.1808 26.4098 28.2199C26.3974 28.2591 26.464 28.227 26.555 28.1479C26.6459 28.0688 26.7342 27.9682 26.7466 27.929C26.759 27.8898 26.6923 27.9219 26.6014 28.001ZM26.3245 28.3108C26.3039 28.3166 25.9629 28.5909 25.5579 28.9188C24.7597 29.5669 23.9305 30.1344 23.2057 30.5209C22.9448 30.6611 22.7179 30.7828 22.6854 30.7964C22.6601 30.8169 22.6554 30.8316 22.673 30.8356C22.8224 30.8695 24.3118 30.0006 25.0052 29.4757C25.7326 28.9322 26.493 28.2546 26.3245 28.3108ZM28.2252 20.0965C28.0722 20.1037 27.9069 20.1501 27.8619 20.2029C27.7602 20.3163 27.7777 20.3203 28.2056 20.218C28.6215 20.1235 28.637 20.0746 28.2252 20.0965Z"/>
</mask>
<path d="M66.4352 77.1603C66.1908 77.1887 65.9407 77.2054 65.8704 77.1894C65.8089 77.1754 65.6523 77.0454 65.537 76.9037C65.2124 76.5307 64.5001 76.0434 63.1895 75.3045C60.1267 73.5849 57.0532 72.2565 52.2543 70.5781C51.0853 70.1654 50.1266 69.8321 50.1178 69.8301C50.109 69.8281 50.0781 69.9261 50.0569 70.0525C50.0415 70.1907 49.9087 70.402 49.7326 70.572C48.3998 71.928 43.5519 72.4591 38.2158 71.824C36.2372 71.5896 32.4802 70.9039 32.519 70.7814C32.5422 70.708 33.696 70.4242 34.7676 70.2215C39.601 69.3197 45.4669 68.9045 48.5194 69.2569C48.8289 69.2905 49.0873 69.3072 49.0847 69.2856C49.094 69.2562 48.373 68.7669 47.4799 68.1965C47.1046 67.9537 45.6415 67.1908 45.2431 67.0215C45.0927 66.961 45.0689 66.9766 44.9791 67.2607C44.5155 68.6673 40.5596 69.4745 35.5869 69.1792C34.2201 69.0944 32.5551 68.9103 31.0657 68.6768C29.8374 68.4817 27.4752 67.9712 27.4969 67.9026C27.5155 67.8438 28.3949 67.6237 29.3694 67.4304C29.8603 67.3372 30.2261 67.2524 30.1822 67.2424C30.1471 67.2344 29.6851 67.1767 29.1585 67.1147C28.6391 67.0597 27.6847 66.9216 27.0398 66.817C25.7938 66.6179 23.5386 66.1264 23.5588 66.0628C23.5897 65.9648 25.2282 65.6074 26.998 65.3114C29.9892 64.8152 33.5939 64.4636 36.0267 64.4232C37.1144 64.4079 38.8491 64.4609 39.3742 64.5277C39.5824 64.554 39.7586 64.5625 39.7664 64.538C39.7726 64.5185 39.5338 64.3802 39.2423 64.23C38.9493 64.0846 38.466 63.7963 38.174 63.5882C37.7176 63.2745 37.62 63.2261 37.5616 63.2916C37.17 63.6961 36.2591 63.9563 35.0975 63.9968C31.2891 64.1289 25.4308 62.3462 20.3126 59.5032C19.8015 59.2138 19.771 59.1912 19.9492 59.1634C20.2174 59.1194 21.1496 59.179 22.486 59.3304C23.7608 59.4678 25.9793 59.7777 26.3746 59.8675C26.8051 59.9654 26.6862 59.8649 26.0919 59.6301C23.8298 58.7433 20.8927 56.9839 18.589 55.127C17.2978 54.0882 17.1531 53.9503 17.321 53.9255C17.536 53.9008 19.0703 54.26 20.4672 54.6666C25.2604 56.0656 29.6517 57.7826 32.2886 59.3005L32.9656 59.6906L31.4315 58.2291L29.9061 56.7695L29.5486 56.8878C28.7668 57.1563 27.5721 56.9741 26.2252 56.3793C23.1419 55.0225 20.2607 52.0736 18.5384 48.5272L18.0947 47.6074L17.7097 47.4254C16.4057 46.8142 14.8025 45.8094 13.4426 44.7497C12.5211 44.031 10.8375 42.4463 10.9383 42.3957C11.0509 42.3373 11.607 42.4846 12.9181 42.9243C16.4628 44.1025 20.3658 45.8451 22.3685 47.1349C22.7205 47.3619 23.0146 47.5337 23.0192 47.519C23.0239 47.5043 22.8553 47.025 22.6412 46.4514C22.4255 45.8827 22.2341 45.3562 22.216 45.2944C22.1695 45.1736 22.1695 45.1736 21.676 45.1559C18.7119 45.0598 14.7972 42.1334 12.4149 38.2322C11.7748 37.1891 10.8813 35.2799 10.9417 35.0889C10.9866 34.9469 11.2771 35.0706 12.2291 35.6334C14.9626 37.2625 19.1115 40.4312 20.7387 42.1344C21.0018 42.4041 21.2246 42.6227 21.2437 42.6218C21.2556 42.614 21.1708 42.3165 21.0487 41.9581C20.7249 40.9868 20.2158 38.7555 20.1059 37.8223C20.0127 37.0452 19.9987 37 19.8122 36.9943C19.7078 36.9969 19.2814 36.9157 18.8685 36.8219C17.9373 36.6103 17.2794 36.3086 16.2762 35.6396C14.5184 34.4685 13.0023 32.8011 11.8695 30.785C11.5737 30.2611 10.9367 28.8511 10.9599 28.7777C10.9646 28.763 11.0555 28.7731 11.1609 28.7971C11.8023 28.9428 15.2832 31.335 17.2567 32.9856C17.9787 33.5907 19.3087 34.8641 19.6938 35.3138C19.8293 35.4811 19.9564 35.615 19.9668 35.6121C19.9771 35.6092 20.0122 35.3494 20.0348 35.0396C20.059 34.7248 20.206 33.9918 20.3552 33.401L20.6385 32.3262L20.2158 32.2039C19.5796 32.0121 18.8798 31.5748 18.2647 30.9888C16.5409 29.3529 15.6689 26.7504 15.9181 23.967C15.9505 23.5963 16.0124 23.2219 16.0579 23.1378L16.1369 22.9772L16.4108 23.2127C17.3169 23.9803 19.2473 26.6606 20.3031 28.6224L20.7668 29.4785L20.9244 29.1888C21.1046 28.857 21.4011 28.5149 21.8361 28.1518C22.1058 27.9244 22.1724 27.803 22.5999 26.6297L23.0583 25.3585L22.8651 25.3146C22.215 25.1668 21.0391 24.1804 20.3799 23.2275C19.224 21.5526 18.7546 19.4038 18.9709 16.8439C19.0461 16.0105 19.1307 15.594 19.2273 15.616C19.2625 15.624 19.4485 15.7502 19.6475 15.8952C20.4884 16.5115 21.5947 17.8076 22.395 19.1181C22.9047 19.9479 23.7797 21.8266 24.0202 22.5847C24.1236 22.9127 24.2374 23.1486 24.2673 23.1134C24.3061 23.0802 24.6269 22.6911 24.9822 22.2521C25.3376 21.8132 25.8067 21.253 26.0267 21.0038L26.441 20.5572L26.2193 20.4544C25.7831 20.2555 25.597 20.1292 25.2337 19.7894C23.7398 18.379 23.4838 15.7642 24.5846 13.1166C24.9301 12.2921 25.4419 11.3585 25.6139 11.2611C25.7534 11.1773 25.8888 11.3446 26.1888 11.9744C26.9121 13.4985 27.6204 16.2318 27.6979 17.8033C27.7135 18.1113 27.7291 18.4193 27.7353 18.489C27.7426 18.5851 27.8495 18.5149 28.191 18.2093C28.4328 17.9808 28.8698 17.6706 29.1633 17.5168C29.4702 17.3503 30.0695 16.9143 30.5866 16.4701C31.0768 16.0513 31.5222 15.6852 31.5785 15.656C31.6498 15.6092 31.5862 15.5423 31.2745 15.3665C30.5479 14.9546 30.1487 14.192 30.1634 13.2818C30.1762 12.765 30.5773 11.5858 30.9394 11.0066C31.7317 9.72194 33.0991 8.40527 34.7642 7.30848C35.0612 7.1135 35.3563 6.9548 35.4152 6.94719C35.5624 6.92815 35.6163 7.23437 35.556 7.87164C35.5292 8.16478 35.521 8.39916 35.5329 8.39136C35.5448 8.38356 35.7359 8.19601 35.9482 7.97127C36.6632 7.19928 38.4574 5.8431 38.6739 5.9028C39.1788 6.03328 38.2121 9.65637 37.1745 11.4785L37.0444 11.7114L37.7688 11.5348C38.4741 11.3591 38.486 11.3513 38.4937 11.1483C38.5124 9.8086 40.5913 8.38587 43.879 7.45832C45.0881 7.11885 46.4124 6.83182 46.5969 6.87374C46.7287 6.90369 46.706 6.94577 46.3645 7.34065C45.6501 8.17051 44.168 9.40337 42.8356 10.2818L41.9681 10.8511L42.7551 10.8042C44.341 10.7026 48.0243 10.7574 48.0517 10.8791C48.1071 11.0912 45.5904 12.1414 42.9119 13.0184C40.8301 13.7056 38.6744 14.2394 36.9036 14.509C36.0418 14.6439 34.2869 14.7438 34.1309 14.6716C34.0244 14.6212 33.6974 14.8513 32.5376 15.7795C31.5503 16.5788 31.5477 16.5572 32.5233 16.3012C34.1142 15.8858 36.2307 15.595 38.4397 15.488C39.5 15.4402 40.9598 15.4097 41.0916 15.4397C41.2146 15.4676 40.7713 15.7973 40.1307 16.1557C38.1762 17.2445 35.0798 18.52 32.5841 19.2653C31.8871 19.4744 31.4231 19.6315 31.5585 19.6203C32.7098 19.4934 34.4755 19.4484 36.1073 19.499C37.2442 19.5368 39.597 19.7197 39.9572 19.8016L40.1592 19.8475L39.9531 19.9634C39.0128 20.4952 34.7609 21.7024 31.9024 22.255C29.7178 22.672 27.3067 22.9116 26.0397 22.8389C25.6051 22.8136 25.6423 22.7853 25.2296 23.4055C24.8562 23.9611 24.8619 23.9729 25.3248 23.7894C26.0745 23.503 27.1477 23.2954 28.453 23.1878C30.7927 22.995 33.1362 23.1181 36.1691 23.592L36.5913 23.6565L36.4249 23.7656C35.9527 24.0678 32.2169 24.8936 29.9826 25.1995L28.8427 25.35L28.7431 25.6056C28.4137 26.4389 26.8779 28.1688 25.4857 29.2961C24.6488 29.9774 23.5018 30.6565 22.5759 31.0235C22.3171 31.1274 22.2587 31.1929 22.1208 31.5396C22.0336 31.756 21.9938 31.9412 22.0202 31.9472C22.0465 31.9532 22.1964 31.8665 22.3643 31.7524C22.852 31.4012 24.5177 30.6301 25.5759 30.2616C26.6459 29.8852 28.3417 29.4359 29.5638 29.2044C30.2949 29.066 30.314 29.0651 30.3032 29.1887C30.2806 29.4985 28.5319 31.1275 26.9624 32.309C25.2173 33.6291 23.2747 34.7101 21.8284 35.1742L21.1769 35.3883L21.1688 36.069C21.165 36.8555 21.3261 38.3411 21.5124 39.1813L21.6397 39.7615L21.8933 39.3466C22.9133 37.699 24.926 36.0093 27.4711 34.661L28.1278 34.3115L28.1955 34.4844C28.2757 34.7073 27.4203 37.4423 26.9581 38.3977C25.8148 40.7627 24.5219 42.4691 23.2055 43.3564L22.8118 43.6186L22.9835 44.0881C23.1651 44.5861 23.2545 44.6012 23.413 44.1595C23.762 43.2046 25.3566 41.3778 26.8476 40.2362C27.4949 39.7376 28.6609 38.9684 28.74 38.9863C28.8366 39.0083 28.8522 39.1378 28.8255 39.6987C28.7382 41.3745 27.8715 44.3536 27.0038 45.9361C26.4058 47.0234 25.7379 47.8848 25.0813 48.4128L24.7284 48.6949L24.9818 49.2039C25.1183 49.4869 25.3179 49.8683 25.4384 50.0531L25.6415 50.3933L25.8986 49.5802C26.4696 47.8044 27.8917 46.1956 30.2821 44.5917L31.0101 44.1061L31.0763 44.2839C31.1114 44.3812 31.1141 44.7598 31.0936 45.1226C31.019 46.103 29.8698 49.7372 29.3621 50.5983C28.8741 51.4271 28.4479 51.9707 27.9169 52.459L27.4649 52.876L28.0133 53.4941C28.569 54.1191 28.7732 54.3072 28.7214 54.1432C28.6987 54.096 28.6976 53.8018 28.7099 53.4949C28.7232 53.0359 28.8078 52.7087 29.1372 51.7861C29.5606 50.5961 29.9433 49.9219 30.7692 48.9179C31.1484 48.4633 32.0374 47.5577 32.0901 47.5696C32.3537 47.6295 32.6292 49.5873 32.6018 51.2819C32.5801 52.8992 32.5156 53.3412 32.068 54.7567C31.7361 55.8362 31.6029 56.1681 31.402 56.4165L31.1442 56.7254L31.6869 57.2424C32.1067 57.6423 32.2302 57.7281 32.2157 57.6251C32.069 56.2426 32.2852 55.0528 32.9142 53.7783C33.2607 53.0696 33.9461 52.0336 34.4616 51.4158C34.8392 50.9662 35.7659 50.0008 35.8801 49.9375C36.1203 49.8031 36.4247 51.3422 36.4893 52.9843C36.5966 55.98 36.0513 58.6279 35.0688 59.8588C34.9324 60.022 34.8431 60.1855 34.8689 60.2229C34.9248 60.3143 35.7011 60.8372 36.3445 61.2144C36.6562 61.3902 37.02 61.6094 37.1523 61.6972L37.4128 61.8561L37.2897 61.4712C37.0239 60.6443 36.9228 59.7131 36.9773 58.7071C37.0184 58.0707 37.833 55.4945 38.1775 54.9113C38.6687 54.0727 38.8732 53.7832 38.9435 53.7992C39.1983 53.8571 39.9455 55.6333 40.394 57.2524C41.1705 60.0379 41.3359 61.8971 40.9323 63.4118L40.7197 64.2034L41.3538 64.5208C41.6934 64.6977 42.4402 65.0459 43.0092 65.3012C43.5782 65.5565 44.1064 65.792 44.1953 65.8384C44.2929 65.8869 44.2247 65.7454 43.9905 65.4139C42.2954 63.0916 41.6744 60.2312 42.1353 56.8974C42.1756 56.5915 42.189 56.5788 42.3316 56.6637C42.9606 57.0271 45.1923 59.8861 46.4972 61.9833C46.6848 62.2832 46.8441 62.5241 46.8529 62.5261C46.8617 62.5281 46.8751 62.4261 46.8698 62.2937C46.8582 61.4669 47.3116 58.8715 47.5043 58.6791C47.5968 58.5951 47.6128 58.604 47.8547 58.8217C48.1747 59.1202 49.2934 60.734 49.9066 61.8026C51.8438 65.1459 52.8214 68.0401 52.6338 69.8244L52.6102 70.1077L53.6887 70.4788C57.8086 71.8927 61.7338 73.6246 64.6953 75.337C65.6271 75.8742 65.9439 76.0932 66.3724 76.4951C66.6634 76.7659 66.8961 77.013 66.8868 77.0424C66.8775 77.0718 66.6723 77.1249 66.4352 77.1603ZM42.5587 65.8025C41.8233 65.4779 41.2047 65.2009 41.1711 65.188C41.1478 65.1722 41.0797 65.2984 41.0167 65.4679C40.9444 65.6667 40.8106 65.8515 40.5962 66.0233L40.2806 66.277L40.7611 66.276C41.5326 66.2781 43.0922 66.349 43.4984 66.4045C43.6978 66.4289 43.8725 66.4423 43.8787 66.4227C43.8833 66.408 43.2854 66.1251 42.5587 65.8025ZM35.4445 61.5296C34.9845 61.2571 34.4185 60.9027 34.1772 60.7429L33.7425 60.4499L33.5725 60.6002C33.4816 60.6793 33.1856 60.8115 32.9169 60.887C32.3589 61.0436 32.3775 61.0741 33.1769 61.2558C33.8095 61.3995 35.456 61.9102 36.1014 62.1618C36.3614 62.2629 36.6332 62.3562 36.6947 62.3701C36.8616 62.4081 36.4197 62.1082 35.4445 61.5296ZM24.1294 49.9342C23.9422 49.6029 23.7039 49.1655 23.6087 48.9602L23.4252 48.5877L23.0537 48.6608C22.6114 48.7493 22.0399 48.7401 21.3861 48.6336L20.9009 48.5601L21.5666 49.0158C22.4618 49.6392 23.8646 50.6824 24.6595 51.325C25.0192 51.6168 25.3283 51.8603 25.3547 51.8662C25.3723 51.8702 25.183 51.5753 24.9333 51.2035C24.6733 50.8347 24.3166 50.2654 24.1294 49.9342ZM34.7373 12.2476L34.5057 11.9377L34.4277 12.1247C34.1577 12.7406 33.7228 13.55 33.4547 13.951C33.2874 14.2122 33.1547 14.4235 33.1722 14.4275C33.181 14.4295 33.3293 14.3477 33.4957 14.2385C33.7214 14.0904 33.816 13.9701 33.8965 13.7154C34.0002 13.3873 34.615 12.7237 34.8836 12.6483C35.018 12.6106 35.0309 12.6293 34.7373 12.2476ZM28.201 25.4142C27.8708 25.4756 25.8845 25.5335 25.162 25.4953C24.7171 25.4729 24.3042 25.4684 24.2495 25.4927C24.143 25.5315 23.5844 27.0004 23.6634 27.0184C23.6898 27.0244 23.9295 26.9214 24.1858 26.7959C24.8063 26.5012 26.4127 25.9475 27.4755 25.6535C28.2268 25.4515 28.543 25.3449 28.201 25.4142ZM26.6014 28.001C26.5105 28.0801 26.4222 28.1808 26.4098 28.2199C26.3974 28.2591 26.464 28.227 26.555 28.1479C26.6459 28.0688 26.7342 27.9682 26.7466 27.929C26.759 27.8898 26.6923 27.9219 26.6014 28.001ZM26.3245 28.3108C26.3039 28.3166 25.9629 28.5909 25.5579 28.9188C24.7597 29.5669 23.9305 30.1344 23.2057 30.5209C22.9448 30.6611 22.7179 30.7828 22.6854 30.7964C22.6601 30.8169 22.6554 30.8316 22.673 30.8356C22.8224 30.8695 24.3118 30.0006 25.0052 29.4757C25.7326 28.9322 26.493 28.2546 26.3245 28.3108ZM28.2252 20.0965C28.0722 20.1037 27.9069 20.1501 27.8619 20.2029C27.7602 20.3163 27.7777 20.3203 28.2056 20.218C28.6215 20.1235 28.637 20.0746 28.2252 20.0965Z" fill="white" stroke="#7DE9FF" stroke-width="2" mask="url(#path-1-inside-1_2_133)"/>
</g>
<defs>
<filter id="filter0_d_2_133" x="6.93396" y="5.90088" width="63.9531" height="79.2948" filterUnits="userSpaceOnUse" color-interpolation-filters="sRGB">
<feFlood flood-opacity="0" result="BackgroundImageFix"/>
<feColorMatrix in="SourceAlpha" type="matrix" values="0 0 0 0 0 0 0 0 0 0 0 0 0 0 0 0 0 0 127 0" result="hardAlpha"/>
<feOffset dy="4"/>
<feGaussianBlur stdDeviation="2"/>
<feComposite in2="hardAlpha" operator="out"/>
<feColorMatrix type="matrix" values="0 0 0 0 0 0 0 0 0 0 0 0 0 0 0 0 0 0 0.25 0"/>
<feBlend mode="normal" in2="BackgroundImageFix" result="effect1_dropShadow_2_133"/>
<feBlend mode="normal" in="SourceGraphic" in2="effect1_dropShadow_2_133" result="shape"/>
</filter>
</defs>
</svg>
