<svg width="33" height="26" viewBox="0 0 33 26" fill="none" xmlns="http://www.w3.org/2000/svg">
<path d="M32.2092 21.6618C30.9772 21.4992 29.7968 20.9507 28.8914 20.1109C28.0835 19.3591 26.9317 19.3456 26.1295 20.1109C23.9578 22.1697 19.9868 22.1697 17.7806 20.0093C17.0071 19.2508 15.8897 19.393 15.1047 20.1312C12.9272 22.1697 8.97914 22.1629 6.7845 20.0161C6.01093 19.2575 4.87636 19.4133 4.0856 20.1515C3.19742 20.9777 2.02274 21.5128 0.7793 21.6685C0.326618 21.7227 0 22.1968 0 22.7318V24.9125C0 25.5288 0.435491 26.0503 0.956935 25.9961C2.60722 25.8268 4.17155 25.2241 5.50667 24.2421C8.74421 26.5853 13.357 26.5515 16.5086 24.2421C19.7461 26.5853 24.3589 26.5515 27.5104 24.2421C28.8456 25.2037 30.4271 25.82 32.043 25.9894C32.5644 26.0435 32.9999 25.5221 32.9999 24.9058V22.7657C33.0057 22.2239 32.6733 21.7227 32.2092 21.6618ZM32.2092 11.9094C30.9772 11.7469 29.7968 11.1983 28.8914 10.3586C28.0835 9.60682 26.9317 9.59327 26.1295 10.3586C23.9578 12.4174 19.9868 12.4174 17.7806 10.257C17.0071 9.49846 15.8897 9.64068 15.1047 10.3789C12.9272 12.4174 8.97914 12.4106 6.7845 10.2637C6.01093 9.50523 4.87636 9.661 4.0856 10.3992C3.19742 11.2254 2.02274 11.7605 0.7793 11.9162C0.326618 11.9704 0 12.4445 0 12.9795V15.1602C0 15.7765 0.435491 16.298 0.956935 16.2438C2.60722 16.0745 4.17155 15.4718 5.50667 14.4897C8.74421 16.833 13.357 16.7992 16.5086 14.4897C19.7461 16.833 24.3589 16.7992 27.5104 14.4897C28.8456 15.4514 30.4271 16.0677 32.043 16.237C32.5644 16.2912 32.9999 15.7697 32.9999 15.1534V13.0134C33.0057 12.4716 32.6733 11.9704 32.2092 11.9094ZM32.2092 2.15713C30.9772 1.98782 29.7968 1.44603 28.8914 0.606244C28.0835 -0.145496 26.9317 -0.159041 26.1295 0.606244C23.9578 2.66507 19.9868 2.66507 17.7806 0.504658C17.0071 -0.253855 15.8897 -0.111634 15.1047 0.626562C12.9272 2.66507 8.97914 2.65829 6.7845 0.51143C6.01093 -0.247083 4.87636 -0.091317 4.0856 0.646879C3.19742 1.47312 2.02274 2.00814 0.7793 2.16391C0.326618 2.21809 0 2.69216 0 3.22718V5.4079C0 6.0242 0.435491 6.54567 0.956935 6.49149C2.60722 6.32218 4.17155 5.71944 5.50667 4.73743C8.74421 7.0807 13.357 7.04684 16.5086 4.73743C19.7461 7.0807 24.3589 7.04684 27.5104 4.73743C28.8456 5.69912 30.4271 6.31541 32.043 6.48472C32.5644 6.5389 32.9999 6.01742 32.9999 5.40113V3.26104C33.0057 2.71925 32.6733 2.21809 32.2092 2.15713Z" fill="#7DE9FF"/>
</svg>
