<?xml version="1.0" standalone="no"?>
<!DOCTYPE svg PUBLIC "-//W3C//DTD SVG 20010904//EN"
 "http://www.w3.org/TR/2001/REC-SVG-20010904/DTD/svg10.dtd">
<svg version="1.0" xmlns="http://www.w3.org/2000/svg"
 width="1056.000000pt" height="1056.000000pt" viewBox="0 0 1056.000000 1056.000000"
 preserveAspectRatio="xMidYMid meet">
<metadata>
Created by potrace 1.14, written by Peter Selinger 2001-2017
</metadata>
<g transform="translate(0.000000,1056.000000) scale(0.100000,-0.100000)"
fill="#000000" stroke="none">
<path d="M1728 9435 c-2 -2 -21 -5 -43 -8 -84 -12 -243 -80 -292 -124 -13 -13
-28 -23 -33 -23 -4 0 -10 -3 -12 -7 -1 -5 -23 -26 -48 -48 -43 -38 -64 -55
-155 -124 -22 -17 -49 -38 -60 -46 -10 -8 -25 -15 -32 -15 -7 0 -13 -3 -13 -8
0 -4 -17 -16 -37 -27 -21 -11 -58 -31 -83 -45 -106 -61 -390 -166 -495 -183
-16 -3 -57 -10 -90 -15 -33 -6 -73 -13 -90 -16 -44 -7 -95 -27 -95 -37 0 -5
-5 -9 -10 -9 -29 0 -93 -89 -119 -165 -19 -57 -20 -84 -20 -475 0 -403 0 -417
22 -481 45 -132 144 -213 262 -213 80 1 131 7 300 40 164 31 481 126 497 149
4 6 8 7 8 3 0 -8 49 13 190 79 52 25 104 49 115 54 11 5 71 40 134 79 63 38
118 70 123 70 4 0 8 5 8 10 0 6 10 15 23 20 12 5 34 19 48 31 23 18 30 19 50
9 13 -7 26 -16 29 -19 7 -8 119 -81 124 -81 3 0 24 -12 48 -27 62 -40 73 -46
178 -98 143 -71 152 -75 167 -75 7 0 13 -5 13 -12 0 -6 3 -8 6 -5 4 3 15 2 25
-4 19 -10 238 -88 242 -87 1 1 25 -6 54 -16 28 -9 64 -19 80 -22 15 -3 46 -10
68 -15 59 -15 115 -27 160 -33 23 -4 52 -9 65 -11 50 -10 88 -16 141 -20 30
-3 86 -7 124 -11 100 -9 510 -4 510 6 0 0 20 3 45 5 51 4 127 14 150 20 8 2
37 6 64 10 27 3 53 8 57 10 4 3 22 7 40 9 81 12 324 82 454 133 113 44 306
134 323 150 7 7 17 13 22 13 9 0 151 80 160 89 15 17 151 102 157 99 5 -2 53
-33 108 -69 55 -36 125 -80 155 -96 73 -41 237 -123 244 -123 3 0 30 -11 60
-25 30 -14 58 -25 61 -25 4 0 21 -6 38 -14 49 -22 212 -76 231 -76 9 0 24 -4
34 -9 15 -9 124 -37 180 -47 12 -2 32 -6 45 -8 12 -2 33 -7 47 -10 14 -3 42
-8 63 -11 20 -3 53 -7 72 -10 19 -3 50 -7 68 -10 159 -22 602 -22 700 0 12 3
46 7 75 9 29 3 56 7 60 9 4 3 31 8 61 11 29 4 57 9 61 11 4 3 23 7 41 9 39 6
163 38 264 68 39 12 72 22 75 23 3 1 14 5 25 9 11 4 45 17 75 28 87 32 280
119 333 150 26 15 50 28 52 28 10 0 190 113 193 121 2 5 9 9 15 9 7 0 25 11
41 25 16 14 32 25 36 25 5 0 134 -81 192 -122 75 -52 357 -192 493 -244 55
-21 102 -39 105 -39 3 -1 28 -9 56 -18 28 -10 59 -20 70 -22 10 -3 69 -19 129
-35 110 -30 121 -33 205 -45 25 -3 52 -9 60 -11 61 -22 218 -21 263 1 70 33
161 145 170 208 1 12 6 27 10 34 4 6 6 204 5 440 -3 426 -3 428 -27 488 -17
41 -42 78 -80 116 -55 54 -86 69 -176 84 -16 3 -41 7 -55 10 -14 3 -38 7 -55
10 -16 2 -46 9 -65 15 -19 6 -45 13 -57 16 -54 11 -226 75 -315 117 -173 82
-347 199 -488 327 -30 27 -58 50 -62 50 -4 0 -13 6 -20 13 -13 13 -70 44 -118
65 -121 53 -268 63 -405 28 -84 -22 -201 -92 -287 -172 -54 -51 -163 -135
-205 -160 -18 -10 -33 -21 -33 -24 0 -4 -16 -12 -35 -20 -19 -8 -35 -16 -35
-20 0 -3 -16 -12 -35 -19 -19 -7 -35 -17 -35 -22 0 -5 -5 -9 -11 -9 -5 0 -36
-12 -67 -26 -108 -50 -296 -112 -387 -128 -16 -3 -41 -8 -55 -11 -40 -9 -83
-15 -125 -20 -22 -2 -40 -4 -40 -5 0 -5 -125 -10 -230 -11 -115 -1 -220 5
-295 17 -19 3 -46 7 -60 9 -53 8 -193 40 -255 59 -79 23 -121 38 -175 61 -92
38 -214 99 -218 107 -2 5 -12 8 -23 8 -10 0 -19 4 -19 10 0 5 -15 16 -32 25
-45 21 -176 121 -266 202 -79 72 -134 113 -151 113 -6 0 -11 4 -11 9 0 5 -33
19 -72 32 -109 34 -284 32 -371 -4 -19 -9 -38 -13 -41 -9 -3 3 -6 1 -6 -5 0
-6 -11 -14 -24 -17 -32 -8 -161 -95 -206 -138 -58 -56 -146 -128 -158 -128 -6
0 -12 -3 -14 -8 -4 -11 -114 -82 -126 -82 -6 0 -12 -5 -14 -11 -2 -5 -10 -11
-18 -13 -8 -1 -31 -12 -50 -24 -19 -12 -51 -27 -70 -33 -19 -7 -40 -15 -46
-20 -8 -7 -198 -78 -207 -78 -1 0 -9 -2 -17 -5 -8 -2 -28 -8 -45 -12 -16 -4
-37 -9 -45 -11 -8 -2 -24 -5 -35 -7 -11 -3 -45 -9 -75 -15 -81 -15 -121 -20
-213 -27 -102 -8 -307 -11 -307 -4 0 3 -24 6 -53 6 -74 3 -187 18 -242 34 -16
5 -41 11 -55 14 -75 15 -168 42 -250 73 -74 29 -272 123 -280 133 -3 4 -20 15
-39 24 -30 16 -129 82 -141 96 -3 3 -21 17 -40 31 -19 15 -51 42 -71 60 -63
59 -114 104 -135 116 -34 22 -123 62 -146 67 -13 2 -30 7 -39 10 -15 7 -166
16 -171 11z"/>
<path d="M1737 6314 c-1 -2 -23 -5 -49 -8 -127 -16 -274 -94 -405 -216 -29
-27 -58 -50 -62 -50 -5 0 -11 -4 -13 -8 -11 -28 -236 -171 -363 -231 -65 -31
-241 -99 -275 -106 -8 -2 -15 -4 -15 -5 0 -1 -7 -3 -15 -5 -16 -3 -90 -22
-125 -31 -11 -3 -33 -7 -50 -9 -87 -12 -115 -18 -163 -31 -28 -8 -52 -19 -52
-24 0 -6 -5 -10 -11 -10 -17 0 -76 -70 -98 -115 -39 -83 -41 -107 -38 -545 2
-423 2 -425 26 -485 17 -43 41 -77 84 -118 32 -32 61 -56 64 -53 3 3 18 -1 33
-9 18 -9 50 -13 101 -10 87 5 121 10 269 40 41 8 84 17 95 19 36 7 150 37 165
43 8 3 17 7 20 8 88 23 110 30 110 35 0 3 8 6 18 7 47 4 342 137 486 220 71
40 193 119 264 169 22 16 26 15 107 -40 47 -31 89 -56 94 -56 5 0 11 -4 13 -9
6 -18 268 -151 408 -208 135 -55 372 -130 464 -147 6 -1 20 -5 31 -9 11 -3 36
-8 55 -11 19 -3 60 -10 90 -16 30 -6 78 -13 105 -16 72 -8 93 -12 104 -18 5
-4 12 -2 16 3 3 6 15 7 28 2 65 -24 572 -14 702 14 11 2 40 7 65 10 54 7 85
13 85 15 0 1 13 4 28 6 16 1 68 13 115 24 48 12 94 23 102 25 8 2 15 4 15 5 0
3 39 12 58 13 9 1 17 4 17 8 0 4 15 10 33 14 36 9 46 12 50 15 1 1 9 3 17 5
39 10 136 50 142 60 4 5 8 7 8 3 0 -4 24 3 53 16 75 34 211 100 217 106 3 3
25 16 50 29 25 13 61 34 80 46 19 12 39 22 44 23 5 0 12 4 15 9 3 4 34 28 69
51 l63 44 97 -63 c179 -115 202 -129 202 -123 0 3 12 -3 28 -14 39 -27 190
-97 312 -145 143 -57 401 -133 510 -151 19 -3 46 -8 60 -10 14 -3 41 -7 60
-10 19 -3 46 -8 60 -10 206 -37 669 -37 870 0 14 2 41 6 60 9 19 3 58 9 85 15
28 6 61 12 75 14 14 2 43 8 65 14 22 6 49 13 60 15 11 2 27 7 35 10 8 3 56 18
105 32 50 15 126 41 170 58 44 17 82 32 85 32 68 17 383 189 519 282 l63 44
57 -37 c93 -62 211 -134 299 -181 80 -43 296 -143 317 -147 9 -1 56 -18 100
-36 41 -17 60 -23 80 -27 11 -1 29 -7 40 -12 36 -18 342 -92 363 -90 4 1 9 0
12 -1 20 -8 164 -24 215 -23 115 0 223 100 260 241 22 82 21 842 -1 905 -26
75 -57 127 -99 166 -56 51 -100 66 -290 96 -96 15 -334 98 -455 159 -127 64
-290 166 -298 188 -2 4 -8 8 -14 8 -9 0 -88 64 -157 129 -64 58 -202 133 -271
147 -8 1 -31 7 -51 12 -20 5 -76 8 -125 6 -98 -4 -120 -7 -130 -17 -4 -4 -15
-7 -24 -7 -46 0 -219 -100 -272 -157 -29 -30 -56 -53 -183 -151 -88 -69 -397
-218 -489 -238 -11 -2 -40 -10 -65 -18 -44 -15 -117 -33 -171 -42 -111 -20
-145 -25 -215 -30 -192 -15 -429 -4 -574 27 -25 5 -59 12 -76 15 -35 6 -133
33 -155 41 -8 4 -17 7 -20 8 -59 16 -194 68 -201 78 -3 5 -10 8 -15 7 -12 -2
-158 73 -162 83 -2 4 -8 7 -13 7 -10 0 -143 87 -181 119 -56 45 -109 91 -151
132 -137 130 -324 183 -512 143 -109 -23 -238 -91 -330 -175 -22 -20 -52 -48
-68 -62 -15 -13 -43 -35 -62 -48 -19 -13 -35 -27 -35 -31 0 -5 -4 -8 -10 -8
-5 0 -36 -18 -67 -40 -32 -22 -63 -40 -70 -40 -6 0 -13 -4 -15 -8 -4 -11 -212
-112 -230 -112 -8 0 -18 -4 -24 -8 -8 -8 -129 -51 -158 -56 -6 -2 -29 -8 -51
-14 -22 -6 -56 -14 -75 -17 -19 -3 -52 -10 -74 -16 -21 -6 -44 -8 -52 -5 -8 3
-14 2 -14 -2 0 -5 -10 -8 -22 -9 -13 0 -59 -4 -103 -8 -135 -14 -369 -8 -483
10 -17 3 -49 8 -70 11 -20 2 -46 7 -57 11 -11 3 -29 8 -40 9 -36 6 -110 24
-130 33 -11 4 -54 19 -95 31 -41 13 -84 30 -95 36 -11 7 -23 13 -28 13 -13 0
-140 62 -212 105 -93 54 -206 136 -295 216 -116 104 -118 105 -183 137 -74 36
-146 54 -227 57 -34 1 -62 1 -63 0z"/>
<path d="M1716 3189 c-28 -4 -53 -6 -57 -3 -4 2 -10 0 -14 -6 -3 -5 -15 -10
-25 -10 -11 0 -44 -11 -74 -25 -30 -14 -59 -25 -64 -25 -5 0 -15 -7 -22 -16
-8 -8 -28 -21 -47 -29 -18 -8 -33 -19 -33 -24 0 -6 -6 -11 -14 -11 -8 0 -16
-4 -18 -9 -6 -18 -176 -155 -268 -216 -117 -78 -347 -195 -384 -195 -8 0 -17
-4 -20 -9 -3 -5 -16 -11 -28 -14 -13 -3 -61 -16 -108 -30 -47 -14 -101 -29
-120 -32 -19 -4 -46 -9 -60 -11 -14 -3 -47 -7 -74 -10 -27 -3 -72 -16 -100
-28 -52 -23 -126 -90 -126 -113 0 -7 -4 -13 -8 -13 -4 0 -17 -24 -28 -52 -18
-50 -19 -82 -19 -493 0 -435 0 -441 23 -496 27 -67 90 -142 141 -168 65 -34
158 -36 308 -7 11 3 37 7 57 10 19 3 55 10 78 15 24 6 57 13 73 16 17 3 35 7
40 9 6 1 30 8 55 15 49 13 166 49 190 58 8 3 20 7 25 9 120 36 516 226 537
258 4 6 8 8 8 4 0 -4 50 26 111 68 l111 75 71 -48 c39 -26 76 -50 82 -53 5 -3
22 -13 38 -22 50 -33 72 -45 82 -48 6 -1 21 -10 35 -19 26 -18 214 -111 224
-111 3 0 29 -11 58 -25 51 -24 330 -119 379 -129 36 -7 65 -14 143 -32 39 -8
82 -18 96 -21 14 -3 36 -7 50 -8 14 -1 48 -5 75 -10 28 -4 60 -9 72 -10 12 -2
26 -6 32 -9 5 -4 12 -2 16 4 4 6 13 7 23 2 45 -22 464 -20 647 3 89 11 177 24
210 32 11 2 49 10 85 18 371 78 725 229 1035 439 33 22 65 41 70 41 6 0 51
-28 100 -61 125 -84 396 -231 408 -222 2 2 15 -5 30 -15 15 -9 27 -15 27 -11
0 4 6 2 13 -4 7 -6 39 -20 72 -32 33 -12 69 -25 80 -30 46 -20 306 -94 370
-105 11 -2 32 -6 48 -9 75 -16 202 -38 212 -36 6 2 12 1 15 0 72 -28 602 -31
745 -4 17 3 48 7 70 9 22 2 40 4 40 5 0 1 12 3 26 5 57 7 97 15 164 30 149 34
200 48 213 57 6 6 12 8 12 5 0 -18 350 119 495 193 88 46 294 167 305 179 3 3
19 16 37 28 33 24 56 22 83 -6 8 -9 26 -22 40 -30 14 -8 70 -43 125 -76 111
-69 339 -185 361 -185 8 0 14 -5 14 -12 0 -6 3 -9 6 -5 4 3 24 -3 45 -14 22
-11 39 -17 39 -14 0 3 13 -1 28 -9 34 -17 167 -61 168 -55 0 2 7 -1 15 -7 8
-6 39 -17 69 -24 30 -7 60 -15 65 -19 6 -3 16 -6 22 -7 7 -1 57 -11 110 -23
95 -20 116 -23 213 -38 85 -12 163 -8 203 12 82 39 146 124 176 230 7 25 11
181 11 441 0 333 -3 411 -16 454 -17 58 -45 111 -74 142 -11 12 -20 25 -20 28
0 6 -77 53 -90 56 -3 0 -16 4 -30 7 -14 4 -43 9 -65 13 -82 12 -101 16 -140
26 -22 5 -47 12 -56 13 -38 7 -238 77 -289 101 -30 14 -66 31 -80 37 -14 6
-38 20 -55 32 -16 11 -31 18 -32 15 -1 -6 -183 111 -224 144 -14 12 -41 33
-60 48 -20 15 -49 40 -65 56 -70 67 -214 157 -269 168 -5 1 -39 9 -75 16 -66
15 -164 16 -233 3 -69 -12 -197 -62 -197 -77 0 -4 -6 -8 -13 -8 -8 0 -67 -45
-131 -100 -121 -103 -223 -177 -311 -224 -27 -15 -57 -31 -65 -36 -25 -16
-143 -67 -185 -81 -22 -7 -44 -16 -50 -20 -9 -6 -62 -20 -67 -18 -2 0 -16 -5
-33 -11 -64 -26 -254 -62 -390 -76 -153 -16 -413 -5 -555 22 -47 9 -92 17
-100 18 -70 13 -234 64 -322 101 -43 18 -78 30 -78 27 0 -4 -4 -2 -8 3 -4 6
-38 26 -77 45 -129 65 -257 154 -382 267 -41 36 -84 73 -96 83 -30 24 -117 72
-117 65 0 -3 -11 2 -24 10 -13 9 -37 17 -55 18 -17 1 -31 4 -31 7 0 11 -195 3
-240 -9 -59 -16 -190 -72 -190 -81 0 -4 -12 -13 -27 -19 -27 -11 -51 -30 -142
-113 -161 -146 -486 -321 -691 -373 -66 -16 -159 -38 -175 -41 -11 -2 -31 -5
-45 -8 -108 -21 -226 -30 -380 -29 -187 2 -220 5 -445 48 -181 35 -462 149
-613 250 -30 19 -57 35 -62 35 -5 0 -10 3 -12 8 -1 4 -21 20 -43 37 -61 45
-49 35 -183 158 -23 20 -46 37 -52 37 -5 0 -10 4 -10 8 0 5 -21 19 -47 31 -27
12 -55 26 -63 30 -50 26 -187 41 -264 30z"/>
</g>
</svg>
